<?xml version="1.0" encoding="UTF-8"?>
<svg width="421px" height="213px" viewBox="0 0 421 213" version="1.1" xmlns="http://www.w3.org/2000/svg" xmlns:xlink="http://www.w3.org/1999/xlink">
    <!-- Generator: Sketch 53 (72520) - https://sketchapp.com -->
    <title>quartiles v2</title>
    <desc>Created with Sketch.</desc>
    <g id="quartiles-v2" stroke="none" stroke-width="1" fill="none" fill-rule="evenodd">
        <g id="Group" transform="translate(30.000000, 34.000000)" fill-rule="nonzero">
            <circle id="Oval-Copy-5" fill="#4C7EF3" cx="28" cy="119" r="4"></circle>
            <circle id="Oval-Copy-6" fill="#4C7EF3" cx="41" cy="119" r="4"></circle>
            <circle id="Oval-Copy-10" fill="#4C7EF3" cx="107" cy="119" r="4"></circle>
            <circle id="Oval-Copy-20" fill="#4C7EF3" cx="279" cy="119" r="4"></circle>
            <circle id="Oval-Copy-15" fill="#4C7EF3" cx="134" cy="119" r="4"></circle>
            <circle id="Oval-Copy-16" fill="#4C7EF3" cx="147" cy="119" r="4"></circle>
            <circle id="Oval-Copy-17" fill="#4C7EF3" cx="173" cy="119" r="4"></circle>
            <circle id="Oval-Copy-18" fill="#4C7EF3" cx="200" cy="119" r="4"></circle>
            <circle id="Oval-Copy-22" fill="#4C7EF3" cx="266" cy="119" r="4"></circle>
            <circle id="Oval-Copy-23" fill="#4C7EF3" cx="293" cy="119" r="4"></circle>
            <circle id="Oval-Copy-24" fill="#4C7EF3" cx="319" cy="119" r="4"></circle>
            <circle id="Oval-Copy-19" fill="#4C7EF3" cx="213" cy="119" r="4"></circle>
            <circle id="Oval-Copy-12" fill="#4C7EF3" cx="94" cy="119" r="4"></circle>
            <circle id="Oval-Copy-9" fill="#4C7EF3" cx="41" cy="105" r="4"></circle>
            <circle id="Oval-Copy-11" fill="#4C7EF3" cx="107" cy="105" r="4"></circle>
            <circle id="Oval-Copy-21" fill="#4C7EF3" cx="279" cy="105" r="4"></circle>
            <circle id="Oval-Copy-13" fill="#4C7EF3" cx="94" cy="105" r="4"></circle>
            <circle id="Oval-Copy-14" fill="#4C7EF3" cx="94" cy="91" r="4"></circle>
            <circle id="Oval-Copy-7" fill="#4C7EF3" cx="54" cy="119" r="4"></circle>
            <circle id="Oval-Copy-8" fill="#4C7EF3" cx="67" cy="119" r="4"></circle>
            <path d="M15.3,151.58 C15.7466689,151.58 16.1349984,151.673332 16.465,151.86 C16.7950016,152.046668 17.0499991,152.308332 17.23,152.645 C17.4100009,152.981668 17.5,153.369998 17.5,153.81 C17.5,154.256669 17.4016677,154.649998 17.205,154.99 C17.0083323,155.330002 16.7300018,155.594999 16.37,155.785 C16.0099982,155.975001 15.5900024,156.07 15.11,156.07 C14.6833312,156.07 14.2616688,155.991667 13.845,155.835 C13.4283312,155.678333 13.0766681,155.466668 12.79,155.2 L13.1,154.57 C13.7533366,155.110003 14.4233299,155.38 15.11,155.38 C15.6033358,155.38 15.9899986,155.240001 16.27,154.96 C16.5500014,154.679999 16.69,154.300002 16.69,153.82 C16.69,153.353331 16.551668,152.976668 16.275,152.69 C15.998332,152.403332 15.6300023,152.26 15.17,152.26 C14.4966633,152.26 13.960002,152.533331 13.56,153.08 L12.99,153.08 L12.99,148.95 L17.22,148.95 L17.22,149.63 L13.8,149.63 L13.8,152.14 C13.9866676,151.959999 14.208332,151.821667 14.465,151.725 C14.721668,151.628333 14.9999985,151.58 15.3,151.58 Z" id="5" fill="#0F1931"></path>
            <path d="M78.67,155.31 L80.22,155.31 L80.22,156 L76.3,156 L76.3,155.31 L77.85,155.31 L77.85,149.97 L76.61,150.75 L76.23,150.12 L78.08,148.95 L78.67,148.95 L78.67,155.31 Z M84,156.08 C83.1933293,156.08 82.5800021,155.773336 82.16,155.16 C81.7399979,154.546664 81.53,153.653339 81.53,152.48 C81.53,151.299994 81.7399979,150.403336 82.16,149.79 C82.5800021,149.176664 83.1933293,148.87 84,148.87 C84.8066707,148.87 85.4199979,149.174997 85.84,149.785 C86.2600021,150.395003 86.47,151.289994 86.47,152.47 C86.47,153.650006 86.2600021,154.546664 85.84,155.16 C85.4199979,155.773336 84.8066707,156.08 84,156.08 Z M84,155.39 C84.5600028,155.39 84.973332,155.153336 85.24,154.68 C85.506668,154.206664 85.64,153.470005 85.64,152.47 C85.64,151.463328 85.5083346,150.728336 85.245,150.265 C84.9816654,149.801664 84.5666695,149.57 84,149.57 C83.4399972,149.57 83.026668,149.803331 82.76,150.27 C82.493332,150.736669 82.36,151.469995 82.36,152.47 C82.36,153.470005 82.493332,154.206664 82.76,154.68 C83.026668,155.153336 83.4399972,155.39 84,155.39 Z" id="10" fill="#0F1931"></path>
            <path d="M144.67,155.31 L146.22,155.31 L146.22,156 L142.3,156 L142.3,155.31 L143.85,155.31 L143.85,149.97 L142.61,150.75 L142.23,150.12 L144.08,148.95 L144.67,148.95 L144.67,155.31 Z M150.3,151.58 C150.746669,151.58 151.134998,151.673332 151.465,151.86 C151.795002,152.046668 152.049999,152.308332 152.23,152.645 C152.410001,152.981668 152.5,153.369998 152.5,153.81 C152.5,154.256669 152.401668,154.649998 152.205,154.99 C152.008332,155.330002 151.730002,155.594999 151.37,155.785 C151.009998,155.975001 150.590002,156.07 150.11,156.07 C149.683331,156.07 149.261669,155.991667 148.845,155.835 C148.428331,155.678333 148.076668,155.466668 147.79,155.2 L148.1,154.57 C148.753337,155.110003 149.42333,155.38 150.11,155.38 C150.603336,155.38 150.989999,155.240001 151.27,154.96 C151.550001,154.679999 151.69,154.300002 151.69,153.82 C151.69,153.353331 151.551668,152.976668 151.275,152.69 C150.998332,152.403332 150.630002,152.26 150.17,152.26 C149.496663,152.26 148.960002,152.533331 148.56,153.08 L147.99,153.08 L147.99,148.95 L152.22,148.95 L152.22,149.63 L148.8,149.63 L148.8,152.14 C148.986668,151.959999 149.208332,151.821667 149.465,151.725 C149.721668,151.628333 149.999999,151.58 150.3,151.58 Z" id="15" fill="#0F1931"></path>
            <path d="M212.39,155.31 L212.39,156 L207.85,156 L207.85,155.38 L210.32,152.66 C210.653335,152.286665 210.894999,151.951668 211.045,151.655 C211.195001,151.358332 211.27,151.060001 211.27,150.76 C211.27,150.373331 211.156668,150.076668 210.93,149.87 C210.703332,149.663332 210.383335,149.56 209.97,149.56 C209.289997,149.56 208.623337,149.829997 207.97,150.37 L207.66,149.74 C207.940001,149.473332 208.291665,149.261667 208.715,149.105 C209.138335,148.948333 209.563331,148.87 209.99,148.87 C210.63667,148.87 211.148331,149.036665 211.525,149.37 C211.901669,149.703335 212.09,150.153331 212.09,150.72 C212.09,151.126669 211.998334,151.516665 211.815,151.89 C211.631666,152.263335 211.330002,152.679998 210.91,153.14 L208.91,155.31 L212.39,155.31 Z M216,156.08 C215.193329,156.08 214.580002,155.773336 214.16,155.16 C213.739998,154.546664 213.53,153.653339 213.53,152.48 C213.53,151.299994 213.739998,150.403336 214.16,149.79 C214.580002,149.176664 215.193329,148.87 216,148.87 C216.806671,148.87 217.419998,149.174997 217.84,149.785 C218.260002,150.395003 218.47,151.289994 218.47,152.47 C218.47,153.650006 218.260002,154.546664 217.84,155.16 C217.419998,155.773336 216.806671,156.08 216,156.08 Z M216,155.39 C216.560003,155.39 216.973332,155.153336 217.24,154.68 C217.506668,154.206664 217.64,153.470005 217.64,152.47 C217.64,151.463328 217.508335,150.728336 217.245,150.265 C216.981665,149.801664 216.566669,149.57 216,149.57 C215.439997,149.57 215.026668,149.803331 214.76,150.27 C214.493332,150.736669 214.36,151.469995 214.36,152.47 C214.36,153.470005 214.493332,154.206664 214.76,154.68 C215.026668,155.153336 215.439997,155.39 216,155.39 Z" id="20" fill="#0F1931"></path>
            <path d="M278.39,155.31 L278.39,156 L273.85,156 L273.85,155.38 L276.32,152.66 C276.653335,152.286665 276.894999,151.951668 277.045,151.655 C277.195001,151.358332 277.27,151.060001 277.27,150.76 C277.27,150.373331 277.156668,150.076668 276.93,149.87 C276.703332,149.663332 276.383335,149.56 275.97,149.56 C275.289997,149.56 274.623337,149.829997 273.97,150.37 L273.66,149.74 C273.940001,149.473332 274.291665,149.261667 274.715,149.105 C275.138335,148.948333 275.563331,148.87 275.99,148.87 C276.63667,148.87 277.148331,149.036665 277.525,149.37 C277.901669,149.703335 278.09,150.153331 278.09,150.72 C278.09,151.126669 277.998334,151.516665 277.815,151.89 C277.631666,152.263335 277.330002,152.679998 276.91,153.14 L274.91,155.31 L278.39,155.31 Z M282.3,151.58 C282.746669,151.58 283.134998,151.673332 283.465,151.86 C283.795002,152.046668 284.049999,152.308332 284.23,152.645 C284.410001,152.981668 284.5,153.369998 284.5,153.81 C284.5,154.256669 284.401668,154.649998 284.205,154.99 C284.008332,155.330002 283.730002,155.594999 283.37,155.785 C283.009998,155.975001 282.590002,156.07 282.11,156.07 C281.683331,156.07 281.261669,155.991667 280.845,155.835 C280.428331,155.678333 280.076668,155.466668 279.79,155.2 L280.1,154.57 C280.753337,155.110003 281.42333,155.38 282.11,155.38 C282.603336,155.38 282.989999,155.240001 283.27,154.96 C283.550001,154.679999 283.69,154.300002 283.69,153.82 C283.69,153.353331 283.551668,152.976668 283.275,152.69 C282.998332,152.403332 282.630002,152.26 282.17,152.26 C281.496663,152.26 280.960002,152.533331 280.56,153.08 L279.99,153.08 L279.99,148.95 L284.22,148.95 L284.22,149.63 L280.8,149.63 L280.8,152.14 C280.986668,151.959999 281.208332,151.821667 281.465,151.725 C281.721668,151.628333 281.999999,151.58 282.3,151.58 Z" id="25" fill="#0F1931"></path>
            <path d="M343.97,152.38 C344.383335,152.500001 344.699999,152.704999 344.92,152.995 C345.140001,153.285001 345.25,153.649998 345.25,154.09 C345.25,154.703336 345.041669,155.186665 344.625,155.54 C344.208331,155.893335 343.643337,156.07 342.93,156.07 C342.476664,156.07 342.040002,155.993334 341.62,155.84 C341.199998,155.686666 340.846668,155.473335 340.56,155.2 L340.87,154.57 C341.510003,155.110003 342.189996,155.38 342.91,155.38 C343.410003,155.38 343.789999,155.268334 344.05,155.045 C344.310001,154.821666 344.44,154.493336 344.44,154.06 C344.44,153.199996 343.900005,152.77 342.82,152.77 L342.01,152.77 L342.01,152.08 L342.66,152.08 C343.180003,152.08 343.579999,151.965001 343.86,151.735 C344.140001,151.504999 344.28,151.173336 344.28,150.74 C344.28,150.359998 344.166668,150.068334 343.94,149.865 C343.713332,149.661666 343.390002,149.56 342.97,149.56 C342.289997,149.56 341.623337,149.829997 340.97,150.37 L340.66,149.74 C340.946668,149.466665 341.296665,149.253334 341.71,149.1 C342.123335,148.946666 342.553331,148.87 343,148.87 C343.640003,148.87 344.148331,149.031665 344.525,149.355 C344.901669,149.678335 345.09,150.113331 345.09,150.66 C345.09,151.066669 344.991668,151.421665 344.795,151.725 C344.598332,152.028335 344.323335,152.246666 343.97,152.38 Z M349,156.08 C348.193329,156.08 347.580002,155.773336 347.16,155.16 C346.739998,154.546664 346.53,153.653339 346.53,152.48 C346.53,151.299994 346.739998,150.403336 347.16,149.79 C347.580002,149.176664 348.193329,148.87 349,148.87 C349.806671,148.87 350.419998,149.174997 350.84,149.785 C351.260002,150.395003 351.47,151.289994 351.47,152.47 C351.47,153.650006 351.260002,154.546664 350.84,155.16 C350.419998,155.773336 349.806671,156.08 349,156.08 Z M349,155.39 C349.560003,155.39 349.973332,155.153336 350.24,154.68 C350.506668,154.206664 350.64,153.470005 350.64,152.47 C350.64,151.463328 350.508335,150.728336 350.245,150.265 C349.981665,149.801664 349.566669,149.57 349,149.57 C348.439997,149.57 348.026668,149.803331 347.76,150.27 C347.493332,150.736669 347.36,151.469995 347.36,152.47 C347.36,153.470005 347.493332,154.206664 347.76,154.68 C348.026668,155.153336 348.439997,155.39 349,155.39 Z" id="30" fill="#0F1931"></path>
            <path d="M19.5,137.5 C20.0522847,137.5 20.5,137.947715 20.5,138.5 C20.5,139.052285 20.0522847,139.5 19.5,139.5 L10.5,139.5 C9.94771525,139.5 9.5,139.052285 9.5,138.5 C9.5,137.947715 9.94771525,137.5 10.5,137.5 L19.5,137.5 Z" id="1" fill="#0F1931" transform="translate(15.000000, 138.500000) rotate(-90.000000) translate(-15.000000, -138.500000) "></path>
            <path d="M32.5,137.5 C33.0522847,137.5 33.5,137.947715 33.5,138.5 C33.5,139.052285 33.0522847,139.5 32.5,139.5 L23.5,139.5 C22.9477153,139.5 22.5,139.052285 22.5,138.5 C22.5,137.947715 22.9477153,137.5 23.5,137.5 L32.5,137.5 Z" id="1-copy-3" fill="#0F1931" transform="translate(28.000000, 138.500000) rotate(-90.000000) translate(-28.000000, -138.500000) "></path>
            <path d="M45.5,137.5 C46.0522847,137.5 46.5,137.947715 46.5,138.5 C46.5,139.052285 46.0522847,139.5 45.5,139.5 L36.5,139.5 C35.9477153,139.5 35.5,139.052285 35.5,138.5 C35.5,137.947715 35.9477153,137.5 36.5,137.5 L45.5,137.5 Z" id="1-copy-4" fill="#0F1931" transform="translate(41.000000, 138.500000) rotate(-90.000000) translate(-41.000000, -138.500000) "></path>
            <path d="M58.5,137.5 C59.0522847,137.5 59.5,137.947715 59.5,138.5 C59.5,139.052285 59.0522847,139.5 58.5,139.5 L49.5,139.5 C48.9477153,139.5 48.5,139.052285 48.5,138.5 C48.5,137.947715 48.9477153,137.5 49.5,137.5 L58.5,137.5 Z" id="1-copy-5" fill="#0F1931" transform="translate(54.000000, 138.500000) rotate(-90.000000) translate(-54.000000, -138.500000) "></path>
            <path d="M71.5,137.5 C72.0522847,137.5 72.5,137.947715 72.5,138.5 C72.5,139.052285 72.0522847,139.5 71.5,139.5 L62.5,139.5 C61.9477153,139.5 61.5,139.052285 61.5,138.5 C61.5,137.947715 61.9477153,137.5 62.5,137.5 L71.5,137.5 Z" id="1-copy-6" fill="#0F1931" transform="translate(67.000000, 138.500000) rotate(-90.000000) translate(-67.000000, -138.500000) "></path>
            <path d="M85.5,137.5 C86.0522847,137.5 86.5,137.947715 86.5,138.5 C86.5,139.052285 86.0522847,139.5 85.5,139.5 L76.5,139.5 C75.9477153,139.5 75.5,139.052285 75.5,138.5 C75.5,137.947715 75.9477153,137.5 76.5,137.5 L85.5,137.5 Z" id="1-copy-7" fill="#0F1931" transform="translate(81.000000, 138.500000) rotate(-90.000000) translate(-81.000000, -138.500000) "></path>
            <path d="M98.5,137.5 C99.0522847,137.5 99.5,137.947715 99.5,138.5 C99.5,139.052285 99.0522847,139.5 98.5,139.5 L89.5,139.5 C88.9477153,139.5 88.5,139.052285 88.5,138.5 C88.5,137.947715 88.9477153,137.5 89.5,137.5 L98.5,137.5 Z" id="1-copy-8" fill="#0F1931" transform="translate(94.000000, 138.500000) rotate(-90.000000) translate(-94.000000, -138.500000) "></path>
            <path d="M111.5,137.5 C112.052285,137.5 112.5,137.947715 112.5,138.5 C112.5,139.052285 112.052285,139.5 111.5,139.5 L102.5,139.5 C101.947715,139.5 101.5,139.052285 101.5,138.5 C101.5,137.947715 101.947715,137.5 102.5,137.5 L111.5,137.5 Z" id="1-copy" fill="#0F1931" transform="translate(107.000000, 138.500000) rotate(-90.000000) translate(-107.000000, -138.500000) "></path>
            <path d="M138.5,137.5 C139.052285,137.5 139.5,137.947715 139.5,138.5 C139.5,139.052285 139.052285,139.5 138.5,139.5 L129.5,139.5 C128.947715,139.5 128.5,139.052285 128.5,138.5 C128.5,137.947715 128.947715,137.5 129.5,137.5 L138.5,137.5 Z" id="1-copy-10" fill="#0F1931" transform="translate(134.000000, 138.500000) rotate(-90.000000) translate(-134.000000, -138.500000) "></path>
            <path d="M151.5,137.5 C152.052285,137.5 152.5,137.947715 152.5,138.5 C152.5,139.052285 152.052285,139.5 151.5,139.5 L142.5,139.5 C141.947715,139.5 141.5,139.052285 141.5,138.5 C141.5,137.947715 141.947715,137.5 142.5,137.5 L151.5,137.5 Z" id="1-copy-2" fill="#0F1931" transform="translate(147.000000, 138.500000) rotate(-90.000000) translate(-147.000000, -138.500000) "></path>
            <path d="M164.5,137.5 C165.052285,137.5 165.5,137.947715 165.5,138.5 C165.5,139.052285 165.052285,139.5 164.5,139.5 L155.5,139.5 C154.947715,139.5 154.5,139.052285 154.5,138.5 C154.5,137.947715 154.947715,137.5 155.5,137.5 L164.5,137.5 Z" id="3" fill="#0F1931" transform="translate(160.000000, 138.500000) rotate(-90.000000) translate(-160.000000, -138.500000) "></path>
            <path d="M177.5,137.5 C178.052285,137.5 178.5,137.947715 178.5,138.5 C178.5,139.052285 178.052285,139.5 177.5,139.5 L168.5,139.5 C167.947715,139.5 167.5,139.052285 167.5,138.5 C167.5,137.947715 167.947715,137.5 168.5,137.5 L177.5,137.5 Z" id="3-copy" fill="#0F1931" transform="translate(173.000000, 138.500000) rotate(-90.000000) translate(-173.000000, -138.500000) "></path>
            <path d="M191.5,137.5 C192.052285,137.5 192.5,137.947715 192.5,138.5 C192.5,139.052285 192.052285,139.5 191.5,139.5 L182.5,139.5 C181.947715,139.5 181.5,139.052285 181.5,138.5 C181.5,137.947715 181.947715,137.5 182.5,137.5 L191.5,137.5 Z" id="3-copy-2" fill="#0F1931" transform="translate(187.000000, 138.500000) rotate(-90.000000) translate(-187.000000, -138.500000) "></path>
            <path d="M217.5,137.5 C218.052285,137.5 218.5,137.947715 218.5,138.5 C218.5,139.052285 218.052285,139.5 217.5,139.5 L208.5,139.5 C207.947715,139.5 207.5,139.052285 207.5,138.5 C207.5,137.947715 207.947715,137.5 208.5,137.5 L217.5,137.5 Z" id="5" fill="#0F1931" transform="translate(213.000000, 138.500000) rotate(-90.000000) translate(-213.000000, -138.500000) "></path>
            <path d="M230.5,137.5 C231.052285,137.5 231.5,137.947715 231.5,138.5 C231.5,139.052285 231.052285,139.5 230.5,139.5 L221.5,139.5 C220.947715,139.5 220.5,139.052285 220.5,138.5 C220.5,137.947715 220.947715,137.5 221.5,137.5 L230.5,137.5 Z" id="5-copy-2" fill="#0F1931" transform="translate(226.000000, 138.500000) rotate(-90.000000) translate(-226.000000, -138.500000) "></path>
            <path d="M244.5,137.5 C245.052285,137.5 245.5,137.947715 245.5,138.5 C245.5,139.052285 245.052285,139.5 244.5,139.5 L235.5,139.5 C234.947715,139.5 234.5,139.052285 234.5,138.5 C234.5,137.947715 234.947715,137.5 235.5,137.5 L244.5,137.5 Z" id="5-copy-3" fill="#0F1931" transform="translate(240.000000, 138.500000) rotate(-90.000000) translate(-240.000000, -138.500000) "></path>
            <path d="M257.5,137.5 C258.052285,137.5 258.5,137.947715 258.5,138.5 C258.5,139.052285 258.052285,139.5 257.5,139.5 L248.5,139.5 C247.947715,139.5 247.5,139.052285 247.5,138.5 C247.5,137.947715 247.947715,137.5 248.5,137.5 L257.5,137.5 Z" id="5-copy-4" fill="#0F1931" transform="translate(253.000000, 138.500000) rotate(-90.000000) translate(-253.000000, -138.500000) "></path>
            <path d="M270.5,137.5 C271.052285,137.5 271.5,137.947715 271.5,138.5 C271.5,139.052285 271.052285,139.5 270.5,139.5 L261.5,139.5 C260.947715,139.5 260.5,139.052285 260.5,138.5 C260.5,137.947715 260.947715,137.5 261.5,137.5 L270.5,137.5 Z" id="5-copy-5" fill="#0F1931" transform="translate(266.000000, 138.500000) rotate(-90.000000) translate(-266.000000, -138.500000) "></path>
            <path d="M283.5,137.5 C284.052285,137.5 284.5,137.947715 284.5,138.5 C284.5,139.052285 284.052285,139.5 283.5,139.5 L274.5,139.5 C273.947715,139.5 273.5,139.052285 273.5,138.5 C273.5,137.947715 273.947715,137.5 274.5,137.5 L283.5,137.5 Z" id="5-copy-6" fill="#0F1931" transform="translate(279.000000, 138.500000) rotate(-90.000000) translate(-279.000000, -138.500000) "></path>
            <path d="M297.5,137.5 C298.052285,137.5 298.5,137.947715 298.5,138.5 C298.5,139.052285 298.052285,139.5 297.5,139.5 L288.5,139.5 C287.947715,139.5 287.5,139.052285 287.5,138.5 C287.5,137.947715 287.947715,137.5 288.5,137.5 L297.5,137.5 Z" id="5-copy-7" fill="#0F1931" transform="translate(293.000000, 138.500000) rotate(-90.000000) translate(-293.000000, -138.500000) "></path>
            <path d="M310.5,137.5 C311.052285,137.5 311.5,137.947715 311.5,138.5 C311.5,139.052285 311.052285,139.5 310.5,139.5 L301.5,139.5 C300.947715,139.5 300.5,139.052285 300.5,138.5 C300.5,137.947715 300.947715,137.5 301.5,137.5 L310.5,137.5 Z" id="5-copy-8" fill="#0F1931" transform="translate(306.000000, 138.500000) rotate(-90.000000) translate(-306.000000, -138.500000) "></path>
            <path d="M323.5,137.5 C324.052285,137.5 324.5,137.947715 324.5,138.5 C324.5,139.052285 324.052285,139.5 323.5,139.5 L314.5,139.5 C313.947715,139.5 313.5,139.052285 313.5,138.5 C313.5,137.947715 313.947715,137.5 314.5,137.5 L323.5,137.5 Z" id="5-copy-9" fill="#0F1931" transform="translate(319.000000, 138.500000) rotate(-90.000000) translate(-319.000000, -138.500000) "></path>
            <path d="M336.5,137.5 C337.052285,137.5 337.5,137.947715 337.5,138.5 C337.5,139.052285 337.052285,139.5 336.5,139.5 L327.5,139.5 C326.947715,139.5 326.5,139.052285 326.5,138.5 C326.5,137.947715 326.947715,137.5 327.5,137.5 L336.5,137.5 Z" id="5-copy-10" fill="#0F1931" transform="translate(332.000000, 138.500000) rotate(-90.000000) translate(-332.000000, -138.500000) "></path>
            <path d="M350.5,137.5 C351.052285,137.5 351.5,137.947715 351.5,138.5 C351.5,139.052285 351.052285,139.5 350.5,139.5 L341.5,139.5 C340.947715,139.5 340.5,139.052285 340.5,138.5 C340.5,137.947715 340.947715,137.5 341.5,137.5 L350.5,137.5 Z" id="6" fill="#0F1931" transform="translate(346.000000, 138.500000) rotate(-90.000000) translate(-346.000000, -138.500000) "></path>
            <path d="M204.5,137.5 C205.052285,137.5 205.5,137.947715 205.5,138.5 C205.5,139.052285 205.052285,139.5 204.5,139.5 L195.5,139.5 C194.947715,139.5 194.5,139.052285 194.5,138.5 C194.5,137.947715 194.947715,137.5 195.5,137.5 L204.5,137.5 Z" id="7" fill="#000000" transform="translate(200.000000, 138.500000) rotate(270.000000) translate(-200.000000, -138.500000) "></path>
            <path d="M0,140 C-0.55228475,140 -1,139.552285 -1,139 C-1,138.447715 -0.55228475,138 0,138 L361,138 C361.552285,138 362,138.447715 362,139 C362,139.552285 361.552285,140 361,140 L0,140 Z" id="Line" fill="#0F1931"></path>
            <path d="M124.5,137.5 C125.052285,137.5 125.5,137.947715 125.5,138.5 C125.5,139.052285 125.052285,139.5 124.5,139.5 L115.5,139.5 C114.947715,139.5 114.5,139.052285 114.5,138.5 C114.5,137.947715 114.947715,137.5 115.5,137.5 L124.5,137.5 Z" id="1-copy-9" fill="#37C3BE" transform="translate(120.000000, 138.500000) rotate(-90.000000) translate(-120.000000, -138.500000) "></path>
            <rect id="Rectangle-Copy-26" fill="#37C3BE" x="119" y="4.54747351e-13" width="2" height="134"></rect>
        </g>
    </g>
</svg>