<?xml version="1.0" encoding="UTF-8"?>
<svg width="421px" height="213px" viewBox="0 0 421 213" version="1.1" xmlns="http://www.w3.org/2000/svg" xmlns:xlink="http://www.w3.org/1999/xlink">
    <!-- Generator: Sketch 53 (72520) - https://sketchapp.com -->
    <title>outliers</title>
    <desc>Created with Sketch.</desc>
    <g id="outliers" stroke="none" stroke-width="1" fill="none" fill-rule="evenodd">
        <g id="Group" transform="translate(48.000000, 31.000000)" fill-rule="nonzero">
            <g id="Grid" transform="translate(14.000000, 0.000000)" fill="#DBE5FD">
                <rect id="Rectangle" x="0" y="0" width="2" height="134"></rect>
                <rect id="Rectangle-Copy-24" x="36" y="0" width="2" height="134"></rect>
                <rect id="Rectangle-Copy-16" x="73" y="0" width="2" height="134"></rect>
                <rect id="Rectangle-Copy-26" x="110" y="0" width="2" height="134"></rect>
                <rect id="Rectangle-Copy-30" x="183" y="0" width="2" height="134"></rect>
                <rect id="Rectangle-Copy-3" x="147" y="0" width="2" height="134"></rect>
                <rect id="Rectangle-Copy-4" x="220" y="0" width="2" height="134"></rect>
                <rect id="Rectangle-Copy-33" x="257" y="0" width="2" height="134"></rect>
                <rect id="Rectangle-Copy-36" x="294" y="0" width="2" height="134"></rect>
            </g>
            <circle id="Oval-Copy-6" fill="#4C7EF3" cx="162" cy="119" r="4"></circle>
            <circle id="Oval-Copy-7" fill="#4C7EF3" cx="146" cy="119" r="4"></circle>
            <circle id="Oval-Copy-15" fill="#4C7EF3" cx="186" cy="119" r="4"></circle>
            <circle id="Oval-Copy-17" fill="#4C7EF3" cx="198" cy="119" r="4"></circle>
            <circle id="Oval-Copy-9" fill="#4C7EF3" cx="162" cy="105" r="4"></circle>
            <circle id="Oval-Copy-10" fill="#4C7EF3" cx="146" cy="105" r="4"></circle>
            <circle id="Oval-Copy-16" fill="#4C7EF3" cx="186" cy="105" r="4"></circle>
            <circle id="Oval-Copy-12" fill="#4C7EF3" cx="162" cy="91" r="4"></circle>
            <circle id="Oval-Copy-14" fill="#4C7EF3" cx="146" cy="91" r="4"></circle>
            <circle id="Oval-Copy-13" fill="#4C7EF3" cx="162" cy="77" r="4"></circle>
            <circle id="Oval-Copy-8" fill="#4C7EF3" cx="132" cy="119" r="4"></circle>
            <circle id="Oval-Copy-11" fill="#4C7EF3" cx="51" cy="119" r="4"></circle>
            <circle id="Oval-Copy-18" fill="#4C7EF3" cx="272" cy="119" r="4"></circle>
            <path d="M7.595,153.67 L7.595,153 L10.395,153 L10.395,153.67 L7.595,153.67 Z M15.095,152.38 C15.5083354,152.500001 15.8249989,152.704999 16.045,152.995 C16.2650011,153.285001 16.375,153.649998 16.375,154.09 C16.375,154.703336 16.1666687,155.186665 15.75,155.54 C15.3333313,155.893335 14.7683369,156.07 14.055,156.07 C13.6016644,156.07 13.1650021,155.993334 12.745,155.84 C12.3249979,155.686666 11.9716681,155.473335 11.685,155.2 L11.995,154.57 C12.6350032,155.110003 13.3149964,155.38 14.035,155.38 C14.5350025,155.38 14.9149987,155.268334 15.175,155.045 C15.4350013,154.821666 15.565,154.493336 15.565,154.06 C15.565,153.199996 15.0250054,152.77 13.945,152.77 L13.135,152.77 L13.135,152.08 L13.785,152.08 C14.3050026,152.08 14.7049986,151.965001 14.985,151.735 C15.2650014,151.504999 15.405,151.173336 15.405,150.74 C15.405,150.359998 15.2916678,150.068334 15.065,149.865 C14.8383322,149.661666 14.5150021,149.56 14.095,149.56 C13.4149966,149.56 12.7483366,149.829997 12.095,150.37 L11.785,149.74 C12.0716681,149.466665 12.4216646,149.253334 12.835,149.1 C13.2483354,148.946666 13.6783311,148.87 14.125,148.87 C14.7650032,148.87 15.2733315,149.031665 15.65,149.355 C16.0266686,149.678335 16.215,150.113331 16.215,150.66 C16.215,151.066669 16.1166677,151.421665 15.92,151.725 C15.7233323,152.028335 15.4483351,152.246666 15.095,152.38 Z M20.125,156.08 C19.3183293,156.08 18.7050021,155.773336 18.285,155.16 C17.8649979,154.546664 17.655,153.653339 17.655,152.48 C17.655,151.299994 17.8649979,150.403336 18.285,149.79 C18.7050021,149.176664 19.3183293,148.87 20.125,148.87 C20.9316707,148.87 21.5449979,149.174997 21.965,149.785 C22.3850021,150.395003 22.595,151.289994 22.595,152.47 C22.595,153.650006 22.3850021,154.546664 21.965,155.16 C21.5449979,155.773336 20.9316707,156.08 20.125,156.08 Z M20.125,155.39 C20.6850028,155.39 21.098332,155.153336 21.365,154.68 C21.631668,154.206664 21.765,153.470005 21.765,152.47 C21.765,151.463328 21.6333347,150.728336 21.37,150.265 C21.1066654,149.801664 20.6916695,149.57 20.125,149.57 C19.5649972,149.57 19.151668,149.803331 18.885,150.27 C18.618332,150.736669 18.485,151.469995 18.485,152.47 C18.485,153.470005 18.618332,154.206664 18.885,154.68 C19.151668,155.153336 19.5649972,155.39 20.125,155.39 Z" id="-30" fill="#0F1931"></path>
            <path d="M43.595,153.67 L43.595,153 L46.395,153 L46.395,153.67 L43.595,153.67 Z M52.515,155.31 L52.515,156 L47.975,156 L47.975,155.38 L50.445,152.66 C50.778335,152.286665 51.0199992,151.951668 51.17,151.655 C51.3200007,151.358332 51.395,151.060001 51.395,150.76 C51.395,150.373331 51.2816678,150.076668 51.055,149.87 C50.8283322,149.663332 50.5083354,149.56 50.095,149.56 C49.4149966,149.56 48.7483366,149.829997 48.095,150.37 L47.785,149.74 C48.0650014,149.473332 48.4166646,149.261667 48.84,149.105 C49.2633354,148.948333 49.6883312,148.87 50.115,148.87 C50.7616699,148.87 51.2733315,149.036665 51.65,149.37 C52.0266685,149.703335 52.215,150.153331 52.215,150.72 C52.215,151.126669 52.1233342,151.516665 51.94,151.89 C51.7566657,152.263335 51.4550021,152.679998 51.035,153.14 L49.035,155.31 L52.515,155.31 Z M56.125,156.08 C55.3183293,156.08 54.7050021,155.773336 54.285,155.16 C53.8649979,154.546664 53.655,153.653339 53.655,152.48 C53.655,151.299994 53.8649979,150.403336 54.285,149.79 C54.7050021,149.176664 55.3183293,148.87 56.125,148.87 C56.9316707,148.87 57.5449979,149.174997 57.965,149.785 C58.3850021,150.395003 58.595,151.289994 58.595,152.47 C58.595,153.650006 58.3850021,154.546664 57.965,155.16 C57.5449979,155.773336 56.9316707,156.08 56.125,156.08 Z M56.125,155.39 C56.6850028,155.39 57.098332,155.153336 57.365,154.68 C57.631668,154.206664 57.765,153.470005 57.765,152.47 C57.765,151.463328 57.6333347,150.728336 57.37,150.265 C57.1066654,149.801664 56.6916695,149.57 56.125,149.57 C55.5649972,149.57 55.151668,149.803331 54.885,150.27 C54.618332,150.736669 54.485,151.469995 54.485,152.47 C54.485,153.470005 54.618332,154.206664 54.885,154.68 C55.151668,155.153336 55.5649972,155.39 56.125,155.39 Z" id="-20" fill="#0F1931"></path>
            <path d="M79.595,153.67 L79.595,153 L82.395,153 L82.395,153.67 L79.595,153.67 Z M86.795,155.31 L88.345,155.31 L88.345,156 L84.425,156 L84.425,155.31 L85.975,155.31 L85.975,149.97 L84.735,150.75 L84.355,150.12 L86.205,148.95 L86.795,148.95 L86.795,155.31 Z M92.125,156.08 C91.3183293,156.08 90.7050021,155.773336 90.285,155.16 C89.8649979,154.546664 89.655,153.653339 89.655,152.48 C89.655,151.299994 89.8649979,150.403336 90.285,149.79 C90.7050021,149.176664 91.3183293,148.87 92.125,148.87 C92.9316707,148.87 93.5449979,149.174997 93.965,149.785 C94.3850021,150.395003 94.595,151.289994 94.595,152.47 C94.595,153.650006 94.3850021,154.546664 93.965,155.16 C93.5449979,155.773336 92.9316707,156.08 92.125,156.08 Z M92.125,155.39 C92.6850028,155.39 93.098332,155.153336 93.365,154.68 C93.631668,154.206664 93.765,153.470005 93.765,152.47 C93.765,151.463328 93.6333346,150.728336 93.37,150.265 C93.1066654,149.801664 92.6916695,149.57 92.125,149.57 C91.5649972,149.57 91.151668,149.803331 90.885,150.27 C90.618332,150.736669 90.485,151.469995 90.485,152.47 C90.485,153.470005 90.618332,154.206664 90.885,154.68 C91.151668,155.153336 91.5649972,155.39 92.125,155.39 Z" id="-10" fill="#0F1931"></path>
            <path d="M197.39,155.31 L197.39,156 L192.85,156 L192.85,155.38 L195.32,152.66 C195.653335,152.286665 195.894999,151.951668 196.045,151.655 C196.195001,151.358332 196.27,151.060001 196.27,150.76 C196.27,150.373331 196.156668,150.076668 195.93,149.87 C195.703332,149.663332 195.383335,149.56 194.97,149.56 C194.289997,149.56 193.623337,149.829997 192.97,150.37 L192.66,149.74 C192.940001,149.473332 193.291665,149.261667 193.715,149.105 C194.138335,148.948333 194.563331,148.87 194.99,148.87 C195.63667,148.87 196.148331,149.036665 196.525,149.37 C196.901669,149.703335 197.09,150.153331 197.09,150.72 C197.09,151.126669 196.998334,151.516665 196.815,151.89 C196.631666,152.263335 196.330002,152.679998 195.91,153.14 L193.91,155.31 L197.39,155.31 Z M201,156.08 C200.193329,156.08 199.580002,155.773336 199.16,155.16 C198.739998,154.546664 198.53,153.653339 198.53,152.48 C198.53,151.299994 198.739998,150.403336 199.16,149.79 C199.580002,149.176664 200.193329,148.87 201,148.87 C201.806671,148.87 202.419998,149.174997 202.84,149.785 C203.260002,150.395003 203.47,151.289994 203.47,152.47 C203.47,153.650006 203.260002,154.546664 202.84,155.16 C202.419998,155.773336 201.806671,156.08 201,156.08 Z M201,155.39 C201.560003,155.39 201.973332,155.153336 202.24,154.68 C202.506668,154.206664 202.64,153.470005 202.64,152.47 C202.64,151.463328 202.508335,150.728336 202.245,150.265 C201.981665,149.801664 201.566669,149.57 201,149.57 C200.439997,149.57 200.026668,149.803331 199.76,150.27 C199.493332,150.736669 199.36,151.469995 199.36,152.47 C199.36,153.470005 199.493332,154.206664 199.76,154.68 C200.026668,155.153336 200.439997,155.39 201,155.39 Z" id="20" fill="#0F1931"></path>
            <path d="M232.97,152.38 C233.383335,152.500001 233.699999,152.704999 233.92,152.995 C234.140001,153.285001 234.25,153.649998 234.25,154.09 C234.25,154.703336 234.041669,155.186665 233.625,155.54 C233.208331,155.893335 232.643337,156.07 231.93,156.07 C231.476664,156.07 231.040002,155.993334 230.62,155.84 C230.199998,155.686666 229.846668,155.473335 229.56,155.2 L229.87,154.57 C230.510003,155.110003 231.189996,155.38 231.91,155.38 C232.410002,155.38 232.789999,155.268334 233.05,155.045 C233.310001,154.821666 233.44,154.493336 233.44,154.06 C233.44,153.199996 232.900005,152.77 231.82,152.77 L231.01,152.77 L231.01,152.08 L231.66,152.08 C232.180003,152.08 232.579999,151.965001 232.86,151.735 C233.140001,151.504999 233.28,151.173336 233.28,150.74 C233.28,150.359998 233.166668,150.068334 232.94,149.865 C232.713332,149.661666 232.390002,149.56 231.97,149.56 C231.289997,149.56 230.623337,149.829997 229.97,150.37 L229.66,149.74 C229.946668,149.466665 230.296665,149.253334 230.71,149.1 C231.123335,148.946666 231.553331,148.87 232,148.87 C232.640003,148.87 233.148331,149.031665 233.525,149.355 C233.901669,149.678335 234.09,150.113331 234.09,150.66 C234.09,151.066669 233.991668,151.421665 233.795,151.725 C233.598332,152.028335 233.323335,152.246666 232.97,152.38 Z M238,156.08 C237.193329,156.08 236.580002,155.773336 236.16,155.16 C235.739998,154.546664 235.53,153.653339 235.53,152.48 C235.53,151.299994 235.739998,150.403336 236.16,149.79 C236.580002,149.176664 237.193329,148.87 238,148.87 C238.806671,148.87 239.419998,149.174997 239.84,149.785 C240.260002,150.395003 240.47,151.289994 240.47,152.47 C240.47,153.650006 240.260002,154.546664 239.84,155.16 C239.419998,155.773336 238.806671,156.08 238,156.08 Z M238,155.39 C238.560003,155.39 238.973332,155.153336 239.24,154.68 C239.506668,154.206664 239.64,153.470005 239.64,152.47 C239.64,151.463328 239.508335,150.728336 239.245,150.265 C238.981665,149.801664 238.566669,149.57 238,149.57 C237.439997,149.57 237.026668,149.803331 236.76,150.27 C236.493332,150.736669 236.36,151.469995 236.36,152.47 C236.36,153.470005 236.493332,154.206664 236.76,154.68 C237.026668,155.153336 237.439997,155.39 238,155.39 Z" id="30" fill="#0F1931"></path>
            <path d="M271.64,153.79 L271.64,154.47 L270.58,154.47 L270.58,156 L269.77,156 L269.77,154.47 L266.51,154.47 L266.51,153.85 L269.91,148.95 L270.58,148.95 L270.58,153.79 L271.64,153.79 Z M267.36,153.79 L269.77,153.79 L269.77,150.32 L267.36,153.79 Z M275,156.08 C274.193329,156.08 273.580002,155.773336 273.16,155.16 C272.739998,154.546664 272.53,153.653339 272.53,152.48 C272.53,151.299994 272.739998,150.403336 273.16,149.79 C273.580002,149.176664 274.193329,148.87 275,148.87 C275.806671,148.87 276.419998,149.174997 276.84,149.785 C277.260002,150.395003 277.47,151.289994 277.47,152.47 C277.47,153.650006 277.260002,154.546664 276.84,155.16 C276.419998,155.773336 275.806671,156.08 275,156.08 Z M275,155.39 C275.560003,155.39 275.973332,155.153336 276.24,154.68 C276.506668,154.206664 276.64,153.470005 276.64,152.47 C276.64,151.463328 276.508335,150.728336 276.245,150.265 C275.981665,149.801664 275.566669,149.57 275,149.57 C274.439997,149.57 274.026668,149.803331 273.76,150.27 C273.493332,150.736669 273.36,151.469995 273.36,152.47 C273.36,153.470005 273.493332,154.206664 273.76,154.68 C274.026668,155.153336 274.439997,155.39 275,155.39 Z" id="40" fill="#0F1931"></path>
            <path d="M306.3,151.58 C306.746669,151.58 307.134998,151.673332 307.465,151.86 C307.795002,152.046668 308.049999,152.308332 308.23,152.645 C308.410001,152.981668 308.5,153.369998 308.5,153.81 C308.5,154.256669 308.401668,154.649998 308.205,154.99 C308.008332,155.330002 307.730002,155.594999 307.37,155.785 C307.009998,155.975001 306.590002,156.07 306.11,156.07 C305.683331,156.07 305.261669,155.991667 304.845,155.835 C304.428331,155.678333 304.076668,155.466668 303.79,155.2 L304.1,154.57 C304.753337,155.110003 305.42333,155.38 306.11,155.38 C306.603336,155.38 306.989999,155.240001 307.27,154.96 C307.550001,154.679999 307.69,154.300002 307.69,153.82 C307.69,153.353331 307.551668,152.976668 307.275,152.69 C306.998332,152.403332 306.630002,152.26 306.17,152.26 C305.496663,152.26 304.960002,152.533331 304.56,153.08 L303.99,153.08 L303.99,148.95 L308.22,148.95 L308.22,149.63 L304.8,149.63 L304.8,152.14 C304.986668,151.959999 305.208332,151.821667 305.465,151.725 C305.721668,151.628333 305.999999,151.58 306.3,151.58 Z M312,156.08 C311.193329,156.08 310.580002,155.773336 310.16,155.16 C309.739998,154.546664 309.53,153.653339 309.53,152.48 C309.53,151.299994 309.739998,150.403336 310.16,149.79 C310.580002,149.176664 311.193329,148.87 312,148.87 C312.806671,148.87 313.419998,149.174997 313.84,149.785 C314.260002,150.395003 314.47,151.289994 314.47,152.47 C314.47,153.650006 314.260002,154.546664 313.84,155.16 C313.419998,155.773336 312.806671,156.08 312,156.08 Z M312,155.39 C312.560003,155.39 312.973332,155.153336 313.24,154.68 C313.506668,154.206664 313.64,153.470005 313.64,152.47 C313.64,151.463328 313.508335,150.728336 313.245,150.265 C312.981665,149.801664 312.566669,149.57 312,149.57 C311.439997,149.57 311.026668,149.803331 310.76,150.27 C310.493332,150.736669 310.36,151.469995 310.36,152.47 C310.36,153.470005 310.493332,154.206664 310.76,154.68 C311.026668,155.153336 311.439997,155.39 312,155.39 Z" id="50" fill="#0F1931"></path>
            <path d="M125,156.08 C124.193329,156.08 123.580002,155.773336 123.16,155.16 C122.739998,154.546664 122.53,153.653339 122.53,152.48 C122.53,151.299994 122.739998,150.403336 123.16,149.79 C123.580002,149.176664 124.193329,148.87 125,148.87 C125.806671,148.87 126.419998,149.174997 126.84,149.785 C127.260002,150.395003 127.47,151.289994 127.47,152.47 C127.47,153.650006 127.260002,154.546664 126.84,155.16 C126.419998,155.773336 125.806671,156.08 125,156.08 Z M125,155.39 C125.560003,155.39 125.973332,155.153336 126.24,154.68 C126.506668,154.206664 126.64,153.470005 126.64,152.47 C126.64,151.463328 126.508335,150.728336 126.245,150.265 C125.981665,149.801664 125.56667,149.57 125,149.57 C124.439997,149.57 124.026668,149.803331 123.76,150.27 C123.493332,150.736669 123.36,151.469995 123.36,152.47 C123.36,153.470005 123.493332,154.206664 123.76,154.68 C124.026668,155.153336 124.439997,155.39 125,155.39 Z" id="0" fill="#0F1931"></path>
            <path d="M159.67,155.31 L161.22,155.31 L161.22,156 L157.3,156 L157.3,155.31 L158.85,155.31 L158.85,149.97 L157.61,150.75 L157.23,150.12 L159.08,148.95 L159.67,148.95 L159.67,155.31 Z M165,156.08 C164.193329,156.08 163.580002,155.773336 163.16,155.16 C162.739998,154.546664 162.53,153.653339 162.53,152.48 C162.53,151.299994 162.739998,150.403336 163.16,149.79 C163.580002,149.176664 164.193329,148.87 165,148.87 C165.806671,148.87 166.419998,149.174997 166.84,149.785 C167.260002,150.395003 167.47,151.289994 167.47,152.47 C167.47,153.650006 167.260002,154.546664 166.84,155.16 C166.419998,155.773336 165.806671,156.08 165,156.08 Z M165,155.39 C165.560003,155.39 165.973332,155.153336 166.24,154.68 C166.506668,154.206664 166.64,153.470005 166.64,152.47 C166.64,151.463328 166.508335,150.728336 166.245,150.265 C165.981665,149.801664 165.566669,149.57 165,149.57 C164.439997,149.57 164.026668,149.803331 163.76,150.27 C163.493332,150.736669 163.36,151.469995 163.36,152.47 C163.36,153.470005 163.493332,154.206664 163.76,154.68 C164.026668,155.153336 164.439997,155.39 165,155.39 Z" id="10" fill="#0F1931"></path>
            <path d="M19.5,137.5 C20.0522847,137.5 20.5,137.947715 20.5,138.5 C20.5,139.052285 20.0522847,139.5 19.5,139.5 L10.5,139.5 C9.94771525,139.5 9.5,139.052285 9.5,138.5 C9.5,137.947715 9.94771525,137.5 10.5,137.5 L19.5,137.5 Z" id="1" fill="#0F1931" transform="translate(15.000000, 138.500000) rotate(-90.000000) translate(-15.000000, -138.500000) "></path>
            <path d="M55.5,137.5 C56.0522847,137.5 56.5,137.947715 56.5,138.5 C56.5,139.052285 56.0522847,139.5 55.5,139.5 L46.5,139.5 C45.9477153,139.5 45.5,139.052285 45.5,138.5 C45.5,137.947715 45.9477153,137.5 46.5,137.5 L55.5,137.5 Z" id="1-copy-6" fill="#0F1931" transform="translate(51.000000, 138.500000) rotate(-90.000000) translate(-51.000000, -138.500000) "></path>
            <path d="M92.5,137.5 C93.0522847,137.5 93.5,137.947715 93.5,138.5 C93.5,139.052285 93.0522847,139.5 92.5,139.5 L83.5,139.5 C82.9477153,139.5 82.5,139.052285 82.5,138.5 C82.5,137.947715 82.9477153,137.5 83.5,137.5 L92.5,137.5 Z" id="1-copy-7" fill="#0F1931" transform="translate(88.000000, 138.500000) rotate(-90.000000) translate(-88.000000, -138.500000) "></path>
            <path d="M129.5,137.5 C130.052285,137.5 130.5,137.947715 130.5,138.5 C130.5,139.052285 130.052285,139.5 129.5,139.5 L120.5,139.5 C119.947715,139.5 119.5,139.052285 119.5,138.5 C119.5,137.947715 119.947715,137.5 120.5,137.5 L129.5,137.5 Z" id="1-copy-9" fill="#0F1931" transform="translate(125.000000, 138.500000) rotate(-90.000000) translate(-125.000000, -138.500000) "></path>
            <path d="M166.5,137.5 C167.052285,137.5 167.5,137.947715 167.5,138.5 C167.5,139.052285 167.052285,139.5 166.5,139.5 L157.5,139.5 C156.947715,139.5 156.5,139.052285 156.5,138.5 C156.5,137.947715 156.947715,137.5 157.5,137.5 L166.5,137.5 Z" id="3" fill="#0F1931" transform="translate(162.000000, 138.500000) rotate(-90.000000) translate(-162.000000, -138.500000) "></path>
            <path d="M202.5,137.5 C203.052285,137.5 203.5,137.947715 203.5,138.5 C203.5,139.052285 203.052285,139.5 202.5,139.5 L193.5,139.5 C192.947715,139.5 192.5,139.052285 192.5,138.5 C192.5,137.947715 192.947715,137.5 193.5,137.5 L202.5,137.5 Z" id="5-copy-2" fill="#0F1931" transform="translate(198.000000, 138.500000) rotate(-90.000000) translate(-198.000000, -138.500000) "></path>
            <path d="M239.5,137.5 C240.052285,137.5 240.5,137.947715 240.5,138.5 C240.5,139.052285 240.052285,139.5 239.5,139.5 L230.5,139.5 C229.947715,139.5 229.5,139.052285 229.5,138.5 C229.5,137.947715 229.947715,137.5 230.5,137.5 L239.5,137.5 Z" id="5-copy-3" fill="#0F1931" transform="translate(235.000000, 138.500000) rotate(-90.000000) translate(-235.000000, -138.500000) "></path>
            <path d="M276.5,137.5 C277.052285,137.5 277.5,137.947715 277.5,138.5 C277.5,139.052285 277.052285,139.5 276.5,139.5 L267.5,139.5 C266.947715,139.5 266.5,139.052285 266.5,138.5 C266.5,137.947715 266.947715,137.5 267.5,137.5 L276.5,137.5 Z" id="5-copy-7" fill="#0F1931" transform="translate(272.000000, 138.500000) rotate(-90.000000) translate(-272.000000, -138.500000) "></path>
            <path d="M313.5,137.5 C314.052285,137.5 314.5,137.947715 314.5,138.5 C314.5,139.052285 314.052285,139.5 313.5,139.5 L304.5,139.5 C303.947715,139.5 303.5,139.052285 303.5,138.5 C303.5,137.947715 303.947715,137.5 304.5,137.5 L313.5,137.5 Z" id="5-copy-10" fill="#0F1931" transform="translate(309.000000, 138.500000) rotate(-90.000000) translate(-309.000000, -138.500000) "></path>
            <path d="M0,140 C-0.55228475,140 -1,139.552285 -1,139 C-1,138.447715 -0.55228475,138 0,138 L325,138 C325.552285,138 326,138.447715 326,139 C326,139.552285 325.552285,140 325,140 L0,140 Z" id="Line" fill="#0F1931"></path>
        </g>
    </g>
</svg>