<?xml version="1.0" encoding="UTF-8"?>
<svg width="421px" height="251px" viewBox="0 0 421 251" version="1.1" xmlns="http://www.w3.org/2000/svg" xmlns:xlink="http://www.w3.org/1999/xlink">
    <!-- Generator: Sketch 53.2 (72643) - https://sketchapp.com -->
    <title>box plot v2</title>
    <desc>Created with Sketch.</desc>
    <g id="box-plot-v2" stroke="none" stroke-width="1" fill="none" fill-rule="evenodd">
        <path d="M40.095,202.67 L40.095,202 L42.895,202 L42.895,202.67 L40.095,202.67 Z M49.265,202.79 L49.265,203.47 L48.205,203.47 L48.205,205 L47.395,205 L47.395,203.47 L44.135,203.47 L44.135,202.85 L47.535,197.95 L48.205,197.95 L48.205,202.79 L49.265,202.79 Z M44.985,202.79 L47.395,202.79 L47.395,199.32 L44.985,202.79 Z" id="-4" fill="#0F1931" fill-rule="nonzero"></path>
        <path d="M55.095,202.67 L55.095,202 L57.895,202 L57.895,202.67 L55.095,202.67 Z M62.595,201.38 C63.0083354,201.500001 63.3249989,201.704999 63.545,201.995 C63.7650011,202.285001 63.875,202.649998 63.875,203.09 C63.875,203.703336 63.6666687,204.186665 63.25,204.54 C62.8333313,204.893335 62.2683369,205.07 61.555,205.07 C61.1016644,205.07 60.6650021,204.993334 60.245,204.84 C59.8249979,204.686666 59.4716681,204.473335 59.185,204.2 L59.495,203.57 C60.1350032,204.110003 60.8149964,204.38 61.535,204.38 C62.0350025,204.38 62.4149987,204.268334 62.675,204.045 C62.9350013,203.821666 63.065,203.493336 63.065,203.06 C63.065,202.199996 62.5250054,201.77 61.445,201.77 L60.635,201.77 L60.635,201.08 L61.285,201.08 C61.8050026,201.08 62.2049986,200.965001 62.485,200.735 C62.7650014,200.504999 62.905,200.173336 62.905,199.74 C62.905,199.359998 62.7916678,199.068334 62.565,198.865 C62.3383322,198.661666 62.0150021,198.56 61.595,198.56 C60.9149966,198.56 60.2483366,198.829997 59.595,199.37 L59.285,198.74 C59.5716681,198.466665 59.9216646,198.253334 60.335,198.1 C60.7483354,197.946666 61.1783311,197.87 61.625,197.87 C62.2650032,197.87 62.7733315,198.031665 63.15,198.355 C63.5266685,198.678335 63.715,199.113331 63.715,199.66 C63.715,200.066669 63.6166676,200.421665 63.42,200.725 C63.2233323,201.028335 62.9483351,201.246666 62.595,201.38 Z" id="-3" fill="#0F1931" fill-rule="nonzero"></path>
        <path d="M71.095,202.67 L71.095,202 L73.895,202 L73.895,202.67 L71.095,202.67 Z M80.015,204.31 L80.015,205 L75.475,205 L75.475,204.38 L77.945,201.66 C78.278335,201.286665 78.5199992,200.951668 78.67,200.655 C78.8200008,200.358332 78.895,200.060001 78.895,199.76 C78.895,199.373331 78.7816678,199.076668 78.555,198.87 C78.3283322,198.663332 78.0083354,198.56 77.595,198.56 C76.9149966,198.56 76.2483366,198.829997 75.595,199.37 L75.285,198.74 C75.5650014,198.473332 75.9166646,198.261667 76.34,198.105 C76.7633354,197.948333 77.1883312,197.87 77.615,197.87 C78.2616699,197.87 78.7733315,198.036665 79.15,198.37 C79.5266685,198.703335 79.715,199.153331 79.715,199.72 C79.715,200.126669 79.6233342,200.516665 79.44,200.89 C79.2566657,201.263335 78.9550021,201.679998 78.535,202.14 L76.535,204.31 L80.015,204.31 Z" id="-2" fill="#0F1931" fill-rule="nonzero"></path>
        <path d="M87.095,202.67 L87.095,202 L89.895,202 L89.895,202.67 L87.095,202.67 Z M94.295,204.31 L95.845,204.31 L95.845,205 L91.925,205 L91.925,204.31 L93.475,204.31 L93.475,198.97 L92.235,199.75 L91.855,199.12 L93.705,197.95 L94.295,197.95 L94.295,204.31 Z" id="-1" fill="#0F1931" fill-rule="nonzero"></path>
        <path d="M107.5,205.08 C106.693329,205.08 106.080002,204.773336 105.66,204.16 C105.239998,203.546664 105.03,202.653339 105.03,201.48 C105.03,200.299994 105.239998,199.403336 105.66,198.79 C106.080002,198.176664 106.693329,197.87 107.5,197.87 C108.306671,197.87 108.919998,198.174997 109.34,198.785 C109.760002,199.395003 109.97,200.289994 109.97,201.47 C109.97,202.650006 109.760002,203.546664 109.34,204.16 C108.919998,204.773336 108.306671,205.08 107.5,205.08 Z M107.5,204.39 C108.060003,204.39 108.473332,204.153336 108.74,203.68 C109.006668,203.206664 109.14,202.470005 109.14,201.47 C109.14,200.463328 109.008335,199.728336 108.745,199.265 C108.481665,198.801664 108.06667,198.57 107.5,198.57 C106.939997,198.57 106.526668,198.803331 106.26,199.27 C105.993332,199.736669 105.86,200.469995 105.86,201.47 C105.86,202.470005 105.993332,203.206664 106.26,203.68 C106.526668,204.153336 106.939997,204.39 107.5,204.39 Z" id="0" fill="#0F1931" fill-rule="nonzero"></path>
        <polygon id="1" fill="#0F1931" fill-rule="nonzero" points="124.17 204.31 125.72 204.31 125.72 205 121.8 205 121.8 204.31 123.35 204.31 123.35 198.97 122.11 199.75 121.73 199.12 123.58 197.95 124.17 197.95"></polygon>
        <path d="M140.89,204.31 L140.89,205 L136.35,205 L136.35,204.38 L138.82,201.66 C139.153335,201.286665 139.394999,200.951668 139.545,200.655 C139.695001,200.358332 139.77,200.060001 139.77,199.76 C139.77,199.373331 139.656668,199.076668 139.43,198.87 C139.203332,198.663332 138.883335,198.56 138.47,198.56 C137.789997,198.56 137.123337,198.829997 136.47,199.37 L136.16,198.74 C136.440001,198.473332 136.791665,198.261667 137.215,198.105 C137.638335,197.948333 138.063331,197.87 138.49,197.87 C139.13667,197.87 139.648331,198.036665 140.025,198.37 C140.401669,198.703335 140.59,199.153331 140.59,199.72 C140.59,200.126669 140.498334,200.516665 140.315,200.89 C140.131666,201.263335 139.830002,201.679998 139.41,202.14 L137.41,204.31 L140.89,204.31 Z" id="2" fill="#0F1931" fill-rule="nonzero"></path>
        <path d="M156.47,201.38 C156.883335,201.500001 157.199999,201.704999 157.42,201.995 C157.640001,202.285001 157.75,202.649998 157.75,203.09 C157.75,203.703336 157.541669,204.186665 157.125,204.54 C156.708331,204.893335 156.143337,205.07 155.43,205.07 C154.976664,205.07 154.540002,204.993334 154.12,204.84 C153.699998,204.686666 153.346668,204.473335 153.06,204.2 L153.37,203.57 C154.010003,204.110003 154.689996,204.38 155.41,204.38 C155.910002,204.38 156.289999,204.268334 156.55,204.045 C156.810001,203.821666 156.94,203.493336 156.94,203.06 C156.94,202.199996 156.400005,201.77 155.32,201.77 L154.51,201.77 L154.51,201.08 L155.16,201.08 C155.680003,201.08 156.079999,200.965001 156.36,200.735 C156.640001,200.504999 156.78,200.173336 156.78,199.74 C156.78,199.359998 156.666668,199.068334 156.44,198.865 C156.213332,198.661666 155.890002,198.56 155.47,198.56 C154.789997,198.56 154.123337,198.829997 153.47,199.37 L153.16,198.74 C153.446668,198.466665 153.796665,198.253334 154.21,198.1 C154.623335,197.946666 155.053331,197.87 155.5,197.87 C156.140003,197.87 156.648331,198.031665 157.025,198.355 C157.401669,198.678335 157.59,199.113331 157.59,199.66 C157.59,200.066669 157.491668,200.421665 157.295,200.725 C157.098332,201.028335 156.823335,201.246666 156.47,201.38 Z" id="3" fill="#0F1931" fill-rule="nonzero"></path>
        <path d="M174.14,202.79 L174.14,203.47 L173.08,203.47 L173.08,205 L172.27,205 L172.27,203.47 L169.01,203.47 L169.01,202.85 L172.41,197.95 L173.08,197.95 L173.08,202.79 L174.14,202.79 Z M169.86,202.79 L172.27,202.79 L172.27,199.32 L169.86,202.79 Z" id="4" fill="#0F1931" fill-rule="nonzero"></path>
        <path d="M185.8,200.58 C186.246669,200.58 186.634998,200.673332 186.965,200.86 C187.295002,201.046668 187.549999,201.308332 187.73,201.645 C187.910001,201.981668 188,202.369998 188,202.81 C188,203.256669 187.901668,203.649998 187.705,203.99 C187.508332,204.330002 187.230002,204.594999 186.87,204.785 C186.509998,204.975001 186.090002,205.07 185.61,205.07 C185.183331,205.07 184.761669,204.991667 184.345,204.835 C183.928331,204.678333 183.576668,204.466668 183.29,204.2 L183.6,203.57 C184.253337,204.110003 184.92333,204.38 185.61,204.38 C186.103336,204.38 186.489999,204.240001 186.77,203.96 C187.050001,203.679999 187.19,203.300002 187.19,202.82 C187.19,202.353331 187.051668,201.976668 186.775,201.69 C186.498332,201.403332 186.130002,201.26 185.67,201.26 C184.996663,201.26 184.460002,201.533331 184.06,202.08 L183.49,202.08 L183.49,197.95 L187.72,197.95 L187.72,198.63 L184.3,198.63 L184.3,201.14 C184.486668,200.959999 184.708332,200.821667 184.965,200.725 C185.221668,200.628333 185.499999,200.58 185.8,200.58 Z" id="5" fill="#0F1931" fill-rule="nonzero"></path>
        <path d="M201.805,200.57 C202.231669,200.57 202.611665,200.663332 202.945,200.85 C203.278335,201.036668 203.538332,201.299998 203.725,201.64 C203.911668,201.980002 204.005,202.369998 204.005,202.81 C204.005,203.243336 203.908334,203.633332 203.715,203.98 C203.521666,204.326668 203.251668,204.596666 202.905,204.79 C202.558332,204.983334 202.168336,205.08 201.735,205.08 C200.881662,205.08 200.223336,204.783336 199.76,204.19 C199.296664,203.596664 199.065,202.750005 199.065,201.65 C199.065,200.856663 199.173332,200.17667 199.39,199.61 C199.606668,199.04333 199.918331,198.611668 200.325,198.315 C200.731669,198.018332 201.218331,197.87 201.785,197.87 C202.191669,197.87 202.588331,197.944999 202.975,198.095 C203.361669,198.245001 203.701665,198.459999 203.995,198.74 L203.685,199.37 C203.351665,199.089999 203.033335,198.885001 202.73,198.755 C202.426665,198.624999 202.118335,198.56 201.805,198.56 C201.19833,198.56 200.726668,198.828331 200.39,199.365 C200.053332,199.901669 199.885,200.659995 199.885,201.64 L199.885,201.79 C200.038334,201.416665 200.284998,201.120001 200.625,200.9 C200.965002,200.679999 201.358331,200.57 201.805,200.57 Z M201.695,204.39 C202.148336,204.39 202.511665,204.246668 202.785,203.96 C203.058335,203.673332 203.195,203.293336 203.195,202.82 C203.195,202.353331 203.056668,201.976668 202.78,201.69 C202.503332,201.403332 202.138336,201.26 201.685,201.26 C201.224998,201.26 200.850001,201.404999 200.56,201.695 C200.269999,201.985001 200.125,202.359998 200.125,202.82 C200.125,203.286669 200.269999,203.664999 200.56,203.955 C200.850001,204.245001 201.228331,204.39 201.695,204.39 Z" id="6" fill="#0F1931" fill-rule="nonzero"></path>
        <polygon id="7" fill="#0F1931" fill-rule="nonzero" points="215.17 197.95 219.83 197.95 219.83 198.56 216.53 205 215.64 205 218.93 198.64 215.17 198.64"></polygon>
        <path d="M234.72,201.38 C235.133335,201.506667 235.454999,201.723332 235.685,202.03 C235.915001,202.336668 236.03,202.703331 236.03,203.13 C236.03,203.73667 235.810002,204.211665 235.37,204.555 C234.929998,204.898335 234.306671,205.07 233.5,205.07 C232.693329,205.07 232.070002,204.898335 231.63,204.555 C231.189998,204.211665 230.97,203.73667 230.97,203.13 C230.97,202.696664 231.086666,202.326668 231.32,202.02 C231.553335,201.713332 231.876665,201.500001 232.29,201.38 C231.936665,201.246666 231.656668,201.036668 231.45,200.75 C231.243332,200.463332 231.14,200.126669 231.14,199.74 C231.14,199.166664 231.348331,198.711668 231.765,198.375 C232.181669,198.038332 232.759996,197.87 233.5,197.87 C234.240004,197.87 234.818331,198.038332 235.235,198.375 C235.651669,198.711668 235.86,199.166664 235.86,199.74 C235.86,200.126669 235.756668,200.464999 235.55,200.755 C235.343332,201.045001 235.066668,201.253333 234.72,201.38 Z M231.95,199.8 C231.95,200.213335 232.081665,200.529999 232.345,200.75 C232.608335,200.970001 232.993331,201.08 233.5,201.08 C234.006669,201.08 234.391665,200.970001 234.655,200.75 C234.918335,200.529999 235.05,200.213335 235.05,199.8 C235.05,199.406665 234.918335,199.100001 234.655,198.88 C234.391665,198.659999 234.006669,198.55 233.5,198.55 C232.993331,198.55 232.608335,198.659999 232.345,198.88 C232.081665,199.100001 231.95,199.406665 231.95,199.8 Z M233.5,204.39 C234.646672,204.39 235.22,203.953338 235.22,203.08 C235.22,202.206662 234.646672,201.77 233.5,201.77 C232.353328,201.77 231.78,202.206662 231.78,203.08 C231.78,203.953338 232.353328,204.39 233.5,204.39 Z" id="8" fill="#0F1931" fill-rule="nonzero"></path>
        <path d="M249.28,197.87 C250.133338,197.87 250.791664,198.166664 251.255,198.76 C251.718336,199.353336 251.95,200.199995 251.95,201.3 C251.95,202.493339 251.710002,203.421663 251.23,204.085 C250.749998,204.748337 250.080004,205.08 249.22,205.08 C248.819998,205.08 248.426669,205.005001 248.04,204.855 C247.653331,204.704999 247.313335,204.490001 247.02,204.21 L247.33,203.58 C247.663335,203.860001 247.981665,204.064999 248.285,204.195 C248.588335,204.325001 248.896665,204.39 249.21,204.39 C249.81667,204.39 250.286665,204.121669 250.62,203.585 C250.953335,203.048331 251.12,202.290005 251.12,201.31 L251.12,201.18 C250.966666,201.553335 250.718335,201.846666 250.375,202.06 C250.031665,202.273334 249.643336,202.38 249.21,202.38 C248.783331,202.38 248.403335,202.286668 248.07,202.1 C247.736665,201.913332 247.476668,201.650002 247.29,201.31 C247.103332,200.969998 247.01,200.580002 247.01,200.14 C247.01,199.706664 247.106666,199.316668 247.3,198.97 C247.493334,198.623332 247.763332,198.353334 248.11,198.16 C248.456668,197.966666 248.846665,197.87 249.28,197.87 Z M249.33,201.69 C249.790002,201.69 250.164999,201.545001 250.455,201.255 C250.745001,200.964999 250.89,200.590002 250.89,200.13 C250.89,199.663331 250.745001,199.285001 250.455,198.995 C250.164999,198.704999 249.786669,198.56 249.32,198.56 C248.866664,198.56 248.503335,198.703332 248.23,198.99 C247.956665,199.276668 247.82,199.656664 247.82,200.13 C247.82,200.603336 247.958332,200.981665 248.235,201.265 C248.511668,201.548335 248.876664,201.69 249.33,201.69 Z" id="9" fill="#0F1931" fill-rule="nonzero"></path>
        <path d="M262.67,204.31 L264.22,204.31 L264.22,205 L260.3,205 L260.3,204.31 L261.85,204.31 L261.85,198.97 L260.61,199.75 L260.23,199.12 L262.08,197.95 L262.67,197.95 L262.67,204.31 Z M268,205.08 C267.193329,205.08 266.580002,204.773336 266.16,204.16 C265.739998,203.546664 265.53,202.653339 265.53,201.48 C265.53,200.299994 265.739998,199.403336 266.16,198.79 C266.580002,198.176664 267.193329,197.87 268,197.87 C268.806671,197.87 269.419998,198.174997 269.84,198.785 C270.260002,199.395003 270.47,200.289994 270.47,201.47 C270.47,202.650006 270.260002,203.546664 269.84,204.16 C269.419998,204.773336 268.806671,205.08 268,205.08 Z M268,204.39 C268.560003,204.39 268.973332,204.153336 269.24,203.68 C269.506668,203.206664 269.64,202.470005 269.64,201.47 C269.64,200.463328 269.508335,199.728336 269.245,199.265 C268.981665,198.801664 268.566669,198.57 268,198.57 C267.439997,198.57 267.026668,198.803331 266.76,199.27 C266.493332,199.736669 266.36,200.469995 266.36,201.47 C266.36,202.470005 266.493332,203.206664 266.76,203.68 C267.026668,204.153336 267.439997,204.39 268,204.39 Z" id="10" fill="#0F1931" fill-rule="nonzero"></path>
        <path d="M278.67,204.31 L280.22,204.31 L280.22,205 L276.3,205 L276.3,204.31 L277.85,204.31 L277.85,198.97 L276.61,199.75 L276.23,199.12 L278.08,197.95 L278.67,197.95 L278.67,204.31 Z M284.67,204.31 L286.22,204.31 L286.22,205 L282.3,205 L282.3,204.31 L283.85,204.31 L283.85,198.97 L282.61,199.75 L282.23,199.12 L284.08,197.95 L284.67,197.95 L284.67,204.31 Z" id="11" fill="#0F1931" fill-rule="nonzero"></path>
        <path d="M294.67,204.31 L296.22,204.31 L296.22,205 L292.3,205 L292.3,204.31 L293.85,204.31 L293.85,198.97 L292.61,199.75 L292.23,199.12 L294.08,197.95 L294.67,197.95 L294.67,204.31 Z M302.39,204.31 L302.39,205 L297.85,205 L297.85,204.38 L300.32,201.66 C300.653335,201.286665 300.894999,200.951668 301.045,200.655 C301.195001,200.358332 301.27,200.060001 301.27,199.76 C301.27,199.373331 301.156668,199.076668 300.93,198.87 C300.703332,198.663332 300.383335,198.56 299.97,198.56 C299.289997,198.56 298.623337,198.829997 297.97,199.37 L297.66,198.74 C297.940001,198.473332 298.291665,198.261667 298.715,198.105 C299.138335,197.948333 299.563331,197.87 299.99,197.87 C300.63667,197.87 301.148331,198.036665 301.525,198.37 C301.901669,198.703335 302.09,199.153331 302.09,199.72 C302.09,200.126669 301.998334,200.516665 301.815,200.89 C301.631666,201.263335 301.330002,201.679998 300.91,202.14 L298.91,204.31 L302.39,204.31 Z" id="12" fill="#0F1931" fill-rule="nonzero"></path>
        <path d="M309.67,204.31 L311.22,204.31 L311.22,205 L307.3,205 L307.3,204.31 L308.85,204.31 L308.85,198.97 L307.61,199.75 L307.23,199.12 L309.08,197.95 L309.67,197.95 L309.67,204.31 Z M315.97,201.38 C316.383335,201.500001 316.699999,201.704999 316.92,201.995 C317.140001,202.285001 317.25,202.649998 317.25,203.09 C317.25,203.703336 317.041669,204.186665 316.625,204.54 C316.208331,204.893335 315.643337,205.07 314.93,205.07 C314.476664,205.07 314.040002,204.993334 313.62,204.84 C313.199998,204.686666 312.846668,204.473335 312.56,204.2 L312.87,203.57 C313.510003,204.110003 314.189996,204.38 314.91,204.38 C315.410003,204.38 315.789999,204.268334 316.05,204.045 C316.310001,203.821666 316.44,203.493336 316.44,203.06 C316.44,202.199996 315.900005,201.77 314.82,201.77 L314.01,201.77 L314.01,201.08 L314.66,201.08 C315.180003,201.08 315.579999,200.965001 315.86,200.735 C316.140001,200.504999 316.28,200.173336 316.28,199.74 C316.28,199.359998 316.166668,199.068334 315.94,198.865 C315.713332,198.661666 315.390002,198.56 314.97,198.56 C314.289997,198.56 313.623337,198.829997 312.97,199.37 L312.66,198.74 C312.946668,198.466665 313.296665,198.253334 313.71,198.1 C314.123335,197.946666 314.553331,197.87 315,197.87 C315.640003,197.87 316.148331,198.031665 316.525,198.355 C316.901669,198.678335 317.09,199.113331 317.09,199.66 C317.09,200.066669 316.991668,200.421665 316.795,200.725 C316.598332,201.028335 316.323335,201.246666 315.97,201.38 Z" id="13" fill="#0F1931" fill-rule="nonzero"></path>
        <path d="M325.67,204.31 L327.22,204.31 L327.22,205 L323.3,205 L323.3,204.31 L324.85,204.31 L324.85,198.97 L323.61,199.75 L323.23,199.12 L325.08,197.95 L325.67,197.95 L325.67,204.31 Z M333.64,202.79 L333.64,203.47 L332.58,203.47 L332.58,205 L331.77,205 L331.77,203.47 L328.51,203.47 L328.51,202.85 L331.91,197.95 L332.58,197.95 L332.58,202.79 L333.64,202.79 Z M329.36,202.79 L331.77,202.79 L331.77,199.32 L329.36,202.79 Z" id="14" fill="#0F1931" fill-rule="nonzero"></path>
        <path d="M341.67,204.31 L343.22,204.31 L343.22,205 L339.3,205 L339.3,204.31 L340.85,204.31 L340.85,198.97 L339.61,199.75 L339.23,199.12 L341.08,197.95 L341.67,197.95 L341.67,204.31 Z M347.3,200.58 C347.746669,200.58 348.134998,200.673332 348.465,200.86 C348.795002,201.046668 349.049999,201.308332 349.23,201.645 C349.410001,201.981668 349.5,202.369998 349.5,202.81 C349.5,203.256669 349.401668,203.649998 349.205,203.99 C349.008332,204.330002 348.730002,204.594999 348.37,204.785 C348.009998,204.975001 347.590002,205.07 347.11,205.07 C346.683331,205.07 346.261669,204.991667 345.845,204.835 C345.428331,204.678333 345.076668,204.466668 344.79,204.2 L345.1,203.57 C345.753337,204.110003 346.42333,204.38 347.11,204.38 C347.603336,204.38 347.989999,204.240001 348.27,203.96 C348.550001,203.679999 348.69,203.300002 348.69,202.82 C348.69,202.353331 348.551668,201.976668 348.275,201.69 C347.998332,201.403332 347.630002,201.26 347.17,201.26 C346.496663,201.26 345.960002,201.533331 345.56,202.08 L344.99,202.08 L344.99,197.95 L349.22,197.95 L349.22,198.63 L345.8,198.63 L345.8,201.14 C345.986668,200.959999 346.208332,200.821667 346.465,200.725 C346.721668,200.628333 346.999999,200.58 347.3,200.58 Z" id="15" fill="#0F1931" fill-rule="nonzero"></path>
        <path d="M357.675,204.31 L359.225,204.31 L359.225,205 L355.305,205 L355.305,204.31 L356.855,204.31 L356.855,198.97 L355.615,199.75 L355.235,199.12 L357.085,197.95 L357.675,197.95 L357.675,204.31 Z M363.305,200.57 C363.731669,200.57 364.111665,200.663332 364.445,200.85 C364.778335,201.036668 365.038332,201.299998 365.225,201.64 C365.411668,201.980002 365.505,202.369998 365.505,202.81 C365.505,203.243336 365.408334,203.633332 365.215,203.98 C365.021666,204.326668 364.751668,204.596666 364.405,204.79 C364.058332,204.983334 363.668336,205.08 363.235,205.08 C362.381662,205.08 361.723336,204.783336 361.26,204.19 C360.796664,203.596664 360.565,202.750005 360.565,201.65 C360.565,200.856663 360.673332,200.17667 360.89,199.61 C361.106668,199.04333 361.418331,198.611668 361.825,198.315 C362.231669,198.018332 362.71833,197.87 363.285,197.87 C363.691669,197.87 364.088331,197.944999 364.475,198.095 C364.861669,198.245001 365.201665,198.459999 365.495,198.74 L365.185,199.37 C364.851665,199.089999 364.533335,198.885001 364.23,198.755 C363.926665,198.624999 363.618335,198.56 363.305,198.56 C362.69833,198.56 362.226668,198.828331 361.89,199.365 C361.553332,199.901669 361.385,200.659995 361.385,201.64 L361.385,201.79 C361.538334,201.416665 361.784998,201.120001 362.125,200.9 C362.465002,200.679999 362.858331,200.57 363.305,200.57 Z M363.195,204.39 C363.648336,204.39 364.011665,204.246668 364.285,203.96 C364.558335,203.673332 364.695,203.293336 364.695,202.82 C364.695,202.353331 364.556668,201.976668 364.28,201.69 C364.003332,201.403332 363.638336,201.26 363.185,201.26 C362.724998,201.26 362.350001,201.404999 362.06,201.695 C361.769999,201.985001 361.625,202.359998 361.625,202.82 C361.625,203.286669 361.769999,203.664999 362.06,203.955 C362.350001,204.245001 362.728331,204.39 363.195,204.39 Z" id="16" fill="#0F1931" fill-rule="nonzero"></path>
        <path d="M373.67,204.31 L375.22,204.31 L375.22,205 L371.3,205 L371.3,204.31 L372.85,204.31 L372.85,198.97 L371.61,199.75 L371.23,199.12 L373.08,197.95 L373.67,197.95 L373.67,204.31 Z M376.67,197.95 L381.33,197.95 L381.33,198.56 L378.03,205 L377.14,205 L380.43,198.64 L376.67,198.64 L376.67,197.95 Z" id="17" fill="#0F1931" fill-rule="nonzero"></path>
        <path d="M49.5,186.5 C50.0522847,186.5 50.5,186.947715 50.5,187.5 C50.5,188.052285 50.0522847,188.5 49.5,188.5 L40.5,188.5 C39.9477153,188.5 39.5,188.052285 39.5,187.5 C39.5,186.947715 39.9477153,186.5 40.5,186.5 L49.5,186.5 Z" id="1" fill="#0F1931" fill-rule="nonzero" transform="translate(45.000000, 187.500000) rotate(-90.000000) translate(-45.000000, -187.500000) "></path>
        <path d="M64.5,186.5 C65.0522847,186.5 65.5,186.947715 65.5,187.5 C65.5,188.052285 65.0522847,188.5 64.5,188.5 L55.5,188.5 C54.9477153,188.5 54.5,188.052285 54.5,187.5 C54.5,186.947715 54.9477153,186.5 55.5,186.5 L64.5,186.5 Z" id="1-copy-3" fill="#0F1931" fill-rule="nonzero" transform="translate(60.000000, 187.500000) rotate(-90.000000) translate(-60.000000, -187.500000) "></path>
        <path d="M80.5,186.5 C81.0522847,186.5 81.5,186.947715 81.5,187.5 C81.5,188.052285 81.0522847,188.5 80.5,188.5 L71.5,188.5 C70.9477153,188.5 70.5,188.052285 70.5,187.5 C70.5,186.947715 70.9477153,186.5 71.5,186.5 L80.5,186.5 Z" id="1-copy-4" fill="#0F1931" fill-rule="nonzero" transform="translate(76.000000, 187.500000) rotate(-90.000000) translate(-76.000000, -187.500000) "></path>
        <path d="M96.5,186.5 C97.0522847,186.5 97.5,186.947715 97.5,187.5 C97.5,188.052285 97.0522847,188.5 96.5,188.5 L87.5,188.5 C86.9477153,188.5 86.5,188.052285 86.5,187.5 C86.5,186.947715 86.9477153,186.5 87.5,186.5 L96.5,186.5 Z" id="1-copy-5" fill="#0F1931" fill-rule="nonzero" transform="translate(92.000000, 187.500000) rotate(-90.000000) translate(-92.000000, -187.500000) "></path>
        <path d="M112.5,186.5 C113.052285,186.5 113.5,186.947715 113.5,187.5 C113.5,188.052285 113.052285,188.5 112.5,188.5 L103.5,188.5 C102.947715,188.5 102.5,188.052285 102.5,187.5 C102.5,186.947715 102.947715,186.5 103.5,186.5 L112.5,186.5 Z" id="1-copy-6" fill="#0F1931" fill-rule="nonzero" transform="translate(108.000000, 187.500000) rotate(-90.000000) translate(-108.000000, -187.500000) "></path>
        <path d="M143.5,186.5 C144.052285,186.5 144.5,186.947715 144.5,187.5 C144.5,188.052285 144.052285,188.5 143.5,188.5 L134.5,188.5 C133.947715,188.5 133.5,188.052285 133.5,187.5 C133.5,186.947715 133.947715,186.5 134.5,186.5 L143.5,186.5 Z" id="1-copy-8" fill="#0F1931" fill-rule="nonzero" transform="translate(139.000000, 187.500000) rotate(-90.000000) translate(-139.000000, -187.500000) "></path>
        <path d="M159.5,186.5 C160.052285,186.5 160.5,186.947715 160.5,187.5 C160.5,188.052285 160.052285,188.5 159.5,188.5 L150.5,188.5 C149.947715,188.5 149.5,188.052285 149.5,187.5 C149.5,186.947715 149.947715,186.5 150.5,186.5 L159.5,186.5 Z" id="1-copy" fill="#0F1931" fill-rule="nonzero" transform="translate(155.000000, 187.500000) rotate(-90.000000) translate(-155.000000, -187.500000) "></path>
        <path d="M190.5,186.5 C191.052285,186.5 191.5,186.947715 191.5,187.5 C191.5,188.052285 191.052285,188.5 190.5,188.5 L181.5,188.5 C180.947715,188.5 180.5,188.052285 180.5,187.5 C180.5,186.947715 180.947715,186.5 181.5,186.5 L190.5,186.5 Z" id="1-copy-10" fill="#0F1931" fill-rule="nonzero" transform="translate(186.000000, 187.500000) rotate(-90.000000) translate(-186.000000, -187.500000) "></path>
        <path d="M206.5,186.5 C207.052285,186.5 207.5,186.947715 207.5,187.5 C207.5,188.052285 207.052285,188.5 206.5,188.5 L197.5,188.5 C196.947715,188.5 196.5,188.052285 196.5,187.5 C196.5,186.947715 196.947715,186.5 197.5,186.5 L206.5,186.5 Z" id="1-copy-2" fill="#0F1931" fill-rule="nonzero" transform="translate(202.000000, 187.500000) rotate(-90.000000) translate(-202.000000, -187.500000) "></path>
        <path d="M222.5,186.5 C223.052285,186.5 223.5,186.947715 223.5,187.5 C223.5,188.052285 223.052285,188.5 222.5,188.5 L213.5,188.5 C212.947715,188.5 212.5,188.052285 212.5,187.5 C212.5,186.947715 212.947715,186.5 213.5,186.5 L222.5,186.5 Z" id="3" fill="#0F1931" fill-rule="nonzero" transform="translate(218.000000, 187.500000) rotate(-90.000000) translate(-218.000000, -187.500000) "></path>
        <path d="M238.5,186.5 C239.052285,186.5 239.5,186.947715 239.5,187.5 C239.5,188.052285 239.052285,188.5 238.5,188.5 L229.5,188.5 C228.947715,188.5 228.5,188.052285 228.5,187.5 C228.5,186.947715 228.947715,186.5 229.5,186.5 L238.5,186.5 Z" id="3-copy" fill="#0F1931" fill-rule="nonzero" transform="translate(234.000000, 187.500000) rotate(-90.000000) translate(-234.000000, -187.500000) "></path>
        <path d="M253.5,186.5 C254.052285,186.5 254.5,186.947715 254.5,187.5 C254.5,188.052285 254.052285,188.5 253.5,188.5 L244.5,188.5 C243.947715,188.5 243.5,188.052285 243.5,187.5 C243.5,186.947715 243.947715,186.5 244.5,186.5 L253.5,186.5 Z" id="3-copy-2" fill="#0F1931" fill-rule="nonzero" transform="translate(249.000000, 187.500000) rotate(-90.000000) translate(-249.000000, -187.500000) "></path>
        <path d="M285.5,186.5 C286.052285,186.5 286.5,186.947715 286.5,187.5 C286.5,188.052285 286.052285,188.5 285.5,188.5 L276.5,188.5 C275.947715,188.5 275.5,188.052285 275.5,187.5 C275.5,186.947715 275.947715,186.5 276.5,186.5 L285.5,186.5 Z" id="5" fill="#0F1931" fill-rule="nonzero" transform="translate(281.000000, 187.500000) rotate(-90.000000) translate(-281.000000, -187.500000) "></path>
        <path d="M301.5,186.5 C302.052285,186.5 302.5,186.947715 302.5,187.5 C302.5,188.052285 302.052285,188.5 301.5,188.5 L292.5,188.5 C291.947715,188.5 291.5,188.052285 291.5,187.5 C291.5,186.947715 291.947715,186.5 292.5,186.5 L301.5,186.5 Z" id="5-copy-2" fill="#0F1931" fill-rule="nonzero" transform="translate(297.000000, 187.500000) rotate(-90.000000) translate(-297.000000, -187.500000) "></path>
        <path d="M332.5,186.5 C333.052285,186.5 333.5,186.947715 333.5,187.5 C333.5,188.052285 333.052285,188.5 332.5,188.5 L323.5,188.5 C322.947715,188.5 322.5,188.052285 322.5,187.5 C322.5,186.947715 322.947715,186.5 323.5,186.5 L332.5,186.5 Z" id="5-copy-4" fill="#0F1931" fill-rule="nonzero" transform="translate(328.000000, 187.500000) rotate(-90.000000) translate(-328.000000, -187.500000) "></path>
        <path d="M348.5,186.5 C349.052285,186.5 349.5,186.947715 349.5,187.5 C349.5,188.052285 349.052285,188.5 348.5,188.5 L339.5,188.5 C338.947715,188.5 338.5,188.052285 338.5,187.5 C338.5,186.947715 338.947715,186.5 339.5,186.5 L348.5,186.5 Z" id="5-copy-5" fill="#0F1931" fill-rule="nonzero" transform="translate(344.000000, 187.500000) rotate(-90.000000) translate(-344.000000, -187.500000) "></path>
        <path d="M364.5,186.5 C365.052285,186.5 365.5,186.947715 365.5,187.5 C365.5,188.052285 365.052285,188.5 364.5,188.5 L355.5,188.5 C354.947715,188.5 354.5,188.052285 354.5,187.5 C354.5,186.947715 354.947715,186.5 355.5,186.5 L364.5,186.5 Z" id="5-copy-6" fill="#0F1931" fill-rule="nonzero" transform="translate(360.000000, 187.500000) rotate(-90.000000) translate(-360.000000, -187.500000) "></path>
        <path d="M380.5,186.5 C381.052285,186.5 381.5,186.947715 381.5,187.5 C381.5,188.052285 381.052285,188.5 380.5,188.5 L371.5,188.5 C370.947715,188.5 370.5,188.052285 370.5,187.5 C370.5,186.947715 370.947715,186.5 371.5,186.5 L380.5,186.5 Z" id="6" fill="#0F1931" fill-rule="nonzero" transform="translate(376.000000, 187.500000) rotate(-90.000000) translate(-376.000000, -187.500000) "></path>
        <path d="M269.5,186.5 C270.052285,186.5 270.5,186.947715 270.5,187.5 C270.5,188.052285 270.052285,188.5 269.5,188.5 L260.5,188.5 C259.947715,188.5 259.5,188.052285 259.5,187.5 C259.5,186.947715 259.947715,186.5 260.5,186.5 L269.5,186.5 Z" id="7" fill="#000000" fill-rule="nonzero" transform="translate(265.000000, 187.500000) rotate(270.000000) translate(-265.000000, -187.500000) "></path>
        <path d="M30,189 C29.4477153,189 29,188.552285 29,188 C29,187.447715 29.4477153,187 30,187 L391,187 C391.552285,187 392,187.447715 392,188 C392,188.552285 391.552285,189 391,189 L30,189 Z" id="Line" fill="#0F1931" fill-rule="nonzero"></path>
        <path d="M85.85,150.96 L87.38,150.96 L87.38,152 L83.03,152 L83.03,150.96 L84.56,150.96 L84.56,146.42 L83.35,147.15 L82.84,146.21 L84.93,144.95 L85.85,144.95 L85.85,150.96 Z M93.3,151.77 C93.4600008,151.816667 93.5999994,151.891666 93.72,151.995 C93.8400006,152.098334 93.9566661,152.243332 94.07,152.43 L94.79,153.6 L93.71,154.12 L92.74,152.55 C92.5533324,152.243332 92.2366689,152.09 91.79,152.09 C91.1033299,152.09 90.5083359,151.943335 90.005,151.65 C89.5016642,151.356665 89.1133347,150.936669 88.84,150.39 C88.5666653,149.843331 88.43,149.203337 88.43,148.47 C88.43,147.736663 88.5666653,147.098336 88.84,146.555 C89.1133347,146.011664 89.5016642,145.593335 90.005,145.3 C90.5083359,145.006665 91.1033299,144.86 91.79,144.86 C92.4700034,144.86 93.0616641,145.006665 93.565,145.3 C94.0683359,145.593335 94.4566653,146.011664 94.73,146.555 C95.0033347,147.098336 95.14,147.736663 95.14,148.47 C95.14,149.270004 94.9816683,149.954997 94.665,150.525 C94.3483317,151.095003 93.8933363,151.509999 93.3,151.77 Z M91.79,151.06 C92.4366699,151.06 92.9416649,150.836669 93.305,150.39 C93.6683352,149.943331 93.85,149.303337 93.85,148.47 C93.85,147.636662 93.6683352,146.998336 93.305,146.555 C92.9416649,146.111664 92.4366699,145.89 91.79,145.89 C91.1366634,145.89 90.6283351,146.111664 90.265,146.555 C89.9016649,146.998336 89.72,147.636662 89.72,148.47 C89.72,149.303337 89.9016649,149.943331 90.265,150.39 C90.6283351,150.836669 91.1366634,151.06 91.79,151.06 Z M102.35,152 L100.95,152 L99.74,149.75 C99.6266661,149.536666 99.4866675,149.386667 99.32,149.3 C99.1533325,149.213333 98.9433346,149.17 98.69,149.17 L97.71,149.17 L97.71,152 L96.44,152 L96.44,144.95 L99.56,144.95 C100.360004,144.95 100.968331,145.128332 101.385,145.485 C101.801669,145.841668 102.01,146.356663 102.01,147.03 C102.01,147.570003 101.858335,148.014998 101.555,148.365 C101.251665,148.715002 100.823336,148.943333 100.27,149.05 C100.643335,149.150001 100.943332,149.413331 101.17,149.84 L102.35,152 Z M99.38,148.18 C99.8666691,148.18 100.223332,148.088334 100.45,147.905 C100.676668,147.721666 100.79,147.440002 100.79,147.06 C100.79,146.673331 100.676668,146.391668 100.45,146.215 C100.223332,146.038332 99.8666691,145.95 99.38,145.95 L97.7,145.95 L97.7,148.18 L99.38,148.18 Z M106.84,146.29 L106.84,147.17 L105.53,147.1 L106.25,148.2 L105.49,148.64 L104.89,147.46 L104.29,148.63 L103.54,148.2 L104.26,147.09 L102.94,147.16 L102.94,146.29 L104.26,146.36 L103.54,145.25 L104.29,144.81 L104.89,145.99 L105.49,144.81 L106.25,145.26 L105.53,146.36 L106.84,146.29 Z M111.11,150.96 L112.64,150.96 L112.64,152 L108.29,152 L108.29,150.96 L109.82,150.96 L109.82,146.42 L108.61,147.15 L108.1,146.21 L110.19,144.95 L111.11,144.95 L111.11,150.96 Z M113.69,150.62 L115.09,150.62 L115.09,152 L113.69,152 L113.69,150.62 Z M119.01,147.49 C119.450002,147.49 119.838332,147.584999 120.175,147.775 C120.511668,147.965001 120.771666,148.229998 120.955,148.57 C121.138334,148.910002 121.23,149.299998 121.23,149.74 C121.23,150.206669 121.123334,150.616665 120.91,150.97 C120.696666,151.323335 120.395002,151.596666 120.005,151.79 C119.614998,151.983334 119.156669,152.08 118.63,152.08 C118.189998,152.08 117.755002,152.005001 117.325,151.855 C116.894998,151.704999 116.540001,151.506668 116.26,151.26 L116.69,150.32 C117.330003,150.806669 117.98333,151.05 118.65,151.05 C119.090002,151.05 119.426665,150.940001 119.66,150.72 C119.893335,150.499999 120.01,150.186669 120.01,149.78 C120.01,149.386665 119.891668,149.075001 119.655,148.845 C119.418332,148.614999 119.096669,148.5 118.69,148.5 C118.416665,148.5 118.158335,148.551666 117.915,148.655 C117.671665,148.758334 117.453334,148.906666 117.26,149.1 L116.49,149.1 L116.49,144.95 L120.91,144.95 L120.91,145.95 L117.75,145.95 L117.75,147.85 C118.090002,147.609999 118.509997,147.49 119.01,147.49 Z M127.07,147.7 L127.07,148.58 L122.19,148.58 L122.19,147.7 L127.07,147.7 Z M127.07,149.7 L127.07,150.58 L122.19,150.58 L122.19,149.7 L127.07,149.7 Z M128.18,144.95 L133.09,144.95 L133.09,145.91 L129.89,152 L128.52,152 L131.71,145.99 L128.18,145.99 L128.18,144.95 Z M134.17,150.62 L135.57,150.62 L135.57,152 L134.17,152 L134.17,150.62 Z M139.49,147.49 C139.930002,147.49 140.318332,147.584999 140.655,147.775 C140.991668,147.965001 141.251666,148.229998 141.435,148.57 C141.618334,148.910002 141.71,149.299998 141.71,149.74 C141.71,150.206669 141.603334,150.616665 141.39,150.97 C141.176666,151.323335 140.875002,151.596666 140.485,151.79 C140.094998,151.983334 139.636669,152.08 139.11,152.08 C138.669998,152.08 138.235002,152.005001 137.805,151.855 C137.374998,151.704999 137.020001,151.506668 136.74,151.26 L137.17,150.32 C137.810003,150.806669 138.46333,151.05 139.13,151.05 C139.570002,151.05 139.906666,150.940001 140.14,150.72 C140.373334,150.499999 140.49,150.186669 140.49,149.78 C140.49,149.386665 140.371668,149.075001 140.135,148.845 C139.898332,148.614999 139.576669,148.5 139.17,148.5 C138.896665,148.5 138.638335,148.551666 138.395,148.655 C138.151665,148.758334 137.933334,148.906666 137.74,149.1 L136.97,149.1 L136.97,144.95 L141.39,144.95 L141.39,145.95 L138.23,145.95 L138.23,147.85 C138.570002,147.609999 138.989998,147.49 139.49,147.49 Z" id="1QR*1.5=7.5" fill="#4C7EF3" fill-rule="nonzero"></path>
        <path d="M286.85,150.96 L288.38,150.96 L288.38,152 L284.03,152 L284.03,150.96 L285.56,150.96 L285.56,146.42 L284.35,147.15 L283.84,146.21 L285.93,144.95 L286.85,144.95 L286.85,150.96 Z M294.3,151.77 C294.460001,151.816667 294.599999,151.891666 294.72,151.995 C294.840001,152.098334 294.956666,152.243332 295.07,152.43 L295.79,153.6 L294.71,154.12 L293.74,152.55 C293.553332,152.243332 293.236669,152.09 292.79,152.09 C292.10333,152.09 291.508336,151.943335 291.005,151.65 C290.501664,151.356665 290.113335,150.936669 289.84,150.39 C289.566665,149.843331 289.43,149.203337 289.43,148.47 C289.43,147.736663 289.566665,147.098336 289.84,146.555 C290.113335,146.011664 290.501664,145.593335 291.005,145.3 C291.508336,145.006665 292.10333,144.86 292.79,144.86 C293.470003,144.86 294.061664,145.006665 294.565,145.3 C295.068336,145.593335 295.456665,146.011664 295.73,146.555 C296.003335,147.098336 296.14,147.736663 296.14,148.47 C296.14,149.270004 295.981668,149.954997 295.665,150.525 C295.348332,151.095003 294.893336,151.509999 294.3,151.77 Z M292.79,151.06 C293.43667,151.06 293.941665,150.836669 294.305,150.39 C294.668335,149.943331 294.85,149.303337 294.85,148.47 C294.85,147.636662 294.668335,146.998336 294.305,146.555 C293.941665,146.111664 293.43667,145.89 292.79,145.89 C292.136663,145.89 291.628335,146.111664 291.265,146.555 C290.901665,146.998336 290.72,147.636662 290.72,148.47 C290.72,149.303337 290.901665,149.943331 291.265,150.39 C291.628335,150.836669 292.136663,151.06 292.79,151.06 Z M303.35,152 L301.95,152 L300.74,149.75 C300.626666,149.536666 300.486667,149.386667 300.32,149.3 C300.153332,149.213333 299.943335,149.17 299.69,149.17 L298.71,149.17 L298.71,152 L297.44,152 L297.44,144.95 L300.56,144.95 C301.360004,144.95 301.968331,145.128332 302.385,145.485 C302.801669,145.841668 303.01,146.356663 303.01,147.03 C303.01,147.570003 302.858335,148.014998 302.555,148.365 C302.251665,148.715002 301.823336,148.943333 301.27,149.05 C301.643335,149.150001 301.943332,149.413331 302.17,149.84 L303.35,152 Z M300.38,148.18 C300.866669,148.18 301.223332,148.088334 301.45,147.905 C301.676668,147.721666 301.79,147.440002 301.79,147.06 C301.79,146.673331 301.676668,146.391668 301.45,146.215 C301.223332,146.038332 300.866669,145.95 300.38,145.95 L298.7,145.95 L298.7,148.18 L300.38,148.18 Z M307.84,146.29 L307.84,147.17 L306.53,147.1 L307.25,148.2 L306.49,148.64 L305.89,147.46 L305.29,148.63 L304.54,148.2 L305.26,147.09 L303.94,147.16 L303.94,146.29 L305.26,146.36 L304.54,145.25 L305.29,144.81 L305.89,145.99 L306.49,144.81 L307.25,145.26 L306.53,146.36 L307.84,146.29 Z M312.11,150.96 L313.64,150.96 L313.64,152 L309.29,152 L309.29,150.96 L310.82,150.96 L310.82,146.42 L309.61,147.15 L309.1,146.21 L311.19,144.95 L312.11,144.95 L312.11,150.96 Z M314.69,150.62 L316.09,150.62 L316.09,152 L314.69,152 L314.69,150.62 Z M320.01,147.49 C320.450002,147.49 320.838332,147.584999 321.175,147.775 C321.511668,147.965001 321.771666,148.229998 321.955,148.57 C322.138334,148.910002 322.23,149.299998 322.23,149.74 C322.23,150.206669 322.123334,150.616665 321.91,150.97 C321.696666,151.323335 321.395002,151.596666 321.005,151.79 C320.614998,151.983334 320.156669,152.08 319.63,152.08 C319.189998,152.08 318.755002,152.005001 318.325,151.855 C317.894998,151.704999 317.540001,151.506668 317.26,151.26 L317.69,150.32 C318.330003,150.806669 318.98333,151.05 319.65,151.05 C320.090002,151.05 320.426665,150.940001 320.66,150.72 C320.893334,150.499999 321.01,150.186669 321.01,149.78 C321.01,149.386665 320.891668,149.075001 320.655,148.845 C320.418332,148.614999 320.096669,148.5 319.69,148.5 C319.416665,148.5 319.158335,148.551666 318.915,148.655 C318.671665,148.758334 318.453334,148.906666 318.26,149.1 L317.49,149.1 L317.49,144.95 L321.91,144.95 L321.91,145.95 L318.75,145.95 L318.75,147.85 C319.090002,147.609999 319.509997,147.49 320.01,147.49 Z M328.07,147.7 L328.07,148.58 L323.19,148.58 L323.19,147.7 L328.07,147.7 Z M328.07,149.7 L328.07,150.58 L323.19,150.58 L323.19,149.7 L328.07,149.7 Z M329.18,144.95 L334.09,144.95 L334.09,145.91 L330.89,152 L329.52,152 L332.71,145.99 L329.18,145.99 L329.18,144.95 Z M335.17,150.62 L336.57,150.62 L336.57,152 L335.17,152 L335.17,150.62 Z M340.49,147.49 C340.930002,147.49 341.318332,147.584999 341.655,147.775 C341.991668,147.965001 342.251666,148.229998 342.435,148.57 C342.618334,148.910002 342.71,149.299998 342.71,149.74 C342.71,150.206669 342.603334,150.616665 342.39,150.97 C342.176666,151.323335 341.875002,151.596666 341.485,151.79 C341.094998,151.983334 340.636669,152.08 340.11,152.08 C339.669998,152.08 339.235002,152.005001 338.805,151.855 C338.374998,151.704999 338.020001,151.506668 337.74,151.26 L338.17,150.32 C338.810003,150.806669 339.46333,151.05 340.13,151.05 C340.570002,151.05 340.906665,150.940001 341.14,150.72 C341.373334,150.499999 341.49,150.186669 341.49,149.78 C341.49,149.386665 341.371668,149.075001 341.135,148.845 C340.898332,148.614999 340.576669,148.5 340.17,148.5 C339.896665,148.5 339.638335,148.551666 339.395,148.655 C339.151665,148.758334 338.933334,148.906666 338.74,149.1 L337.97,149.1 L337.97,144.95 L342.39,144.95 L342.39,145.95 L339.23,145.95 L339.23,147.85 C339.570002,147.609999 339.989997,147.49 340.49,147.49 Z" id="1QR*1.5=7.5" fill="#4C7EF3" fill-rule="nonzero"></path>
        <path d="M194.88,48.96 L196.41,48.96 L196.41,50 L192.06,50 L192.06,48.96 L193.59,48.96 L193.59,44.42 L192.38,45.15 L191.87,44.21 L193.96,42.95 L194.88,42.95 L194.88,48.96 Z M202.33,49.77 C202.490001,49.8166669 202.629999,49.8916661 202.75,49.995 C202.870001,50.0983339 202.986666,50.2433324 203.1,50.43 L203.82,51.6 L202.74,52.12 L201.77,50.55 C201.583332,50.2433318 201.266669,50.09 200.82,50.09 C200.13333,50.09 199.538336,49.9433348 199.035,49.65 C198.531664,49.3566652 198.143335,48.9366694 197.87,48.39 C197.596665,47.8433306 197.46,47.203337 197.46,46.47 C197.46,45.736663 197.596665,45.0983361 197.87,44.555 C198.143335,44.0116639 198.531664,43.5933348 199.035,43.3 C199.538336,43.0066652 200.13333,42.86 200.82,42.86 C201.500003,42.86 202.091664,43.0066652 202.595,43.3 C203.098336,43.5933348 203.486665,44.0116639 203.76,44.555 C204.033335,45.0983361 204.17,45.736663 204.17,46.47 C204.17,47.270004 204.011668,47.9549971 203.695,48.525 C203.378332,49.0950029 202.923336,49.5099987 202.33,49.77 Z M200.82,49.06 C201.46667,49.06 201.971665,48.8366689 202.335,48.39 C202.698335,47.9433311 202.88,47.3033375 202.88,46.47 C202.88,45.6366625 202.698335,44.9983356 202.335,44.555 C201.971665,44.1116644 201.46667,43.89 200.82,43.89 C200.166663,43.89 199.658335,44.1116644 199.295,44.555 C198.931665,44.9983356 198.75,45.6366625 198.75,46.47 C198.75,47.3033375 198.931665,47.9433311 199.295,48.39 C199.658335,48.8366689 200.166663,49.06 200.82,49.06 Z M211.38,50 L209.98,50 L208.77,47.75 C208.656666,47.5366656 208.516668,47.3866671 208.35,47.3 C208.183333,47.2133329 207.973335,47.17 207.72,47.17 L206.74,47.17 L206.74,50 L205.47,50 L205.47,42.95 L208.59,42.95 C209.390004,42.95 209.998331,43.1283315 210.415,43.485 C210.831669,43.8416685 211.04,44.3566633 211.04,45.03 C211.04,45.5700027 210.888335,46.0149982 210.585,46.365 C210.281665,46.7150017 209.853336,46.9433328 209.3,47.05 C209.673335,47.1500005 209.973332,47.4133312 210.2,47.84 L211.38,50 Z M208.41,46.18 C208.896669,46.18 209.253332,46.0883343 209.48,45.905 C209.706668,45.7216657 209.82,45.4400019 209.82,45.06 C209.82,44.6733314 209.706668,44.3916676 209.48,44.215 C209.253332,44.0383324 208.896669,43.95 208.41,43.95 L206.73,43.95 L206.73,46.18 L208.41,46.18 Z M219.81,45.7 L219.81,46.58 L214.93,46.58 L214.93,45.7 L219.81,45.7 Z M219.81,47.7 L219.81,48.58 L214.93,48.58 L214.93,47.7 L219.81,47.7 Z M226.46,45.49 C226.900002,45.49 227.288332,45.5849991 227.625,45.775 C227.961668,45.965001 228.221666,46.2299983 228.405,46.57 C228.588334,46.9100017 228.68,47.2999978 228.68,47.74 C228.68,48.206669 228.573334,48.6166649 228.36,48.97 C228.146666,49.3233351 227.845002,49.5966657 227.455,49.79 C227.064998,49.9833343 226.606669,50.08 226.08,50.08 C225.639998,50.08 225.205002,50.0050008 224.775,49.855 C224.344998,49.7049993 223.990001,49.5066679 223.71,49.26 L224.14,48.32 C224.780003,48.8066691 225.43333,49.05 226.1,49.05 C226.540002,49.05 226.876666,48.9400011 227.11,48.72 C227.343335,48.4999989 227.46,48.1866687 227.46,47.78 C227.46,47.3866647 227.341668,47.0750011 227.105,46.845 C226.868332,46.6149988 226.546669,46.5 226.14,46.5 C225.866665,46.5 225.608335,46.5516662 225.365,46.655 C225.121665,46.7583338 224.903334,46.9066657 224.71,47.1 L223.94,47.1 L223.94,42.95 L228.36,42.95 L228.36,43.95 L225.2,43.95 L225.2,45.85 C225.540002,45.6099988 225.959998,45.49 226.46,45.49 Z" id="1QR=5" fill="#4C7EF3" fill-rule="nonzero"></path>
        <path d="M36.305,60 L36.305,52.95 L40.925,52.95 L40.925,53.98 L37.575,53.98 L37.575,55.9 L40.725,55.9 L40.725,56.93 L37.575,56.93 L37.575,60 L36.305,60 Z M41.855,60 L41.855,55.11 L43.105,55.11 L43.105,60 L41.855,60 Z M41.785,52.84 L43.165,52.84 L43.165,54.07 L41.785,54.07 L41.785,52.84 Z M47.615,56.03 L46.885,56.1 C46.0583292,56.1866671 45.645,56.6066629 45.645,57.36 L45.645,60 L44.395,60 L44.395,55.11 L45.585,55.11 L45.585,55.97 C45.8383346,55.3833304 46.3616627,55.0633336 47.155,55.01 L47.535,54.98 L47.615,56.03 Z M50.025,60.08 C49.5916645,60.08 49.1933351,60.0266672 48.83,59.92 C48.4666649,59.8133328 48.1583346,59.660001 47.905,59.46 L48.255,58.59 C48.7750026,58.9700019 49.3716633,59.16 50.045,59.16 C50.3316681,59.16 50.5499992,59.1133338 50.7,59.02 C50.8500007,58.9266662 50.925,58.7933342 50.925,58.62 C50.925,58.4733326 50.8733338,58.3600004 50.77,58.28 C50.6666661,58.1999996 50.481668,58.126667 50.215,58.06 L49.415,57.88 C48.9616644,57.7799995 48.6250011,57.6166678 48.405,57.39 C48.1849989,57.1633322 48.075,56.8700018 48.075,56.51 C48.075,56.2099985 48.1599991,55.9450011 48.33,55.715 C48.5000008,55.4849988 48.7366651,55.3066673 49.04,55.18 C49.3433348,55.0533327 49.694998,54.99 50.095,54.99 C50.4416684,54.99 50.776665,55.0433328 51.1,55.15 C51.4233349,55.2566672 51.7083321,55.4066657 51.955,55.6 L51.605,56.45 C51.0983308,56.0833315 50.5916692,55.9 50.085,55.9 C49.8116653,55.9 49.5983341,55.9499995 49.445,56.05 C49.2916659,56.1500005 49.215,56.2899991 49.215,56.47 C49.215,56.603334 49.2633328,56.7133329 49.36,56.8 C49.4566671,56.8866671 49.6116656,56.9533331 49.825,57 L50.655,57.19 C51.1416691,57.2966672 51.4983322,57.4649989 51.725,57.695 C51.9516678,57.9250011 52.065,58.2266648 52.065,58.6 C52.065,59.0533356 51.8816685,59.413332 51.515,59.68 C51.1483315,59.946668 50.6516698,60.08 50.025,60.08 Z M55.575,59.14 C55.7216674,59.14 55.8749992,59.1300001 56.035,59.11 L55.975,60.04 C55.774999,60.0600001 55.5916675,60.07 55.425,60.07 C54.7383299,60.07 54.2316683,59.9116682 53.905,59.595 C53.5783317,59.2783317 53.415,58.8066698 53.415,58.18 L53.415,56.05 L52.475,56.05 L52.475,55.11 L53.415,55.11 L53.415,53.65 L54.665,53.65 L54.665,55.11 L55.955,55.11 L55.955,56.05 L54.665,56.05 L54.665,58.16 C54.665,58.8133366 54.9683303,59.14 55.575,59.14 Z M62.285,54.99 C62.7050021,54.99 63.0799983,55.0966656 63.41,55.31 C63.7400016,55.5233344 63.9966657,55.824998 64.18,56.215 C64.3633342,56.605002 64.455,57.0533308 64.455,57.56 C64.455,58.0666692 64.3633342,58.5099981 64.18,58.89 C63.9966657,59.2700019 63.7416683,59.5633323 63.415,59.77 C63.0883317,59.9766677 62.7116688,60.08 62.285,60.08 C61.9383316,60.08 61.6283347,60.0066674 61.355,59.86 C61.0816653,59.7133326 60.8716674,59.5100013 60.725,59.25 L60.725,61.8 L59.475,61.8 L59.475,55.11 L60.705,55.11 L60.705,55.85 C60.8516674,55.5766653 61.0633319,55.3650008 61.34,55.215 C61.6166681,55.0649992 61.9316649,54.99 62.285,54.99 Z M61.955,59.11 C62.3483353,59.11 62.6549989,58.9750013 62.875,58.705 C63.0950011,58.4349986 63.205,58.0533358 63.205,57.56 C63.205,57.0533308 63.0950011,56.6600014 62.875,56.38 C62.6549989,56.0999986 62.3483353,55.96 61.955,55.96 C61.554998,55.96 61.2466678,56.0966653 61.03,56.37 C60.8133323,56.6433347 60.705,57.0333308 60.705,57.54 C60.705,58.0400025 60.8133323,58.4266653 61.03,58.7 C61.2466678,58.9733347 61.554998,59.11 61.955,59.11 Z M67.715,60.08 C67.2149975,60.08 66.7766686,59.9766677 66.4,59.77 C66.0233315,59.5633323 65.7316677,59.2666686 65.525,58.88 C65.3183323,58.4933314 65.215,58.0433359 65.215,57.53 C65.215,57.0166641 65.3183323,56.5683352 65.525,56.185 C65.7316677,55.8016648 66.0233315,55.5066677 66.4,55.3 C66.7766686,55.0933323 67.2149975,54.99 67.715,54.99 C68.2150025,54.99 68.6533314,55.0933323 69.03,55.3 C69.4066686,55.5066677 69.6966656,55.8016648 69.9,56.185 C70.1033343,56.5683352 70.205,57.0166641 70.205,57.53 C70.205,58.0433359 70.1033343,58.4933314 69.9,58.88 C69.6966656,59.2666686 69.4066686,59.5633323 69.03,59.77 C68.6533314,59.9766677 68.2150025,60.08 67.715,60.08 Z M67.705,59.11 C68.1116687,59.11 68.4216656,58.976668 68.635,58.71 C68.8483344,58.443332 68.955,58.0500026 68.955,57.53 C68.955,57.0166641 68.8483344,56.6250013 68.635,56.355 C68.4216656,56.0849987 68.115002,55.95 67.715,55.95 C67.314998,55.95 67.0066677,56.0849987 66.79,56.355 C66.5733322,56.6250013 66.465,57.0166641 66.465,57.53 C66.465,58.0500026 66.5716656,58.443332 66.785,58.71 C66.9983344,58.976668 67.304998,59.11 67.705,59.11 Z M71.235,60 L71.235,55.11 L72.485,55.11 L72.485,60 L71.235,60 Z M71.165,52.84 L72.545,52.84 L72.545,54.07 L71.165,54.07 L71.165,52.84 Z M76.615,54.99 C77.2016696,54.99 77.6383319,55.156665 77.925,55.49 C78.2116681,55.823335 78.355,56.3266633 78.355,57 L78.355,60 L77.105,60 L77.105,57.07 C77.105,56.6899981 77.0333341,56.4133342 76.89,56.24 C76.7466659,56.0666658 76.5216682,55.98 76.215,55.98 C75.8549982,55.98 75.5666677,56.0933322 75.35,56.32 C75.1333322,56.5466678 75.025,56.8499981 75.025,57.23 L75.025,60 L73.775,60 L73.775,55.11 L74.995,55.11 L74.995,55.84 C75.1616675,55.5666653 75.3849986,55.3566674 75.665,55.21 C75.9450014,55.0633326 76.2616649,54.99 76.615,54.99 Z M82.125,59.14 C82.2716674,59.14 82.4249992,59.1300001 82.585,59.11 L82.525,60.04 C82.324999,60.0600001 82.1416675,60.07 81.975,60.07 C81.2883299,60.07 80.7816683,59.9116682 80.455,59.595 C80.1283317,59.2783317 79.965,58.8066698 79.965,58.18 L79.965,56.05 L79.025,56.05 L79.025,55.11 L79.965,55.11 L79.965,53.65 L81.215,53.65 L81.215,55.11 L82.505,55.11 L82.505,56.05 L81.215,56.05 L81.215,58.16 C81.215,58.8133366 81.5183303,59.14 82.125,59.14 Z M92.625,55.11 L93.845,55.11 L91.925,60 L90.835,60 L89.635,56.85 L88.465,60 L87.385,60 L85.455,55.11 L86.735,55.11 L87.985,58.51 L89.235,55.11 L90.135,55.11 L91.385,58.53 L92.625,55.11 Z M94.585,60 L94.585,55.11 L95.835,55.11 L95.835,60 L94.585,60 Z M94.515,52.84 L95.895,52.84 L95.895,54.07 L94.515,54.07 L94.515,52.84 Z M99.625,59.14 C99.7716674,59.14 99.9249992,59.1300001 100.085,59.11 L100.025,60.04 C99.824999,60.0600001 99.6416675,60.07 99.475,60.07 C98.7883299,60.07 98.2816683,59.9116682 97.955,59.595 C97.6283317,59.2783317 97.465,58.8066698 97.465,58.18 L97.465,56.05 L96.525,56.05 L96.525,55.11 L97.465,55.11 L97.465,53.65 L98.715,53.65 L98.715,55.11 L100.005,55.11 L100.005,56.05 L98.715,56.05 L98.715,58.16 C98.715,58.8133366 99.0183303,59.14 99.625,59.14 Z M103.655,54.99 C104.24167,54.99 104.678332,55.156665 104.965,55.49 C105.251668,55.823335 105.395,56.3266633 105.395,57 L105.395,60 L104.145,60 L104.145,57.07 C104.145,56.6899981 104.073334,56.4133342 103.93,56.24 C103.786666,56.0666658 103.561668,55.98 103.255,55.98 C102.894998,55.98 102.606668,56.0933322 102.39,56.32 C102.173332,56.5466678 102.065,56.8499981 102.065,57.23 L102.065,60 L100.815,60 L100.815,52.95 L102.065,52.95 L102.065,55.79 C102.231668,55.5299987 102.453332,55.3316673 102.73,55.195 C103.006668,55.0583326 103.314998,54.99 103.655,54.99 Z M106.665,60 L106.665,55.11 L107.915,55.11 L107.915,60 L106.665,60 Z M106.595,52.84 L107.975,52.84 L107.975,54.07 L106.595,54.07 L106.595,52.84 Z M112.045,54.99 C112.63167,54.99 113.068332,55.156665 113.355,55.49 C113.641668,55.823335 113.785,56.3266633 113.785,57 L113.785,60 L112.535,60 L112.535,57.07 C112.535,56.6899981 112.463334,56.4133342 112.32,56.24 C112.176666,56.0666658 111.951668,55.98 111.645,55.98 C111.284998,55.98 110.996668,56.0933322 110.78,56.32 C110.563332,56.5466678 110.455,56.8499981 110.455,57.23 L110.455,60 L109.205,60 L109.205,55.11 L110.425,55.11 L110.425,55.84 C110.591668,55.5666653 110.814999,55.3566674 111.095,55.21 C111.375001,55.0633326 111.691665,54.99 112.045,54.99 Z M119.815,55.11 L119.815,59.55 C119.815,60.3166705 119.603335,60.8966647 119.18,61.29 C118.756665,61.6833353 118.131671,61.88 117.305,61.88 C116.878331,61.88 116.468335,61.8250005 116.075,61.715 C115.681665,61.6049995 115.338335,61.450001 115.045,61.25 L115.395,60.37 C116.00167,60.7366685 116.62833,60.92 117.275,60.92 C118.141671,60.92 118.575,60.4933376 118.575,59.64 L118.575,59 C118.428333,59.2733347 118.215001,59.4849993 117.935,59.635 C117.654999,59.7850008 117.335002,59.86 116.975,59.86 C116.548331,59.86 116.170002,59.7583343 115.84,59.555 C115.509998,59.3516657 115.251668,59.0666685 115.065,58.7 C114.878332,58.3333315 114.785,57.9100024 114.785,57.43 C114.785,56.9499976 114.876666,56.5250019 115.06,56.155 C115.243334,55.7849981 115.501665,55.4983344 115.835,55.295 C116.168335,55.0916657 116.548331,54.99 116.975,54.99 C117.335002,54.99 117.654999,55.0649992 117.935,55.215 C118.215001,55.3650008 118.428333,55.5766653 118.575,55.85 L118.575,55.11 L119.815,55.11 Z M117.305,58.89 C117.705002,58.89 118.016666,58.7600013 118.24,58.5 C118.463334,58.2399987 118.575,57.8833356 118.575,57.43 C118.575,56.9699977 118.463334,56.6100013 118.24,56.35 C118.016666,56.0899987 117.705002,55.96 117.305,55.96 C116.911665,55.96 116.601668,56.0899987 116.375,56.35 C116.148332,56.6100013 116.035,56.9699977 116.035,57.43 C116.035,57.8766689 116.148332,58.2316654 116.375,58.495 C116.601668,58.7583347 116.911665,58.89 117.305,58.89 Z M57.775,74 L57.775,66.95 L59.065,66.95 L59.065,74 L57.775,74 Z M65.235,73.77 C65.3950008,73.8166669 65.5349994,73.8916661 65.655,73.995 C65.7750006,74.0983339 65.8916661,74.2433324 66.005,74.43 L66.725,75.6 L65.645,76.12 L64.675,74.55 C64.4883324,74.2433318 64.1716689,74.09 63.725,74.09 C63.0383299,74.09 62.4433358,73.9433348 61.94,73.65 C61.4366641,73.3566652 61.0483347,72.9366694 60.775,72.39 C60.5016653,71.8433306 60.365,71.203337 60.365,70.47 C60.365,69.736663 60.5016653,69.0983361 60.775,68.555 C61.0483347,68.0116639 61.4366641,67.5933348 61.94,67.3 C62.4433358,67.0066652 63.0383299,66.86 63.725,66.86 C64.4050034,66.86 64.9966642,67.0066652 65.5,67.3 C66.0033358,67.5933348 66.3916653,68.0116639 66.665,68.555 C66.9383347,69.0983361 67.075,69.736663 67.075,70.47 C67.075,71.270004 66.9166683,71.9549971 66.6,72.525 C66.2833318,73.0950029 65.8283363,73.5099987 65.235,73.77 Z M63.725,73.06 C64.3716699,73.06 64.8766648,72.8366689 65.24,72.39 C65.6033351,71.9433311 65.785,71.3033375 65.785,70.47 C65.785,69.6366625 65.6033351,68.9983356 65.24,68.555 C64.8766648,68.1116645 64.3716699,67.89 63.725,67.89 C63.0716634,67.89 62.5633352,68.1116645 62.2,68.555 C61.8366649,68.9983356 61.655,69.6366625 61.655,70.47 C61.655,71.3033375 61.8366649,71.9433311 62.2,72.39 C62.5633352,72.8366689 63.0716634,73.06 63.725,73.06 Z M74.285,74 L72.885,74 L71.675,71.75 C71.5616661,71.5366656 71.4216675,71.3866671 71.255,71.3 C71.0883325,71.2133329 70.8783346,71.17 70.625,71.17 L69.645,71.17 L69.645,74 L68.375,74 L68.375,66.95 L71.495,66.95 C72.295004,66.95 72.9033313,67.1283315 73.32,67.485 C73.7366688,67.8416685 73.945,68.3566633 73.945,69.03 C73.945,69.5700027 73.7933349,70.0149982 73.49,70.365 C73.1866652,70.7150017 72.7583361,70.9433328 72.205,71.05 C72.5783352,71.1500005 72.8783322,71.4133312 73.105,71.84 L74.285,74 Z M71.315,70.18 C71.8016691,70.18 72.1583322,70.0883343 72.385,69.905 C72.6116678,69.7216657 72.725,69.4400019 72.725,69.06 C72.725,68.6733314 72.6116678,68.3916675 72.385,68.215 C72.1583322,68.0383324 71.8016691,67.95 71.315,67.95 L69.635,67.95 L69.635,70.18 L71.315,70.18 Z M81.485,68.29 L81.485,69.17 L80.175,69.1 L80.895,70.2 L80.135,70.64 L79.535,69.46 L78.935,70.63 L78.185,70.2 L78.905,69.09 L77.585,69.16 L77.585,68.29 L78.905,68.36 L78.185,67.25 L78.935,66.81 L79.535,67.99 L80.135,66.81 L80.895,67.26 L80.175,68.36 L81.485,68.29 Z M88.465,72.96 L89.995,72.96 L89.995,74 L85.645,74 L85.645,72.96 L87.175,72.96 L87.175,68.42 L85.965,69.15 L85.455,68.21 L87.545,66.95 L88.465,66.95 L88.465,72.96 Z M91.045,72.62 L92.445,72.62 L92.445,74 L91.045,74 L91.045,72.62 Z M96.365,69.49 C96.8050022,69.49 97.1933317,69.584999 97.53,69.775 C97.8666684,69.965001 98.1266658,70.2299983 98.31,70.57 C98.4933343,70.9100017 98.585,71.2999978 98.585,71.74 C98.585,72.206669 98.4783344,72.6166649 98.265,72.97 C98.0516656,73.3233351 97.750002,73.5966657 97.36,73.79 C96.9699981,73.9833343 96.5116693,74.08 95.985,74.08 C95.5449978,74.08 95.1100021,74.0050007 94.68,73.855 C94.2499979,73.7049993 93.8950014,73.5066679 93.615,73.26 L94.045,72.32 C94.6850032,72.8066691 95.33833,73.05 96.005,73.05 C96.4450022,73.05 96.7816655,72.9400011 97.015,72.72 C97.2483345,72.4999989 97.365,72.1866687 97.365,71.78 C97.365,71.3866647 97.2466679,71.0750011 97.01,70.845 C96.7733322,70.6149989 96.4516687,70.5 96.045,70.5 C95.7716653,70.5 95.5133346,70.5516662 95.27,70.655 C95.0266654,70.7583338 94.8083343,70.9066657 94.615,71.1 L93.845,71.1 L93.845,66.95 L98.265,66.95 L98.265,67.95 L95.105,67.95 L95.105,69.85 C95.4450017,69.6099988 95.8649975,69.49 96.365,69.49 Z" id="FirstpointwithingIQR*1.5" fill="#4C7EF3" fill-rule="nonzero"></path>
        <path d="M302.305,60 L302.305,52.95 L306.925,52.95 L306.925,53.98 L303.575,53.98 L303.575,55.9 L306.725,55.9 L306.725,56.93 L303.575,56.93 L303.575,60 L302.305,60 Z M307.855,60 L307.855,55.11 L309.105,55.11 L309.105,60 L307.855,60 Z M307.785,52.84 L309.165,52.84 L309.165,54.07 L307.785,54.07 L307.785,52.84 Z M313.615,56.03 L312.885,56.1 C312.058329,56.1866671 311.645,56.6066629 311.645,57.36 L311.645,60 L310.395,60 L310.395,55.11 L311.585,55.11 L311.585,55.97 C311.838335,55.3833304 312.361663,55.0633336 313.155,55.01 L313.535,54.98 L313.615,56.03 Z M316.025,60.08 C315.591664,60.08 315.193335,60.0266672 314.83,59.92 C314.466665,59.8133328 314.158335,59.660001 313.905,59.46 L314.255,58.59 C314.775003,58.9700019 315.371663,59.16 316.045,59.16 C316.331668,59.16 316.549999,59.1133338 316.7,59.02 C316.850001,58.9266662 316.925,58.7933342 316.925,58.62 C316.925,58.4733326 316.873334,58.3600004 316.77,58.28 C316.666666,58.1999996 316.481668,58.126667 316.215,58.06 L315.415,57.88 C314.961664,57.7799995 314.625001,57.6166678 314.405,57.39 C314.184999,57.1633322 314.075,56.8700018 314.075,56.51 C314.075,56.2099985 314.159999,55.9450011 314.33,55.715 C314.500001,55.4849988 314.736665,55.3066673 315.04,55.18 C315.343335,55.0533327 315.694998,54.99 316.095,54.99 C316.441668,54.99 316.776665,55.0433328 317.1,55.15 C317.423335,55.2566672 317.708332,55.4066657 317.955,55.6 L317.605,56.45 C317.098331,56.0833315 316.591669,55.9 316.085,55.9 C315.811665,55.9 315.598334,55.9499995 315.445,56.05 C315.291666,56.1500005 315.215,56.2899991 315.215,56.47 C315.215,56.603334 315.263333,56.7133329 315.36,56.8 C315.456667,56.8866671 315.611666,56.9533331 315.825,57 L316.655,57.19 C317.141669,57.2966672 317.498332,57.4649989 317.725,57.695 C317.951668,57.9250011 318.065,58.2266648 318.065,58.6 C318.065,59.0533356 317.881668,59.413332 317.515,59.68 C317.148331,59.946668 316.65167,60.08 316.025,60.08 Z M321.575,59.14 C321.721667,59.14 321.874999,59.1300001 322.035,59.11 L321.975,60.04 C321.774999,60.0600001 321.591667,60.07 321.425,60.07 C320.73833,60.07 320.231668,59.9116682 319.905,59.595 C319.578332,59.2783317 319.415,58.8066698 319.415,58.18 L319.415,56.05 L318.475,56.05 L318.475,55.11 L319.415,55.11 L319.415,53.65 L320.665,53.65 L320.665,55.11 L321.955,55.11 L321.955,56.05 L320.665,56.05 L320.665,58.16 C320.665,58.8133366 320.96833,59.14 321.575,59.14 Z M328.285,54.99 C328.705002,54.99 329.079998,55.0966656 329.41,55.31 C329.740002,55.5233344 329.996666,55.824998 330.18,56.215 C330.363334,56.605002 330.455,57.0533308 330.455,57.56 C330.455,58.0666692 330.363334,58.5099981 330.18,58.89 C329.996666,59.2700019 329.741668,59.5633323 329.415,59.77 C329.088332,59.9766677 328.711669,60.08 328.285,60.08 C327.938332,60.08 327.628335,60.0066674 327.355,59.86 C327.081665,59.7133326 326.871667,59.5100013 326.725,59.25 L326.725,61.8 L325.475,61.8 L325.475,55.11 L326.705,55.11 L326.705,55.85 C326.851667,55.5766653 327.063332,55.3650008 327.34,55.215 C327.616668,55.0649992 327.931665,54.99 328.285,54.99 Z M327.955,59.11 C328.348335,59.11 328.654999,58.9750013 328.875,58.705 C329.095001,58.4349986 329.205,58.0533358 329.205,57.56 C329.205,57.0533308 329.095001,56.6600014 328.875,56.38 C328.654999,56.0999986 328.348335,55.96 327.955,55.96 C327.554998,55.96 327.246668,56.0966653 327.03,56.37 C326.813332,56.6433347 326.705,57.0333308 326.705,57.54 C326.705,58.0400025 326.813332,58.4266653 327.03,58.7 C327.246668,58.9733347 327.554998,59.11 327.955,59.11 Z M333.715,60.08 C333.214997,60.08 332.776669,59.9766677 332.4,59.77 C332.023331,59.5633323 331.731668,59.2666686 331.525,58.88 C331.318332,58.4933314 331.215,58.0433359 331.215,57.53 C331.215,57.0166641 331.318332,56.5683352 331.525,56.185 C331.731668,55.8016648 332.023331,55.5066677 332.4,55.3 C332.776669,55.0933323 333.214997,54.99 333.715,54.99 C334.215003,54.99 334.653331,55.0933323 335.03,55.3 C335.406669,55.5066677 335.696666,55.8016648 335.9,56.185 C336.103334,56.5683352 336.205,57.0166641 336.205,57.53 C336.205,58.0433359 336.103334,58.4933314 335.9,58.88 C335.696666,59.2666686 335.406669,59.5633323 335.03,59.77 C334.653331,59.9766677 334.215003,60.08 333.715,60.08 Z M333.705,59.11 C334.111669,59.11 334.421666,58.976668 334.635,58.71 C334.848334,58.443332 334.955,58.0500026 334.955,57.53 C334.955,57.0166641 334.848334,56.6250013 334.635,56.355 C334.421666,56.0849987 334.115002,55.95 333.715,55.95 C333.314998,55.95 333.006668,56.0849987 332.79,56.355 C332.573332,56.6250013 332.465,57.0166641 332.465,57.53 C332.465,58.0500026 332.571666,58.443332 332.785,58.71 C332.998334,58.976668 333.304998,59.11 333.705,59.11 Z M337.235,60 L337.235,55.11 L338.485,55.11 L338.485,60 L337.235,60 Z M337.165,52.84 L338.545,52.84 L338.545,54.07 L337.165,54.07 L337.165,52.84 Z M342.615,54.99 C343.20167,54.99 343.638332,55.156665 343.925,55.49 C344.211668,55.823335 344.355,56.3266633 344.355,57 L344.355,60 L343.105,60 L343.105,57.07 C343.105,56.6899981 343.033334,56.4133342 342.89,56.24 C342.746666,56.0666658 342.521668,55.98 342.215,55.98 C341.854998,55.98 341.566668,56.0933322 341.35,56.32 C341.133332,56.5466678 341.025,56.8499981 341.025,57.23 L341.025,60 L339.775,60 L339.775,55.11 L340.995,55.11 L340.995,55.84 C341.161668,55.5666653 341.384999,55.3566674 341.665,55.21 C341.945001,55.0633326 342.261665,54.99 342.615,54.99 Z M348.125,59.14 C348.271667,59.14 348.424999,59.1300001 348.585,59.11 L348.525,60.04 C348.324999,60.0600001 348.141667,60.07 347.975,60.07 C347.28833,60.07 346.781668,59.9116682 346.455,59.595 C346.128332,59.2783317 345.965,58.8066698 345.965,58.18 L345.965,56.05 L345.025,56.05 L345.025,55.11 L345.965,55.11 L345.965,53.65 L347.215,53.65 L347.215,55.11 L348.505,55.11 L348.505,56.05 L347.215,56.05 L347.215,58.16 C347.215,58.8133366 347.51833,59.14 348.125,59.14 Z M358.625,55.11 L359.845,55.11 L357.925,60 L356.835,60 L355.635,56.85 L354.465,60 L353.385,60 L351.455,55.11 L352.735,55.11 L353.985,58.51 L355.235,55.11 L356.135,55.11 L357.385,58.53 L358.625,55.11 Z M360.585,60 L360.585,55.11 L361.835,55.11 L361.835,60 L360.585,60 Z M360.515,52.84 L361.895,52.84 L361.895,54.07 L360.515,54.07 L360.515,52.84 Z M365.625,59.14 C365.771667,59.14 365.924999,59.1300001 366.085,59.11 L366.025,60.04 C365.824999,60.0600001 365.641668,60.07 365.475,60.07 C364.78833,60.07 364.281668,59.9116682 363.955,59.595 C363.628332,59.2783317 363.465,58.8066698 363.465,58.18 L363.465,56.05 L362.525,56.05 L362.525,55.11 L363.465,55.11 L363.465,53.65 L364.715,53.65 L364.715,55.11 L366.005,55.11 L366.005,56.05 L364.715,56.05 L364.715,58.16 C364.715,58.8133366 365.01833,59.14 365.625,59.14 Z M369.655,54.99 C370.24167,54.99 370.678332,55.156665 370.965,55.49 C371.251668,55.823335 371.395,56.3266633 371.395,57 L371.395,60 L370.145,60 L370.145,57.07 C370.145,56.6899981 370.073334,56.4133342 369.93,56.24 C369.786666,56.0666658 369.561668,55.98 369.255,55.98 C368.894998,55.98 368.606668,56.0933322 368.39,56.32 C368.173332,56.5466678 368.065,56.8499981 368.065,57.23 L368.065,60 L366.815,60 L366.815,52.95 L368.065,52.95 L368.065,55.79 C368.231668,55.5299987 368.453332,55.3316673 368.73,55.195 C369.006668,55.0583326 369.314998,54.99 369.655,54.99 Z M372.665,60 L372.665,55.11 L373.915,55.11 L373.915,60 L372.665,60 Z M372.595,52.84 L373.975,52.84 L373.975,54.07 L372.595,54.07 L372.595,52.84 Z M378.045,54.99 C378.63167,54.99 379.068332,55.156665 379.355,55.49 C379.641668,55.823335 379.785,56.3266633 379.785,57 L379.785,60 L378.535,60 L378.535,57.07 C378.535,56.6899981 378.463334,56.4133342 378.32,56.24 C378.176666,56.0666658 377.951668,55.98 377.645,55.98 C377.284998,55.98 376.996668,56.0933322 376.78,56.32 C376.563332,56.5466678 376.455,56.8499981 376.455,57.23 L376.455,60 L375.205,60 L375.205,55.11 L376.425,55.11 L376.425,55.84 C376.591668,55.5666653 376.814999,55.3566674 377.095,55.21 C377.375001,55.0633326 377.691665,54.99 378.045,54.99 Z M385.815,55.11 L385.815,59.55 C385.815,60.3166705 385.603335,60.8966647 385.18,61.29 C384.756665,61.6833353 384.131671,61.88 383.305,61.88 C382.878331,61.88 382.468335,61.8250005 382.075,61.715 C381.681665,61.6049995 381.338335,61.450001 381.045,61.25 L381.395,60.37 C382.00167,60.7366685 382.62833,60.92 383.275,60.92 C384.141671,60.92 384.575,60.4933376 384.575,59.64 L384.575,59 C384.428333,59.2733347 384.215001,59.4849993 383.935,59.635 C383.654999,59.7850008 383.335002,59.86 382.975,59.86 C382.548331,59.86 382.170002,59.7583343 381.84,59.555 C381.509998,59.3516657 381.251668,59.0666685 381.065,58.7 C380.878332,58.3333315 380.785,57.9100024 380.785,57.43 C380.785,56.9499976 380.876666,56.5250019 381.06,56.155 C381.243334,55.7849981 381.501665,55.4983344 381.835,55.295 C382.168335,55.0916657 382.548331,54.99 382.975,54.99 C383.335002,54.99 383.654999,55.0649992 383.935,55.215 C384.215001,55.3650008 384.428333,55.5766653 384.575,55.85 L384.575,55.11 L385.815,55.11 Z M383.305,58.89 C383.705002,58.89 384.016666,58.7600013 384.24,58.5 C384.463334,58.2399987 384.575,57.8833356 384.575,57.43 C384.575,56.9699977 384.463334,56.6100013 384.24,56.35 C384.016666,56.0899987 383.705002,55.96 383.305,55.96 C382.911665,55.96 382.601668,56.0899987 382.375,56.35 C382.148332,56.6100013 382.035,56.9699977 382.035,57.43 C382.035,57.8766689 382.148332,58.2316654 382.375,58.495 C382.601668,58.7583347 382.911665,58.89 383.305,58.89 Z M323.775,74 L323.775,66.95 L325.065,66.95 L325.065,74 L323.775,74 Z M331.235,73.77 C331.395001,73.8166669 331.534999,73.8916661 331.655,73.995 C331.775001,74.0983339 331.891666,74.2433324 332.005,74.43 L332.725,75.6 L331.645,76.12 L330.675,74.55 C330.488332,74.2433318 330.171669,74.09 329.725,74.09 C329.03833,74.09 328.443336,73.9433348 327.94,73.65 C327.436664,73.3566652 327.048335,72.9366694 326.775,72.39 C326.501665,71.8433306 326.365,71.203337 326.365,70.47 C326.365,69.736663 326.501665,69.0983361 326.775,68.555 C327.048335,68.0116639 327.436664,67.5933348 327.94,67.3 C328.443336,67.0066652 329.03833,66.86 329.725,66.86 C330.405003,66.86 330.996664,67.0066652 331.5,67.3 C332.003336,67.5933348 332.391665,68.0116639 332.665,68.555 C332.938335,69.0983361 333.075,69.736663 333.075,70.47 C333.075,71.270004 332.916668,71.9549971 332.6,72.525 C332.283332,73.0950029 331.828336,73.5099987 331.235,73.77 Z M329.725,73.06 C330.37167,73.06 330.876665,72.8366689 331.24,72.39 C331.603335,71.9433311 331.785,71.3033375 331.785,70.47 C331.785,69.6366625 331.603335,68.9983356 331.24,68.555 C330.876665,68.1116645 330.37167,67.89 329.725,67.89 C329.071663,67.89 328.563335,68.1116645 328.2,68.555 C327.836665,68.9983356 327.655,69.6366625 327.655,70.47 C327.655,71.3033375 327.836665,71.9433311 328.2,72.39 C328.563335,72.8366689 329.071663,73.06 329.725,73.06 Z M340.285,74 L338.885,74 L337.675,71.75 C337.561666,71.5366656 337.421668,71.3866671 337.255,71.3 C337.088332,71.2133329 336.878335,71.17 336.625,71.17 L335.645,71.17 L335.645,74 L334.375,74 L334.375,66.95 L337.495,66.95 C338.295004,66.95 338.903331,67.1283315 339.32,67.485 C339.736669,67.8416685 339.945,68.3566633 339.945,69.03 C339.945,69.5700027 339.793335,70.0149982 339.49,70.365 C339.186665,70.7150017 338.758336,70.9433328 338.205,71.05 C338.578335,71.1500005 338.878332,71.4133312 339.105,71.84 L340.285,74 Z M337.315,70.18 C337.801669,70.18 338.158332,70.0883343 338.385,69.905 C338.611668,69.7216657 338.725,69.4400019 338.725,69.06 C338.725,68.6733314 338.611668,68.3916675 338.385,68.215 C338.158332,68.0383324 337.801669,67.95 337.315,67.95 L335.635,67.95 L335.635,70.18 L337.315,70.18 Z M347.485,68.29 L347.485,69.17 L346.175,69.1 L346.895,70.2 L346.135,70.64 L345.535,69.46 L344.935,70.63 L344.185,70.2 L344.905,69.09 L343.585,69.16 L343.585,68.29 L344.905,68.36 L344.185,67.25 L344.935,66.81 L345.535,67.99 L346.135,66.81 L346.895,67.26 L346.175,68.36 L347.485,68.29 Z M354.465,72.96 L355.995,72.96 L355.995,74 L351.645,74 L351.645,72.96 L353.175,72.96 L353.175,68.42 L351.965,69.15 L351.455,68.21 L353.545,66.95 L354.465,66.95 L354.465,72.96 Z M357.045,72.62 L358.445,72.62 L358.445,74 L357.045,74 L357.045,72.62 Z M362.365,69.49 C362.805002,69.49 363.193332,69.584999 363.53,69.775 C363.866668,69.965001 364.126666,70.2299983 364.31,70.57 C364.493334,70.9100017 364.585,71.2999978 364.585,71.74 C364.585,72.206669 364.478334,72.6166649 364.265,72.97 C364.051666,73.3233351 363.750002,73.5966657 363.36,73.79 C362.969998,73.9833343 362.511669,74.08 361.985,74.08 C361.544998,74.08 361.110002,74.0050007 360.68,73.855 C360.249998,73.7049993 359.895001,73.5066679 359.615,73.26 L360.045,72.32 C360.685003,72.8066691 361.33833,73.05 362.005,73.05 C362.445002,73.05 362.781666,72.9400011 363.015,72.72 C363.248334,72.4999989 363.365,72.1866687 363.365,71.78 C363.365,71.3866647 363.246668,71.0750011 363.01,70.845 C362.773332,70.6149989 362.451669,70.5 362.045,70.5 C361.771665,70.5 361.513335,70.5516662 361.27,70.655 C361.026665,70.7583338 360.808334,70.9066657 360.615,71.1 L359.845,71.1 L359.845,66.95 L364.265,66.95 L364.265,67.95 L361.105,67.95 L361.105,69.85 C361.445002,69.6099988 361.864998,69.49 362.365,69.49 Z" id="FirstpointwithingIQR*1.5" fill="#4C7EF3" fill-rule="nonzero"></path>
        <path d="M127.5,186.5 C128.052285,186.5 128.5,186.947715 128.5,187.5 C128.5,188.052285 128.052285,188.5 127.5,188.5 L118.5,188.5 C117.947715,188.5 117.5,188.052285 117.5,187.5 C117.5,186.947715 117.947715,186.5 118.5,186.5 L127.5,186.5 Z" id="1-copy-7" fill="#000000" fill-rule="nonzero" transform="translate(123.000000, 187.500000) rotate(-90.000000) translate(-123.000000, -187.500000) "></path>
        <path d="M175.5,186.5 C176.052285,186.5 176.5,186.947715 176.5,187.5 C176.5,188.052285 176.052285,188.5 175.5,188.5 L166.5,188.5 C165.947715,188.5 165.5,188.052285 165.5,187.5 C165.5,186.947715 165.947715,186.5 166.5,186.5 L175.5,186.5 Z" id="1-copy-9" fill="#000000" fill-rule="nonzero" transform="translate(171.000000, 187.500000) rotate(-90.000000) translate(-171.000000, -187.500000) "></path>
        <path d="M316.5,186.5 C317.052285,186.5 317.5,186.947715 317.5,187.5 C317.5,188.052285 317.052285,188.5 316.5,188.5 L307.5,188.5 C306.947715,188.5 306.5,188.052285 306.5,187.5 C306.5,186.947715 306.947715,186.5 307.5,186.5 L316.5,186.5 Z" id="5-copy-3" fill="#000000" fill-rule="nonzero" transform="translate(312.000000, 187.500000) rotate(-90.000000) translate(-312.000000, -187.500000) "></path>
        <g id="Group" transform="translate(171.000000, 54.000000)" fill="#4C7EF3" fill-rule="nonzero">
            <path d="M38.5064732,-0.0801955599 L39.4935268,0.0801955599 C38.4794053,6.32114063 32.6229867,9.41352859 22.119403,9.41352859 C7.61256892,9.41352859 0.5,13.2999744 0.5,21 L-0.5,21 C-0.5,12.5847304 7.13369974,8.41352859 22.119403,8.41352859 C32.1920786,8.41352859 37.5893913,5.56356416 38.5064732,-0.0801955599 Z" id="Path-3"></path>
            <path d="M77.5064685,-0.0801664164 L78.4935315,0.0801664164 C77.479792,6.32108849 71.6254591,9.41352859 61.1256994,9.41352859 C46.2438768,9.41352859 39.1441594,13.2943996 39.5139684,20.9759566 L38.5151252,21.0240434 C38.1091043,12.5903052 45.7501553,8.41352859 61.1256994,8.41352859 C71.1945241,8.41352859 76.5897249,5.5636163 77.5064685,-0.0801664164 Z" id="Path-3-Copy" transform="translate(58.496644, 10.471938) scale(-1, 1) translate(-58.496644, -10.471938) "></path>
        </g>
        <g id="Group-Copy" transform="translate(115.000000, 124.500000) rotate(-180.000000) translate(-115.000000, -124.500000) translate(62.000000, 110.000000)" stroke="#4C7EF3">
            <path d="M53,0 C51.6877721,8.20610569 44.0410059,12.3091585 30.0597015,12.3091585 C10.0199005,12.3091585 -4.26325641e-14,17.8727724 -4.26325641e-14,29" id="Path-3"></path>
            <path d="M106,0 C104.688262,8.20610569 97.0443476,12.3091585 83.0682581,12.3091585 C62.5087654,12.3091585 52.4926023,17.8727724 53.0197687,29" id="Path-3-Copy" transform="translate(79.500000, 14.500000) scale(-1, 1) translate(-79.500000, -14.500000) "></path>
        </g>
        <g id="Group-Copy-2" transform="translate(313.000000, 124.500000) rotate(-180.000000) translate(-313.000000, -124.500000) translate(260.000000, 110.000000)" stroke="#4C7EF3">
            <path d="M53,0 C51.6877721,8.20610569 44.0410059,12.3091585 30.0597015,12.3091585 C10.0199005,12.3091585 -4.26325641e-14,17.8727724 -4.26325641e-14,29" id="Path-3"></path>
            <path d="M106,0 C104.688262,8.20610569 97.0443476,12.3091585 83.0682581,12.3091585 C62.5087654,12.3091585 52.4926023,17.8727724 53.0197687,29" id="Path-3-Copy" transform="translate(79.500000, 14.500000) scale(-1, 1) translate(-79.500000, -14.500000) "></path>
        </g>
        <g id="Box-1" transform="translate(217.500000, 95.500000) rotate(-90.000000) translate(-217.500000, -95.500000) translate(208.000000, -64.000000)" fill-rule="nonzero" stroke="#B0B0B0" stroke-width="2">
            <g>
                <path d="M9,2 L9,318" id="Line" stroke-linecap="square"></path>
                <path d="M0,1 L19,1" id="Line-2" stroke-linecap="round"></path>
                <path d="M0,318 L19,318" id="Line-2-Copy" stroke-linecap="round"></path>
            </g>
        </g>
        <g id="Box-1-Copy" transform="translate(210.000000, 95.500000) rotate(-90.000000) translate(-210.000000, -95.500000) translate(200.500000, -38.500000)" fill-rule="nonzero" stroke="#0F1931" stroke-width="2">
            <g id="Box-1" transform="translate(0.000000, 0.000000)">
                <path d="M9,1 L9,267" id="Line" stroke-linecap="square"></path>
                <path d="M0,1 L19,1" id="Line-2" stroke-linecap="round"></path>
                <path d="M0,267 L19,267" id="Line-2-Copy" stroke-linecap="round"></path>
            </g>
        </g>
        <path d="M197,58 L197,134 L223,134 L223,58 L197,58 Z" id="Rectangle" stroke="#000000" stroke-width="2" fill="#FFFFFF" fill-rule="nonzero" transform="translate(210.000000, 96.000000) rotate(-90.000000) translate(-210.000000, -96.000000) "></path>
        <path d="M186,83 L186,109" id="Line-3" stroke="#000000" stroke-width="2" stroke-linecap="square"></path>
        <circle id="Oval-Copy-19" fill="#4C7EF3" fill-rule="nonzero" cx="77" cy="96" r="4"></circle>
        <circle id="Oval-Copy-20" fill="#4C7EF3" fill-rule="nonzero" cx="343" cy="96" r="4"></circle>
    </g>
</svg>