<?xml version="1.0" encoding="UTF-8"?>
<svg width="1040px" height="549px" viewBox="0 0 1040 549" version="1.1" xmlns="http://www.w3.org/2000/svg" xmlns:xlink="http://www.w3.org/1999/xlink">
    <!-- Generator: Sketch 47.1 (45422) - http://www.bohemiancoding.com/sketch -->
    <title>NumPy 40 percentile </title>
    <desc>Created with Sketch.</desc>
    <defs>
        <rect id="path-1" x="467" y="230" width="86" height="86" rx="43"></rect>
    </defs>
    <g id="NumPy" stroke="none" stroke-width="1" fill="none" fill-rule="evenodd">
        <g id="NumPy-40-percentile-">
            <polygon id="Page-1-Copy" fill="#354551" points="-28 563 1067 563 1067 -15 -28 -15"></polygon>
            <g id="Rectangle-2">
                <use fill-opacity="0.400000006" fill="#4E768D" fill-rule="evenodd" xlink:href="#path-1"></use>
                <rect stroke="#52B1DB" stroke-width="2" x="468" y="231" width="84" height="84" rx="42"></rect>
            </g>
            <path d="M97.0625,292.606445 C93.2128714,292.606445 90.2114365,291.270521 88.0581055,288.598633 C85.9047744,285.926744 84.828125,282.235375 84.828125,277.524414 C84.828125,273.094704 85.9399303,269.495619 88.1635742,266.727051 C90.3872181,263.958482 93.3183412,262.574219 96.9570312,262.574219 C98.750009,262.574219 100.54296,262.960934 102.335938,263.734375 C104.128915,264.507816 105.491206,265.711906 106.422852,267.34668 L106.422852,251.895508 L109.586914,251.605469 L109.586914,292 L106.871094,292 L106.396484,287.649414 C105.394526,289.284188 104.03663,290.519039 102.322754,291.354004 C100.608878,292.188969 98.8554777,292.606445 97.0625,292.606445 Z M96.9833984,290.022461 C98.6181722,290.022461 100.050775,289.723636 101.28125,289.125977 C102.511725,288.528317 103.49609,287.684576 104.234375,286.594727 C104.97266,285.504877 105.521971,284.252448 105.882324,282.837402 C106.242678,281.422356 106.422852,279.853524 106.422852,278.130859 C106.422852,269.535113 103.258821,265.237305 96.9306641,265.237305 C95.436516,265.237305 94.1181698,265.593258 92.9755859,266.305176 C91.8330021,267.017093 90.9321322,267.975092 90.2729492,269.179199 C89.6137662,270.383307 89.1259781,271.692864 88.8095703,273.10791 C88.4931625,274.522956 88.3349609,276.012687 88.3349609,277.577148 C88.3349609,278.930671 88.4316397,280.200678 88.625,281.387207 C88.8183603,282.573736 89.1347634,283.70312 89.5742188,284.775391 C90.0136741,285.847662 90.5585905,286.766109 91.2089844,287.530762 C91.8593783,288.295414 92.6767529,288.901853 93.6611328,289.350098 C94.6455127,289.798342 95.7529235,290.022461 96.9833984,290.022461 Z M139.750977,281.716797 L139.750977,278.816406 L164.536133,278.816406 L164.536133,281.716797 L139.750977,281.716797 Z M139.724609,270.141602 L139.724609,267.188477 L164.5625,267.188477 L164.5625,270.141602 L139.724609,270.141602 Z M194.700195,298.960938 L194.700195,252.080078 L206.512695,252.080078 L206.512695,254.716797 L198.286133,254.716797 L198.286133,296.324219 L206.512695,296.324219 L206.512695,298.960938 L194.700195,298.960938 Z M238.522461,292 L238.522461,256.246094 C237.959958,256.650393 237.067877,257.151364 235.846191,257.749023 C234.624506,258.346683 233.407233,258.856443 232.194336,259.27832 L232.194336,256.430664 C235.885761,254.725577 238.197261,253.50391 239.128906,252.765625 L241.897461,252.765625 L241.897461,292 L238.522461,292 Z M254.479531,299.250977 L256.588906,285.803711 L259.990273,285.803711 L259.990273,286.884766 C259.269567,290.013688 258.065477,294.135717 256.377969,299.250977 L254.479531,299.250977 Z M287.949336,292 L287.15832,288.651367 L300.842891,272.725586 C302.635868,270.598622 303.971792,268.748543 304.850703,267.175293 C305.729614,265.602043 306.169062,264.068367 306.169062,262.574219 C306.169062,260.078113 305.580201,258.166511 304.402461,256.839355 C303.224721,255.5122 301.466926,254.848633 299.129023,254.848633 C297.459093,254.848633 295.819949,255.099119 294.211543,255.600098 C292.603136,256.101077 291.289185,256.834956 290.269648,257.801758 L289.030391,255.244141 C291.227667,253.134755 294.637789,252.080078 299.260859,252.080078 C302.618298,252.080078 305.268174,253.00292 307.210566,254.848633 C309.152959,256.694345 310.124141,259.120102 310.124141,262.125977 C310.124141,264.147471 309.609986,266.138174 308.58166,268.098145 C307.553335,270.058115 305.861457,272.400377 303.505977,275.125 L291.640742,288.756836 L310.440547,288.756836 L310.229609,292 L287.949336,292 Z M322.020664,299.250977 L324.130039,285.803711 L327.531406,285.803711 L327.531406,286.884766 C326.8107,290.013688 325.60661,294.135717 323.919102,299.250977 L322.020664,299.250977 Z M366.037344,292.606445 C363.734598,292.606445 361.677978,292.290042 359.867422,291.657227 C358.056866,291.024411 356.808832,290.382816 356.123281,289.732422 L357.362539,287.016602 C359.753176,288.879892 362.539281,289.811523 365.720937,289.811523 C368.515873,289.811523 370.735089,289.077644 372.378652,287.609863 C374.022215,286.142083 374.843984,284.054701 374.843984,281.347656 C374.843984,279.958977 374.641838,278.741704 374.237539,277.695801 C373.83324,276.649897 373.292718,275.806156 372.615957,275.164551 C371.939196,274.522946 371.086665,273.991213 370.05834,273.569336 C369.030014,273.147459 367.975337,272.853028 366.894277,272.686035 C365.813217,272.519042 364.578366,272.40918 363.189687,272.356445 L361.660391,272.356445 L361.660391,269.40332 L362.820547,269.40332 C363.804927,269.368164 364.697008,269.302247 365.496816,269.205566 C366.296625,269.108886 367.140367,268.959474 368.028066,268.757324 C368.915766,268.555175 369.684801,268.269533 370.335195,267.900391 C370.985589,267.531248 371.583239,267.078616 372.128164,266.54248 C372.673089,266.006345 373.08617,265.333988 373.367422,264.525391 C373.648673,263.716793 373.789297,262.79395 373.789297,261.756836 C373.789297,257.151344 371.222916,254.848633 366.090078,254.848633 C364.332257,254.848633 362.67993,255.099119 361.133047,255.600098 C359.586164,256.101077 358.329341,256.791011 357.362539,257.669922 L356.149648,254.927734 C358.39966,252.994131 362.020717,252.027344 367.01293,252.027344 C368.278561,252.027344 369.495834,252.216307 370.664785,252.594238 C371.833736,252.97217 372.897202,253.521481 373.855215,254.242188 C374.813227,254.962894 375.577868,255.929681 376.14916,257.142578 C376.720452,258.355475 377.006094,259.726555 377.006094,261.255859 C377.006094,266.230494 374.712171,269.412102 370.124258,270.800781 C375.450456,272.171882 378.15746,275.634738 378.245352,281.189453 C378.298086,284.582048 377.19507,287.332997 374.93627,289.442383 C372.677469,291.551768 369.71119,292.606445 366.037344,292.606445 Z M388.797148,299.250977 L390.906523,285.803711 L394.307891,285.803711 L394.307891,286.884766 C393.587184,290.013688 392.383094,294.135717 390.695586,299.250977 L388.797148,299.250977 Z M439.8275,292 L439.8275,281.400391 L421.845078,281.400391 L421.845078,277.814453 L439.932969,251.895508 L443.097031,251.895508 L443.097031,278.5 L448.001328,278.5 L447.60582,281.400391 L443.097031,281.400391 L443.097031,292 L439.8275,292 Z M425.457383,278.5 L439.8275,278.5 L439.8275,257.353516 L425.457383,278.5 Z M457.603906,299.250977 L459.713281,285.803711 L463.114648,285.803711 L463.114648,286.884766 C462.393942,290.013688 461.189852,294.135717 459.502344,299.250977 L457.603906,299.250977 Z M508.634258,292 L508.634258,281.400391 L490.651836,281.400391 L490.651836,277.814453 L508.739727,251.895508 L511.903789,251.895508 L511.903789,278.5 L516.808086,278.5 L516.412578,281.400391 L511.903789,281.400391 L511.903789,292 L508.634258,292 Z M494.264141,278.5 L508.634258,278.5 L508.634258,257.353516 L494.264141,278.5 Z M526.410664,299.250977 L528.520039,285.803711 L531.921406,285.803711 L531.921406,286.884766 C531.2007,290.013688 529.99661,294.135717 528.309102,299.250977 L526.410664,299.250977 Z M579.441016,292 L579.441016,281.400391 L561.458594,281.400391 L561.458594,277.814453 L579.546484,251.895508 L582.710547,251.895508 L582.710547,278.5 L587.614844,278.5 L587.219336,281.400391 L582.710547,281.400391 L582.710547,292 L579.441016,292 Z M565.070898,278.5 L579.441016,278.5 L579.441016,257.353516 L565.070898,278.5 Z M597.217422,299.250977 L599.326797,285.803711 L602.728164,285.803711 L602.728164,286.884766 C602.007457,290.013688 600.803368,294.135717 599.115859,299.250977 L597.217422,299.250977 Z M645.132539,292.606445 C643.181357,292.606445 641.388407,292.241703 639.753633,291.512207 C638.118859,290.782711 636.774146,289.807135 635.719453,288.585449 C634.66476,287.363763 633.847386,285.970711 633.267305,284.40625 C632.687224,282.841789 632.397187,281.215829 632.397187,279.52832 C632.397187,278.754879 632.441132,278.042972 632.529023,277.392578 C632.616915,276.742184 632.722382,276.135745 632.84543,275.573242 C632.968477,275.010739 633.210174,274.369144 633.570527,273.648438 C633.930881,272.927731 634.256073,272.294925 634.546113,271.75 C634.836154,271.205075 635.332731,270.431646 636.035859,269.429688 C636.738988,268.427729 637.358611,267.557621 637.894746,266.819336 C638.430882,266.081051 639.252651,264.97364 640.360078,263.49707 C641.256567,262.372065 642.478234,260.917489 644.025117,259.133301 C645.572,257.349112 646.890346,255.841803 647.980195,254.611328 L649.641328,252.765625 L653.253633,252.765625 L639.410859,269.614258 C640.465552,268.99902 641.529018,268.550783 642.601289,268.269531 C643.67356,267.98828 644.886439,267.847656 646.239961,267.847656 C647.751687,267.847656 649.210657,268.168454 650.616914,268.810059 C652.023171,269.451663 653.253628,270.317377 654.30832,271.407227 C655.363013,272.497076 656.206755,273.819816 656.83957,275.375488 C657.472386,276.93116 657.788789,278.570304 657.788789,280.292969 C657.788789,283.685564 656.593489,286.585925 654.202852,288.994141 C651.812215,291.402356 648.788807,292.606445 645.132539,292.606445 Z M645.079805,289.679688 C647.822006,289.679688 650.0588,288.743662 651.790254,286.871582 C653.521708,284.999502 654.387422,282.815442 654.387422,280.319336 C654.387422,278.579093 654.035863,276.979499 653.332734,275.520508 C652.629606,274.061516 651.570534,272.87061 650.155488,271.947754 C648.740442,271.024898 647.092509,270.563477 645.211641,270.563477 C643.699914,270.563477 642.342018,270.822751 641.13791,271.341309 C639.933803,271.859866 638.953832,272.562984 638.197969,273.450684 C637.442106,274.338383 636.866428,275.357904 636.470918,276.509277 C636.075408,277.66065 635.877656,278.886712 635.877656,280.1875 C635.877656,281.36524 636.092986,282.52099 636.523652,283.654785 C636.954319,284.78858 637.551969,285.803706 638.316621,286.700195 C639.081273,287.596684 640.052455,288.31738 641.230195,288.862305 C642.407936,289.407229 643.691126,289.679688 645.079805,289.679688 Z M668.129648,299.250977 L670.239023,285.803711 L673.640391,285.803711 L673.640391,286.884766 C672.919684,290.013688 671.715594,294.135717 670.028086,299.250977 L668.129648,299.250977 Z M714.044766,292.606445 C712.093584,292.606445 710.300633,292.241703 708.665859,291.512207 C707.031086,290.782711 705.686372,289.807135 704.63168,288.585449 C703.576987,287.363763 702.759612,285.970711 702.179531,284.40625 C701.59945,282.841789 701.309414,281.215829 701.309414,279.52832 C701.309414,278.754879 701.353359,278.042972 701.44125,277.392578 C701.529141,276.742184 701.634609,276.135745 701.757656,275.573242 C701.880704,275.010739 702.122401,274.369144 702.482754,273.648438 C702.843107,272.927731 703.168299,272.294925 703.45834,271.75 C703.74838,271.205075 704.244957,270.431646 704.948086,269.429688 C705.651214,268.427729 706.270837,267.557621 706.806973,266.819336 C707.343108,266.081051 708.164877,264.97364 709.272305,263.49707 C710.168794,262.372065 711.390461,260.917489 712.937344,259.133301 C714.484226,257.349112 715.802573,255.841803 716.892422,254.611328 L718.553555,252.765625 L722.165859,252.765625 L708.323086,269.614258 C709.377779,268.99902 710.441245,268.550783 711.513516,268.269531 C712.585787,267.98828 713.798665,267.847656 715.152187,267.847656 C716.663914,267.847656 718.122884,268.168454 719.529141,268.810059 C720.935398,269.451663 722.165854,270.317377 723.220547,271.407227 C724.27524,272.497076 725.118981,273.819816 725.751797,275.375488 C726.384613,276.93116 726.701016,278.570304 726.701016,280.292969 C726.701016,283.685564 725.505715,286.585925 723.115078,288.994141 C720.724441,291.402356 717.701034,292.606445 714.044766,292.606445 Z M713.992031,289.679688 C716.734232,289.679688 718.971026,288.743662 720.70248,286.871582 C722.433934,284.999502 723.299648,282.815442 723.299648,280.319336 C723.299648,278.579093 722.948089,276.979499 722.244961,275.520508 C721.541832,274.061516 720.482761,272.87061 719.067715,271.947754 C717.652669,271.024898 716.004736,270.563477 714.123867,270.563477 C712.612141,270.563477 711.254244,270.822751 710.050137,271.341309 C708.846029,271.859866 707.866058,272.562984 707.110195,273.450684 C706.354332,274.338383 705.778654,275.357904 705.383145,276.509277 C704.987635,277.66065 704.789883,278.886712 704.789883,280.1875 C704.789883,281.36524 705.005213,282.52099 705.435879,283.654785 C705.866545,284.78858 706.464195,285.803706 707.228848,286.700195 C707.9935,287.596684 708.964682,288.31738 710.142422,288.862305 C711.320162,289.407229 712.603352,289.679688 713.992031,289.679688 Z M737.041875,299.250977 L739.15125,285.803711 L742.552617,285.803711 L742.552617,286.884766 C741.83191,290.013688 740.627821,294.135717 738.940312,299.250977 L737.041875,299.250977 Z M774.308555,292 L788.573203,255.692383 L770.089805,255.692383 L770.485313,252.765625 L791.447227,252.765625 L791.869102,256.008789 L777.947227,292 L774.308555,292 Z M802.341797,299.250977 L804.451172,285.803711 L807.852539,285.803711 L807.852539,286.884766 C807.131832,290.013688 805.927743,294.135717 804.240234,299.250977 L802.341797,299.250977 Z M848.177813,292.606445 C845.83991,292.606445 843.726162,292.206547 841.836504,291.406738 C839.946846,290.60693 838.421959,289.380868 837.261797,287.728516 C836.101635,286.076164 835.521563,284.125011 835.521563,281.875 C835.521563,279.291003 836.321359,277.001475 837.920977,275.006348 C839.520594,273.01122 841.752993,271.618168 844.618242,270.827148 C841.98151,270.106442 839.946863,268.985847 838.514238,267.465332 C837.081614,265.944817 836.365312,264.068371 836.365313,261.835938 C836.365312,258.847641 837.455145,256.474618 839.634844,254.716797 C841.814542,252.958976 844.670959,252.080078 848.20418,252.080078 C851.684666,252.080078 854.492743,252.954581 856.628496,254.703613 C858.764249,256.452645 859.832109,258.830063 859.832109,261.835938 C859.832109,264.068371 859.146569,265.944817 857.775469,267.465332 C856.404368,268.985847 854.488372,270.106442 852.027422,270.827148 C854.716888,271.618168 856.835031,273.01122 858.381914,275.006348 C859.928797,277.001475 860.702227,279.291003 860.702227,281.875 C860.702227,283.562508 860.37264,285.096185 859.713457,286.476074 C859.054274,287.855964 858.157799,288.985347 857.024004,289.864258 C855.890209,290.743168 854.567468,291.41992 853.055742,291.894531 C851.544016,292.369143 849.918056,292.606445 848.177813,292.606445 Z M848.177813,289.837891 C850.744232,289.837891 852.879952,289.125984 854.585039,287.702148 C856.290126,286.278313 857.142656,284.388684 857.142656,282.033203 C857.142656,279.50194 856.334071,277.40577 854.716875,275.744629 C853.099679,274.083488 850.920014,272.91016 848.177813,272.224609 C845.435611,272.927738 843.233973,274.109855 841.572832,275.770996 C839.911691,277.432137 839.081133,279.51073 839.081133,282.006836 C839.081133,284.362316 839.951241,286.25634 841.691484,287.688965 C843.431727,289.121589 845.593815,289.837891 848.177813,289.837891 Z M848.177813,269.429688 C853.644637,268.357417 856.378008,265.808614 856.378008,261.783203 C856.378008,259.585927 855.578211,257.889654 853.978594,256.694336 C852.378976,255.499017 850.445402,254.901367 848.177813,254.901367 C845.892645,254.901367 843.937098,255.503412 842.311113,256.70752 C840.685129,257.911627 839.872148,259.603505 839.872148,261.783203 C839.872148,265.773457 842.640675,268.32226 848.177813,269.429688 Z M871.254023,299.250977 L873.363398,285.803711 L876.764766,285.803711 L876.764766,286.884766 C876.044059,290.013688 874.839969,294.135717 873.152461,299.250977 L871.254023,299.250977 Z M917.090039,292.606445 C914.752137,292.606445 912.638388,292.206547 910.74873,291.406738 C908.859073,290.60693 907.334185,289.380868 906.174023,287.728516 C905.013861,286.076164 904.433789,284.125011 904.433789,281.875 C904.433789,279.291003 905.233586,277.001475 906.833203,275.006348 C908.43282,273.01122 910.66522,271.618168 913.530469,270.827148 C910.893737,270.106442 908.859089,268.985847 907.426465,267.465332 C905.99384,265.944817 905.277539,264.068371 905.277539,261.835938 C905.277539,258.847641 906.367372,256.474618 908.54707,254.716797 C910.726769,252.958976 913.583185,252.080078 917.116406,252.080078 C920.596892,252.080078 923.40497,252.954581 925.540723,254.703613 C927.676476,256.452645 928.744336,258.830063 928.744336,261.835938 C928.744336,264.068371 928.058796,265.944817 926.687695,267.465332 C925.316595,268.985847 923.400598,270.106442 920.939648,270.827148 C923.629115,271.618168 925.747258,273.01122 927.294141,275.006348 C928.841023,277.001475 929.614453,279.291003 929.614453,281.875 C929.614453,283.562508 929.284867,285.096185 928.625684,286.476074 C927.966501,287.855964 927.070025,288.985347 925.93623,289.864258 C924.802436,290.743168 923.479695,291.41992 921.967969,291.894531 C920.456242,292.369143 918.830282,292.606445 917.090039,292.606445 Z M917.090039,289.837891 C919.656458,289.837891 921.792179,289.125984 923.497266,287.702148 C925.202352,286.278313 926.054883,284.388684 926.054883,282.033203 C926.054883,279.50194 925.246297,277.40577 923.629102,275.744629 C922.011906,274.083488 919.83224,272.91016 917.090039,272.224609 C914.347838,272.927738 912.1462,274.109855 910.485059,275.770996 C908.823917,277.432137 907.993359,279.51073 907.993359,282.006836 C907.993359,284.362316 908.863468,286.25634 910.603711,287.688965 C912.343954,289.121589 914.506042,289.837891 917.090039,289.837891 Z M917.090039,269.429688 C922.556863,268.357417 925.290234,265.808614 925.290234,261.783203 C925.290234,259.585927 924.490438,257.889654 922.89082,256.694336 C921.291203,255.499017 919.357629,254.901367 917.090039,254.901367 C914.804871,254.901367 912.849325,255.503412 911.22334,256.70752 C909.597355,257.911627 908.784375,259.603505 908.784375,261.783203 C908.784375,265.773457 911.552902,268.32226 917.090039,269.429688 Z M956.461172,298.960938 L956.461172,296.324219 L964.687734,296.324219 L964.687734,254.716797 L956.461172,254.716797 L956.461172,252.080078 L968.273672,252.080078 L968.273672,298.960938 L956.461172,298.960938 Z" id="d-=-[-1,-2,-3,-4,-4," fill="#FFFFFF"></path>
            <path d="M341.105469,96.0292969 L337.453125,96.0292969 L337.453125,104 L333.84375,104 L333.84375,96.0292969 L319.320312,96.0292969 L319.320312,92.7421875 L333.435547,71.859375 L337.453125,71.859375 L337.453125,92.9140625 L341.40625,92.9140625 L341.105469,96.0292969 Z M333.84375,76.7363281 L323.101562,92.9140625 L333.84375,92.9140625 L333.84375,76.7363281 Z M359.130859,104.494141 C357.225902,104.494141 355.557299,104.0752 354.125,103.237305 C352.692701,102.39941 351.543299,101.221362 350.676758,99.703125 C349.810217,98.1848882 349.165692,96.4375099 348.743164,94.4609375 C348.320636,92.4843651 348.109375,90.2858194 348.109375,87.8652344 C348.109375,85.874339 348.249022,84.0338626 348.52832,82.34375 C348.807619,80.6536374 349.240882,79.1211006 349.828125,77.7460938 C350.415368,76.3710869 351.142248,75.2037808 352.008789,74.2441406 C352.87533,73.2845004 353.91015,72.5432969 355.113281,72.0205078 C356.316412,71.4977187 357.655592,71.2363281 359.130859,71.2363281 C360.964202,71.2363281 362.586256,71.6373658 363.99707,72.4394531 C365.407885,73.2415405 366.553707,74.3837817 367.43457,75.8662109 C368.315434,77.3486402 368.977862,79.0960186 369.421875,81.1083984 C369.865888,83.1207783 370.087891,85.3730344 370.087891,87.8652344 C370.087891,90.2858194 369.88021,92.4843651 369.464844,94.4609375 C369.049477,96.4375099 368.412114,98.1848882 367.552734,99.703125 C366.693355,101.221362 365.551114,102.39941 364.125977,103.237305 C362.700839,104.0752 361.035817,104.494141 359.130859,104.494141 Z M359.130859,74.5019531 C357.669915,74.5019531 356.416672,75.0784448 355.371094,76.2314453 C354.325516,77.3844459 353.541344,78.9456282 353.018555,80.9150391 C352.495766,82.88445 352.234375,85.1581902 352.234375,87.7363281 C352.234375,90.357435 352.495766,92.6741436 353.018555,94.6865234 C353.541344,96.6989033 354.325516,98.2923118 355.371094,99.4667969 C356.416672,100.641282 357.669915,101.228516 359.130859,101.228516 C360.591804,101.228516 361.845047,100.641282 362.890625,99.4667969 C363.936203,98.2923118 364.720375,96.6989033 365.243164,94.6865234 C365.765953,92.6741436 366.027344,90.357435 366.027344,87.7363281 C366.027344,85.1581902 365.765953,82.88445 365.243164,80.9150391 C364.720375,78.9456282 363.936203,77.3844459 362.890625,76.2314453 C361.845047,75.0784448 360.591804,74.5019531 359.130859,74.5019531 Z M388.84375,104 L385.105469,104 L385.105469,75.5117188 L375.330078,75.5117188 L375.330078,72.2246094 L398.619141,72.2246094 L398.619141,75.5117188 L388.84375,75.5117188 L388.84375,104 Z M429.771484,104 L426.054688,104 L426.054688,89.1328125 L408.996094,89.1328125 L408.996094,104 L405.279297,104 L405.279297,72.2246094 L408.996094,72.2246094 L408.996094,85.8671875 L426.054688,85.8671875 L426.054688,72.2246094 L429.771484,72.2246094 L429.771484,104 Z M456.927734,104 L453.125,104 L453.125,71.859375 L463.480469,71.859375 C465.055997,71.859375 466.481113,72.0240869 467.755859,72.3535156 C469.030605,72.6829444 470.162104,73.1842414 471.150391,73.8574219 C472.138677,74.5306023 472.904945,75.4329371 473.449219,76.5644531 C473.993492,77.6959692 474.265625,79.0136644 474.265625,80.5175781 C474.265625,81.7636781 474.151043,82.8772737 473.921875,83.8583984 C473.692707,84.8395231 473.298831,85.7597613 472.740234,86.6191406 C472.181638,87.4785199 471.451176,88.1910779 470.548828,88.7568359 C469.64648,89.322594 468.489916,89.7666 467.079102,90.0888672 C465.668287,90.4111344 464.03191,90.5722656 462.169922,90.5722656 C460.694654,90.5722656 458.947276,90.4791676 456.927734,90.2929688 L456.927734,104 Z M462.535156,87.2851562 C463.938809,87.2851562 465.141922,87.1490899 466.144531,86.8769531 C467.14714,86.6048163 467.91699,86.2682312 468.454102,85.8671875 C468.991214,85.4661438 469.413735,84.9433626 469.72168,84.2988281 C470.029624,83.6542937 470.219401,83.0634792 470.291016,82.5263672 C470.362631,81.9892551 470.398438,81.3411496 470.398438,80.5820312 C470.398438,78.7630117 469.786139,77.4238324 468.561523,76.5644531 C467.336908,75.7050738 465.671886,75.2753906 463.566406,75.2753906 L456.927734,75.2753906 L456.927734,87.2421875 C459.692071,87.2708335 461.561193,87.2851562 462.535156,87.2851562 Z M481.376953,104 L481.376953,72.2246094 L499.595703,72.2246094 L499.445312,75.5117188 L485.09375,75.5117188 L485.09375,85.9101562 L498.736328,85.9101562 L498.736328,89.1542969 L485.09375,89.1542969 L485.09375,100.712891 L499.917969,100.712891 L499.746094,104 L481.376953,104 Z M511.90625,75.1894531 L511.90625,85.9316406 C512.493493,85.9316406 513.707348,85.9459634 515.547852,85.9746094 C517.388356,86.0032554 518.809891,86.0175781 519.8125,86.0175781 C522.548191,86.0175781 524.45312,85.5628301 525.527344,84.6533203 C526.601568,83.7438106 527.138672,82.3007911 527.138672,80.3242188 C527.138672,78.5911372 526.623052,77.3020876 525.591797,76.4570312 C524.560542,75.6119749 522.834648,75.1894531 520.414062,75.1894531 L511.90625,75.1894531 Z M532.273438,104 L527.976562,104 L523.59375,94.03125 C522.404942,91.3528512 521.645835,89.7415392 521.316406,89.1972656 C520.270828,89.2688806 519.031908,89.3046875 517.599609,89.3046875 L511.90625,89.1328125 L511.90625,104 L508.103516,104 L508.103516,71.859375 L518.265625,71.859375 C519.44011,71.859375 520.478511,71.8880205 521.380859,71.9453125 C522.283208,72.0026045 523.181962,72.1064446 524.077148,72.2568359 C524.972335,72.4072273 525.749346,72.6149075 526.408203,72.8798828 C527.067061,73.1448581 527.68294,73.4886047 528.255859,73.9111328 C528.828779,74.333661 529.290688,74.8385387 529.641602,75.4257812 C529.992515,76.0130238 530.268228,76.711259 530.46875,77.5205078 C530.669272,78.3297567 530.769531,79.2428335 530.769531,80.2597656 C530.769531,82.264984 530.243169,83.9908782 529.19043,85.4375 C528.13769,86.8841218 526.644541,87.886716 524.710938,88.4453125 C524.710938,88.4739585 524.854165,88.7317684 525.140625,89.21875 C525.427085,89.7057316 525.767251,90.3037074 526.161133,91.0126953 C526.555015,91.7216832 526.859374,92.3124976 527.074219,92.7851562 L532.273438,104 Z M554.144531,74.953125 C551.752592,74.953125 549.693694,75.5331973 547.967773,76.6933594 C546.241853,77.8535214 544.956384,79.4147037 544.111328,81.3769531 C543.266272,83.3392025 542.84375,85.5950393 542.84375,88.1445312 C542.84375,90.0494887 543.072914,91.786125 543.53125,93.3544922 C543.989586,94.9228594 544.677079,96.2978457 545.59375,97.4794922 C546.510421,98.6611387 547.702792,99.5777962 549.170898,100.229492 C550.639005,100.881188 552.325511,101.207031 554.230469,101.207031 C556.6797,101.207031 559.214831,100.569668 561.835938,99.2949219 L562.458984,102.453125 C560.324859,103.799486 557.43882,104.472656 553.800781,104.472656 C551.408842,104.472656 549.264007,104.075199 547.366211,103.280273 C545.468415,102.485348 543.900071,101.36101 542.661133,99.9072266 C541.422194,98.4534433 540.480472,96.7203877 539.835938,94.7080078 C539.191403,92.695628 538.869141,90.4576946 538.869141,87.9941406 C538.869141,85.6165246 539.220049,83.4251402 539.921875,81.4199219 C540.623701,79.4147035 541.615553,77.69239 542.897461,76.2529297 C544.179368,74.8134694 545.779938,73.6927123 547.699219,72.890625 C549.618499,72.0885377 551.752592,71.6875 554.101562,71.6875 C557.667987,71.6875 560.675769,72.4752525 563.125,74.0507812 L561.664062,77.0800781 C559.315092,75.6621023 556.808607,74.953125 554.144531,74.953125 Z M570.666016,104 L570.666016,72.2246094 L588.884766,72.2246094 L588.734375,75.5117188 L574.382812,75.5117188 L574.382812,85.9101562 L588.025391,85.9101562 L588.025391,89.1542969 L574.382812,89.1542969 L574.382812,100.712891 L589.207031,100.712891 L589.035156,104 L570.666016,104 Z M623.066406,104 L618.855469,104 L602.355469,78.9921875 L601.28125,77.5097656 C601.395834,80.5175932 601.453125,83.2031132 601.453125,85.5664062 L601.453125,104 L597.972656,104 L597.972656,72.2246094 L602.119141,72.2246094 L618.662109,97.2324219 L619.757812,98.7148438 C619.657552,94.1458105 619.607422,91.5032588 619.607422,90.7871094 L619.607422,72.2246094 L623.066406,72.2246094 L623.066406,104 Z M643.21875,104 L639.480469,104 L639.480469,75.5117188 L629.705078,75.5117188 L629.705078,72.2246094 L652.994141,72.2246094 L652.994141,75.5117188 L643.21875,75.5117188 L643.21875,104 Z M663.542969,104 L659.826172,104 L659.826172,72.2246094 L663.542969,72.2246094 L663.542969,104 Z M674.005859,104 L674.005859,72.2246094 L677.744141,72.2246094 L677.744141,100.691406 L691.730469,100.691406 L691.601562,104 L674.005859,104 Z M698.691406,104 L698.691406,72.2246094 L716.910156,72.2246094 L716.759766,75.5117188 L702.408203,75.5117188 L702.408203,85.9101562 L716.050781,85.9101562 L716.050781,89.1542969 L702.408203,89.1542969 L702.408203,100.712891 L717.232422,100.712891 L717.060547,104 L698.691406,104 Z" id="40TH-PERCENTILE" fill="#FFFFFF"></path>
            <polyline id="Stroke-11" stroke="#52B1DB" stroke-width="2" points="465 329 465 348 227 348 227 329"></polyline>
            <polyline id="Stroke-11-Copy" stroke="#52B1DB" stroke-width="2" points="941 329 941 348 563 348 563 329"></polyline>
            <path d="M346,368 L346,348" id="Stroke-12" stroke="#52B1DB"></path>
            <path d="M752,368 L752,348" id="Stroke-12-Copy" stroke="#52B1DB"></path>
            <path d="M328.248047,408 L328.248047,401.326172 L316.925781,401.326172 L316.925781,399.068359 L328.314453,382.749023 L330.306641,382.749023 L330.306641,399.5 L333.394531,399.5 L333.145508,401.326172 L330.306641,401.326172 L330.306641,408 L328.248047,408 Z M319.200195,399.5 L328.248047,399.5 L328.248047,386.185547 L319.200195,399.5 Z M346.341979,406.489258 C348.035347,406.489258 349.402195,405.473806 350.442565,403.442871 C351.482935,401.411936 352.003112,398.681007 352.003112,395.25 C352.003112,391.8854 351.482935,389.204274 350.442565,387.206543 C349.402195,385.208812 348.040881,384.209961 346.358581,384.209961 C344.665213,384.209961 343.298365,385.211579 342.257995,387.214844 C341.217625,389.218109 340.702982,391.907535 340.714049,395.283203 C340.714049,398.71421 341.23146,401.439606 342.266296,403.459473 C343.301131,405.47934 344.659679,406.489258 346.341979,406.489258 Z M346.358581,408.398438 C344.964042,408.398438 343.735539,408.083011 342.673034,407.452148 C341.610529,406.821286 340.750023,405.922044 340.091491,404.754395 C339.432959,403.586745 338.940451,402.21713 338.613952,400.645508 C338.287453,399.073885 338.124206,397.30307 338.124206,395.333008 C338.124206,391.182596 338.829765,387.972993 340.240905,385.704102 C341.652045,383.43521 343.69125,382.300781 346.358581,382.300781 C349.025912,382.300781 351.054049,383.432443 352.443053,385.695801 C353.832058,387.959158 354.526549,391.171529 354.526549,395.333008 C354.526549,397.30307 354.366069,399.073885 354.045104,400.645508 C353.724139,402.21713 353.237165,403.586745 352.584167,404.754395 C351.931169,405.922044 351.078964,406.821286 350.027526,407.452148 C348.976088,408.083011 347.753119,408.398438 346.358581,408.398438 Z M358.293333,408.614258 L377.650755,382.81543 L380.207396,382.81543 L360.866575,408.614258 L358.293333,408.614258 Z M363.240599,395.714844 C361.680044,395.714844 360.432173,395.15593 359.496947,394.038086 C358.561721,392.920242 358.094115,391.426116 358.094115,389.555664 C358.094115,387.674144 358.564487,386.182785 359.505247,385.081543 C360.446007,383.9803 361.718781,383.429688 363.323607,383.429688 C364.917365,383.429688 366.184605,383.9803 367.125365,385.081543 C368.066124,386.182785 368.536497,387.66861 368.536497,389.539062 C368.536497,391.453786 368.066124,392.961746 367.125365,394.062988 C366.184605,395.164231 364.889696,395.714844 363.240599,395.714844 Z M363.290404,394.071289 C365.149788,394.071289 366.079466,392.560562 366.079466,389.539062 C366.079466,388.177728 365.830445,387.090336 365.332396,386.276855 C364.834346,385.463375 364.164757,385.056641 363.323607,385.056641 C362.471389,385.056641 361.796265,385.463375 361.298216,386.276855 C360.800167,387.090336 360.551146,388.183261 360.551146,389.555664 C360.551146,390.928067 360.800167,392.023759 361.298216,392.842773 C361.796265,393.661788 362.460321,394.071289 363.290404,394.071289 Z M375.127318,408 C373.555695,408 372.305057,407.443853 371.375365,406.331543 C370.445672,405.219233 369.980833,403.727874 369.980833,401.857422 C369.980833,399.975902 370.451206,398.481776 371.391966,397.375 C372.332726,396.268224 373.599966,395.714844 375.193724,395.714844 C376.787482,395.714844 378.057489,396.265457 379.003783,397.366699 C379.950076,398.467942 380.423216,399.953767 380.423216,401.824219 C380.423216,403.75001 379.952843,405.260737 379.012083,406.356445 C378.071323,407.452154 376.776414,408 375.127318,408 Z M375.160521,406.356445 C377.030973,406.356445 377.966185,404.845718 377.966185,401.824219 C377.966185,400.462884 377.714397,399.375492 377.210814,398.562012 C376.707231,397.748531 376.034874,397.341797 375.193724,397.341797 C374.352574,397.341797 373.682984,397.748531 373.184935,398.562012 C372.686885,399.375492 372.437865,400.473951 372.437865,401.857422 C372.437865,403.218757 372.684119,404.308915 373.176634,405.12793 C373.66915,405.946944 374.330439,406.356445 375.160521,406.356445 Z" id="40%" fill="#52B1DB"></path>
            <path d="M726.027344,408.381836 C724.798822,408.381836 723.669927,408.152183 722.640625,407.692871 C721.611323,407.233559 720.764652,406.619307 720.100586,405.850098 C719.43652,405.080888 718.921877,404.203781 718.556641,403.21875 C718.191404,402.233719 718.008789,401.209966 718.008789,400.147461 C718.008789,399.660479 718.036458,399.212242 718.091797,398.802734 C718.147136,398.393227 718.213541,398.011395 718.291016,397.657227 C718.36849,397.303058 718.520669,396.899091 718.747559,396.445312 C718.974448,395.991534 719.179198,395.593101 719.361816,395.25 C719.544435,394.906899 719.857094,394.419925 720.299805,393.789062 C720.742515,393.1582 721.132648,392.610354 721.470215,392.145508 C721.807782,391.680662 722.325192,390.983403 723.022461,390.053711 C723.586917,389.345374 724.356115,388.42953 725.330078,387.306152 C726.304041,386.182774 727.134111,385.233728 727.820312,384.458984 L728.866211,383.296875 L731.140625,383.296875 L722.424805,393.905273 C723.088871,393.517902 723.75846,393.235678 724.433594,393.058594 C725.108727,392.88151 725.872392,392.792969 726.724609,392.792969 C727.676437,392.792969 728.595048,392.994952 729.480469,393.398926 C730.36589,393.802899 731.140622,394.347978 731.804688,395.03418 C732.468753,395.720381 732.999998,396.553218 733.398438,397.532715 C733.796877,398.512212 733.996094,399.544265 733.996094,400.628906 C733.996094,402.764985 733.243497,404.591138 731.738281,406.107422 C730.233065,407.623705 728.329439,408.381836 726.027344,408.381836 Z M725.994141,406.539062 C727.720712,406.539062 729.129064,405.949713 730.219238,404.770996 C731.309413,403.592279 731.854492,402.21713 731.854492,400.645508 C731.854492,399.549799 731.63314,398.542648 731.19043,397.624023 C730.747719,396.705399 730.080896,395.955569 729.189941,395.374512 C728.298986,394.793454 727.261399,394.50293 726.077148,394.50293 C725.125321,394.50293 724.270349,394.666177 723.512207,394.992676 C722.754065,395.319175 722.137047,395.761879 721.661133,396.320801 C721.185219,396.879723 720.822755,397.521644 720.57373,398.246582 C720.324706,398.971521 720.200195,399.743485 720.200195,400.5625 C720.200195,401.30404 720.335773,402.031735 720.606934,402.745605 C720.878094,403.459476 721.254392,404.09863 721.73584,404.663086 C722.217288,405.227542 722.828772,405.681313 723.570312,406.024414 C724.311853,406.367515 725.119787,406.539062 725.994141,406.539062 Z M747.408385,406.489258 C749.101753,406.489258 750.468602,405.473806 751.508971,403.442871 C752.549341,401.411936 753.069518,398.681007 753.069518,395.25 C753.069518,391.8854 752.549341,389.204274 751.508971,387.206543 C750.468602,385.208812 749.107287,384.209961 747.424987,384.209961 C745.731619,384.209961 744.364771,385.211579 743.324401,387.214844 C742.284031,389.218109 741.769388,391.907535 741.780456,395.283203 C741.780456,398.71421 742.297866,401.439606 743.332702,403.459473 C744.367538,405.47934 745.726085,406.489258 747.408385,406.489258 Z M747.424987,408.398438 C746.030449,408.398438 744.801945,408.083011 743.73944,407.452148 C742.676935,406.821286 741.816429,405.922044 741.157897,404.754395 C740.499365,403.586745 740.006857,402.21713 739.680358,400.645508 C739.353859,399.073885 739.190612,397.30307 739.190612,395.333008 C739.190612,391.182596 739.896171,387.972993 741.307311,385.704102 C742.718451,383.43521 744.757656,382.300781 747.424987,382.300781 C750.092318,382.300781 752.120455,383.432443 753.50946,385.695801 C754.898464,387.959158 755.592956,391.171529 755.592956,395.333008 C755.592956,397.30307 755.432476,399.073885 755.11151,400.645508 C754.790545,402.21713 754.303571,403.586745 753.650573,404.754395 C752.997575,405.922044 752.14537,406.821286 751.093932,407.452148 C750.042495,408.083011 748.819525,408.398438 747.424987,408.398438 Z M759.35974,408.614258 L778.717161,382.81543 L781.273802,382.81543 L761.932982,408.614258 L759.35974,408.614258 Z M764.307005,395.714844 C762.74645,395.714844 761.498579,395.15593 760.563353,394.038086 C759.628127,392.920242 759.160521,391.426116 759.160521,389.555664 C759.160521,387.674144 759.630894,386.182785 760.571654,385.081543 C761.512414,383.9803 762.785187,383.429688 764.390013,383.429688 C765.983771,383.429688 767.251011,383.9803 768.191771,385.081543 C769.132531,386.182785 769.602904,387.66861 769.602904,389.539062 C769.602904,391.453786 769.132531,392.961746 768.191771,394.062988 C767.251011,395.164231 765.956102,395.714844 764.307005,395.714844 Z M764.35681,394.071289 C766.216194,394.071289 767.145872,392.560562 767.145872,389.539062 C767.145872,388.177728 766.896851,387.090336 766.398802,386.276855 C765.900753,385.463375 765.231163,385.056641 764.390013,385.056641 C763.537795,385.056641 762.862672,385.463375 762.364622,386.276855 C761.866573,387.090336 761.617552,388.183261 761.617552,389.555664 C761.617552,390.928067 761.866573,392.023759 762.364622,392.842773 C762.862672,393.661788 763.526728,394.071289 764.35681,394.071289 Z M776.193724,408 C774.622101,408 773.371463,407.443853 772.441771,406.331543 C771.512079,405.219233 771.04724,403.727874 771.04724,401.857422 C771.04724,399.975902 771.517612,398.481776 772.458372,397.375 C773.399132,396.268224 774.666372,395.714844 776.26013,395.714844 C777.853888,395.714844 779.123895,396.265457 780.070189,397.366699 C781.016483,398.467942 781.489622,399.953767 781.489622,401.824219 C781.489622,403.75001 781.019249,405.260737 780.07849,406.356445 C779.13773,407.452154 777.842821,408 776.193724,408 Z M776.226927,406.356445 C778.097379,406.356445 779.032591,404.845718 779.032591,401.824219 C779.032591,400.462884 778.780803,399.375492 778.27722,398.562012 C777.773637,397.748531 777.10128,397.341797 776.26013,397.341797 C775.41898,397.341797 774.74939,397.748531 774.251341,398.562012 C773.753292,399.375492 773.504271,400.473951 773.504271,401.857422 C773.504271,403.218757 773.750525,404.308915 774.24304,405.12793 C774.735556,405.946944 775.396845,406.356445 776.226927,406.356445 Z" id="60%" fill="#52B1DB"></path>
        </g>
    </g>
</svg>