<?xml version="1.0" encoding="UTF-8"?>
<svg width="421px" height="233px" viewBox="0 0 421 233" version="1.1" xmlns="http://www.w3.org/2000/svg" xmlns:xlink="http://www.w3.org/1999/xlink">
    <!-- Generator: Sketch 53 (72520) - https://sketchapp.com -->
    <title>difference from mean</title>
    <desc>Created with Sketch.</desc>
    <g id="difference-from-mean" stroke="none" stroke-width="1" fill="none" fill-rule="evenodd">
        <rect fill="#FFFFFF" x="0" y="0" width="421" height="233"></rect>
        <g id="Grid" transform="translate(81.000000, -29.000000)" fill-rule="nonzero">
            <g id="Bl-Grey" transform="translate(0.000000, 16.000000)">
                <g id="Ver" transform="translate(2.578947, 40.000000)">
                    <rect id="Rectangle" fill="#DBE5FD" x="0.421052632" y="3.97903932e-13" width="2" height="134"></rect>
                    <rect id="Rectangle-Copy-16" fill="#DBE5FD" x="28.4210526" y="3.97903932e-13" width="2" height="134"></rect>
                    <rect id="Rectangle-Copy-2" fill="#DBE5FD" x="55.4210526" y="3.97903932e-13" width="2" height="134"></rect>
                    <rect id="Rectangle-Copy-17" fill="#DBE5FD" x="83.4210526" y="3.97903932e-13" width="2" height="134"></rect>
                    <rect id="Rectangle-Copy-18" fill="#DBE5FD" x="137.421053" y="3.97903932e-13" width="2" height="134"></rect>
                    <rect id="Rectangle-Copy-19" fill="#DBE5FD" x="164.421053" y="3.97903932e-13" width="2" height="134"></rect>
                    <rect id="Rectangle-Copy-3" fill="#000000" x="110.421053" y="3.97903932e-13" width="2" height="134"></rect>
                    <rect id="Rectangle-Copy-4" fill="#DBE5FD" x="192.421053" y="3.97903932e-13" width="2" height="134"></rect>
                    <rect id="Rectangle-Copy-20" fill="#DBE5FD" x="219.421053" y="3.97903932e-13" width="2" height="134"></rect>
                    <rect id="Rectangle-Copy-7" fill="#DBE5FD" x="247.421053" y="3.97903932e-13" width="2" height="134"></rect>
                </g>
            </g>
        </g>
        <g id="Plots" transform="translate(81.000000, 33.000000)" fill-rule="nonzero">
            <circle id="Oval-Copy-5" fill="#FA4359" cx="4" cy="106" r="4"></circle>
            <circle id="Oval-Copy-7" fill="#FFC107" cx="251" cy="19" r="4"></circle>
            <circle id="Oval-Copy-8" fill="#4C7EF3" cx="141" cy="50" r="4"></circle>
            <path d="M11,107 C10.4477153,107 10,106.552285 10,106 C10,105.447715 10.4477153,105 11,105 L17,105 C17.5522847,105 18,105.447715 18,106 C18,106.552285 17.5522847,107 17,107 L11,107 Z M23,107 C22.4477153,107 22,106.552285 22,106 C22,105.447715 22.4477153,105 23,105 L29,105 C29.5522847,105 30,105.447715 30,106 C30,106.552285 29.5522847,107 29,107 L23,107 Z M35,107 C34.4477153,107 34,106.552285 34,106 C34,105.447715 34.4477153,105 35,105 L41,105 C41.5522847,105 42,105.447715 42,106 C42,106.552285 41.5522847,107 41,107 L35,107 Z M47,107 C46.4477153,107 46,106.552285 46,106 C46,105.447715 46.4477153,105 47,105 L53,105 C53.5522847,105 54,105.447715 54,106 C54,106.552285 53.5522847,107 53,107 L47,107 Z M59,107 C58.4477153,107 58,106.552285 58,106 C58,105.447715 58.4477153,105 59,105 L65,105 C65.5522847,105 66,105.447715 66,106 C66,106.552285 65.5522847,107 65,107 L59,107 Z M71,107 C70.4477153,107 70,106.552285 70,106 C70,105.447715 70.4477153,105 71,105 L77,105 C77.5522847,105 78,105.447715 78,106 C78,106.552285 77.5522847,107 77,107 L71,107 Z M83,107 C82.4477153,107 82,106.552285 82,106 C82,105.447715 82.4477153,105 83,105 L89,105 C89.5522847,105 90,105.447715 90,106 C90,106.552285 89.5522847,107 89,107 L83,107 Z M95,107 C94.4477153,107 94,106.552285 94,106 C94,105.447715 94.4477153,105 95,105 L101,105 C101.552285,105 102,105.447715 102,106 C102,106.552285 101.552285,107 101,107 L95,107 Z M107,107 C106.447715,107 106,106.552285 106,106 C106,105.447715 106.447715,105 107,105 L111,105 C111.552285,105 112,105.447715 112,106 C112,106.552285 111.552285,107 111,107 L107,107 Z" id="Line-2" fill="#FA4359"></path>
            <path d="M118,20 C117.447715,20 117,19.5522847 117,19 C117,18.4477153 117.447715,18 118,18 L124,18 C124.552285,18 125,18.4477153 125,19 C125,19.5522847 124.552285,20 124,20 L118,20 Z M130,20 C129.447715,20 129,19.5522847 129,19 C129,18.4477153 129.447715,18 130,18 L136,18 C136.552285,18 137,18.4477153 137,19 C137,19.5522847 136.552285,20 136,20 L130,20 Z M142,20 C141.447715,20 141,19.5522847 141,19 C141,18.4477153 141.447715,18 142,18 L148,18 C148.552285,18 149,18.4477153 149,19 C149,19.5522847 148.552285,20 148,20 L142,20 Z M154,20 C153.447715,20 153,19.5522847 153,19 C153,18.4477153 153.447715,18 154,18 L160,18 C160.552285,18 161,18.4477153 161,19 C161,19.5522847 160.552285,20 160,20 L154,20 Z M166,20 C165.447715,20 165,19.5522847 165,19 C165,18.4477153 165.447715,18 166,18 L172,18 C172.552285,18 173,18.4477153 173,19 C173,19.5522847 172.552285,20 172,20 L166,20 Z M178,20 C177.447715,20 177,19.5522847 177,19 C177,18.4477153 177.447715,18 178,18 L184,18 C184.552285,18 185,18.4477153 185,19 C185,19.5522847 184.552285,20 184,20 L178,20 Z M190,20 C189.447715,20 189,19.5522847 189,19 C189,18.4477153 189.447715,18 190,18 L196,18 C196.552285,18 197,18.4477153 197,19 C197,19.5522847 196.552285,20 196,20 L190,20 Z M202,20 C201.447715,20 201,19.5522847 201,19 C201,18.4477153 201.447715,18 202,18 L208,18 C208.552285,18 209,18.4477153 209,19 C209,19.5522847 208.552285,20 208,20 L202,20 Z M214,20 C213.447715,20 213,19.5522847 213,19 C213,18.4477153 213.447715,18 214,18 L220,18 C220.552285,18 221,18.4477153 221,19 C221,19.5522847 220.552285,20 220,20 L214,20 Z M226,20 C225.447715,20 225,19.5522847 225,19 C225,18.4477153 225.447715,18 226,18 L232,18 C232.552285,18 233,18.4477153 233,19 C233,19.5522847 232.552285,20 232,20 L226,20 Z M238,20 C237.447715,20 237,19.5522847 237,19 C237,18.4477153 237.447715,18 238,18 L244,18 C244.552285,18 245,18.4477153 245,19 C245,19.5522847 244.552285,20 244,20 L238,20 Z" id="Line-2-Copy" fill="#FFC107"></path>
            <path d="M117,51 C116.447715,51 116,50.5522847 116,50 C116,49.4477153 116.447715,49 117,49 L123,49 C123.552285,49 124,49.4477153 124,50 C124,50.5522847 123.552285,51 123,51 L117,51 Z M129,51 C128.447715,51 128,50.5522847 128,50 C128,49.4477153 128.447715,49 129,49 L135,49 C135.552285,49 136,49.4477153 136,50 C136,50.5522847 135.552285,51 135,51 L129,51 Z" id="Line-2-Copy-2" fill="#4C7EF3"></path>
            <path d="M43.2,96.96 L44.73,96.96 L44.73,98 L40.38,98 L40.38,96.96 L41.91,96.96 L41.91,92.42 L40.7,93.15 L40.19,92.21 L42.28,90.95 L43.2,90.95 L43.2,96.96 Z M48.63,95.82 L48.63,94.83 L51.61,94.83 L51.61,95.82 L48.63,95.82 Z M58.38,93.49 C58.8200022,93.49 59.2083317,93.584999 59.545,93.775 C59.8816683,93.965001 60.1416658,94.2299983 60.325,94.57 C60.5083343,94.9100017 60.6,95.2999978 60.6,95.74 C60.6,96.206669 60.4933344,96.6166649 60.28,96.97 C60.0666656,97.3233351 59.765002,97.5966657 59.375,97.79 C58.9849981,97.9833343 58.5266693,98.08 58,98.08 C57.5599978,98.08 57.1250022,98.0050007 56.695,97.855 C56.2649979,97.7049993 55.9100014,97.5066679 55.63,97.26 L56.06,96.32 C56.7000032,96.8066691 57.35333,97.05 58.02,97.05 C58.4600022,97.05 58.7966655,96.9400011 59.03,96.72 C59.2633345,96.4999989 59.38,96.1866687 59.38,95.78 C59.38,95.3866647 59.2616679,95.0750011 59.025,94.845 C58.7883322,94.6149989 58.4666687,94.5 58.06,94.5 C57.7866653,94.5 57.5283346,94.5516662 57.285,94.655 C57.0416655,94.7583338 56.8233343,94.9066657 56.63,95.1 L55.86,95.1 L55.86,90.95 L60.28,90.95 L60.28,91.95 L57.12,91.95 L57.12,93.85 C57.4600017,93.6099988 57.8799975,93.49 58.38,93.49 Z M69.15,93.7 L69.15,94.58 L64.27,94.58 L64.27,93.7 L69.15,93.7 Z M69.15,95.7 L69.15,96.58 L64.27,96.58 L64.27,95.7 L69.15,95.7 Z M73.1,95.82 L73.1,94.83 L76.08,94.83 L76.08,95.82 L73.1,95.82 Z M82.49,95.62 L82.49,96.62 L81.5,96.62 L81.5,98 L80.24,98 L80.24,96.62 L77.18,96.62 L77.18,95.67 L80.46,90.95 L81.5,90.95 L81.5,95.62 L82.49,95.62 Z M78.38,95.62 L80.24,95.62 L80.24,92.93 L78.38,95.62 Z" id="1-5=-4" fill="#FA4359"></path>
            <circle id="Oval-Copy-5" fill="#37C3BE" cx="59" cy="72" r="4"></circle>
            <path d="M67,73 C66.4477153,73 66,72.5522847 66,72 C66,71.4477153 66.4477153,71 67,71 L73,71 C73.5522847,71 74,71.4477153 74,72 C74,72.5522847 73.5522847,73 73,73 L67,73 Z M79,73 C78.4477153,73 78,72.5522847 78,72 C78,71.4477153 78.4477153,71 79,71 L85,71 C85.5522847,71 86,71.4477153 86,72 C86,72.5522847 85.5522847,73 85,73 L79,73 Z M91,73 C90.4477153,73 90,72.5522847 90,72 C90,71.4477153 90.4477153,71 91,71 L97,71 C97.5522847,71 98,71.4477153 98,72 C98,72.5522847 97.5522847,73 97,73 L91,73 Z M103,73 C102.447715,73 102,72.5522847 102,72 C102,71.4477153 102.447715,71 103,71 L109,71 C109.552285,71 110,71.4477153 110,72 C110,72.5522847 109.552285,73 109,73 L103,73 Z" id="Line-2" fill="#37C3BE"></path>
            <path d="M68.325,60.38 C68.7383354,60.4866672 69.0566656,60.6883318 69.28,60.985 C69.5033344,61.2816682 69.615,61.6499978 69.615,62.09 C69.615,62.7033364 69.3900023,63.1883316 68.94,63.545 C68.4899978,63.9016685 67.8783372,64.08 67.105,64.08 C66.6316643,64.08 66.1766688,64.0066674 65.74,63.86 C65.3033312,63.7133326 64.9416681,63.5133346 64.655,63.26 L65.085,62.32 C65.6983364,62.8066691 66.3549965,63.05 67.055,63.05 C67.5016689,63.05 67.8349989,62.9616676 68.055,62.785 C68.2750011,62.6083324 68.385,62.3400018 68.385,61.98 C68.385,61.6266649 68.2733345,61.3650009 68.05,61.195 C67.8266656,61.0249991 67.481669,60.94 67.015,60.94 L66.085,60.94 L66.085,59.92 L66.845,59.92 C67.7583379,59.92 68.215,59.5766701 68.215,58.89 C68.215,58.5699984 68.1166677,58.3233342 67.92,58.15 C67.7233324,57.9766658 67.4450018,57.89 67.085,57.89 C66.7716651,57.89 66.4533349,57.9516661 66.13,58.075 C65.8066651,58.1983339 65.4916682,58.3799988 65.185,58.62 L64.755,57.68 C65.0350014,57.4266654 65.3933312,57.2266674 65.83,57.08 C66.2666689,56.9333326 66.7116644,56.86 67.165,56.86 C67.8583368,56.86 68.4116646,57.0283316 68.825,57.365 C69.2383354,57.7016683 69.445,58.1566638 69.445,58.73 C69.4383333,59.1233353 69.3366677,59.4649986 69.14,59.755 C68.9433324,60.0450015 68.6716684,60.2533327 68.325,60.38 Z M73.625,61.82 L73.625,60.83 L76.605,60.83 L76.605,61.82 L73.625,61.82 Z M83.375,59.49 C83.8150022,59.49 84.2033316,59.5849991 84.54,59.775 C84.8766684,59.965001 85.1366658,60.2299983 85.32,60.57 C85.5033342,60.9100017 85.595,61.2999978 85.595,61.74 C85.595,62.206669 85.4883344,62.6166649 85.275,62.97 C85.0616656,63.3233351 84.760002,63.5966657 84.37,63.79 C83.9799981,63.9833343 83.5216693,64.08 82.995,64.08 C82.5549978,64.08 82.1200022,64.0050007 81.69,63.855 C81.2599979,63.7049993 80.9050014,63.5066679 80.625,63.26 L81.055,62.32 C81.6950032,62.8066691 82.34833,63.05 83.015,63.05 C83.4550022,63.05 83.7916655,62.9400011 84.025,62.72 C84.2583345,62.4999989 84.375,62.1866687 84.375,61.78 C84.375,61.3866647 84.2566678,61.0750011 84.02,60.845 C83.7833322,60.6149988 83.4616687,60.5 83.055,60.5 C82.7816653,60.5 82.5233346,60.5516662 82.28,60.655 C82.0366655,60.7583338 81.8183343,60.9066657 81.625,61.1 L80.855,61.1 L80.855,56.95 L85.275,56.95 L85.275,57.95 L82.115,57.95 L82.115,59.85 C82.4550017,59.6099988 82.8749975,59.49 83.375,59.49 Z M94.145,59.7 L94.145,60.58 L89.265,60.58 L89.265,59.7 L94.145,59.7 Z M94.145,61.7 L94.145,62.58 L89.265,62.58 L89.265,61.7 L94.145,61.7 Z M98.095,61.82 L98.095,60.83 L101.075,60.83 L101.075,61.82 L98.095,61.82 Z M107.225,62.96 L107.225,64 L102.485,64 L102.485,63.05 L104.885,60.47 C105.165001,60.1633318 105.369999,59.881668 105.5,59.625 C105.630001,59.368332 105.695,59.1133346 105.695,58.86 C105.695,58.5399984 105.603334,58.2983342 105.42,58.135 C105.236666,57.9716659 104.968335,57.89 104.615,57.89 C103.981664,57.89 103.345003,58.1333309 102.705,58.62 L102.275,57.68 C102.555001,57.4333321 102.913331,57.2350007 103.35,57.085 C103.786669,56.9349993 104.224998,56.86 104.665,56.86 C105.37167,56.86 105.931665,57.0333316 106.345,57.38 C106.758335,57.7266684 106.965,58.1933304 106.965,58.78 C106.965,59.1866687 106.878334,59.5683315 106.705,59.925 C106.531666,60.2816684 106.238335,60.6799978 105.825,61.12 L104.095,62.96 L107.225,62.96 Z" id="3-5=-2" fill="#37C3BE"></path>
            <path d="M164.37,8.96 L165.9,8.96 L165.9,10 L161.55,10 L161.55,8.96 L163.08,8.96 L163.08,4.42 L161.87,5.15 L161.36,4.21 L163.45,2.95 L164.37,2.95 L164.37,8.96 Z M169.41,10.09 C168.576662,10.09 167.940002,9.78166975 167.5,9.165 C167.059998,8.54833025 166.84,7.6500059 166.84,6.47 C166.84,5.3033275 167.059998,4.4133364 167.5,3.8 C167.940002,3.1866636 168.576662,2.88 169.41,2.88 C170.243337,2.88 170.879998,3.1866636 171.32,3.8 C171.760002,4.4133364 171.98,5.3033275 171.98,6.47 C171.98,7.6433392 171.760002,8.5399969 171.32,9.16 C170.879998,9.7800031 170.243337,10.09 169.41,10.09 Z M169.41,9.08 C169.863336,9.08 170.193332,8.87166875 170.4,8.455 C170.606668,8.03833125 170.71,7.3766712 170.71,6.47 C170.71,5.5699955 170.606668,4.91500205 170.4,4.505 C170.193332,4.09499795 169.863336,3.89 169.41,3.89 C168.956664,3.89 168.626668,4.09499795 168.42,4.505 C168.213332,4.91500205 168.11,5.5699955 168.11,6.47 C168.11,7.3766712 168.213332,8.03833125 168.42,8.455 C168.626668,8.87166875 168.956664,9.08 169.41,9.08 Z M175.8,7.82 L175.8,6.83 L178.78,6.83 L178.78,7.82 L175.8,7.82 Z M185.55,5.49 C185.990002,5.49 186.378332,5.58499905 186.715,5.775 C187.051668,5.96500095 187.311666,6.2299983 187.495,6.57 C187.678334,6.9100017 187.77,7.2999978 187.77,7.74 C187.77,8.206669 187.663334,8.6166649 187.45,8.97 C187.236666,9.3233351 186.935002,9.5966657 186.545,9.79 C186.154998,9.9833343 185.696669,10.08 185.17,10.08 C184.729998,10.08 184.295002,10.0050008 183.865,9.855 C183.434998,9.70499925 183.080001,9.5066679 182.8,9.26 L183.23,8.32 C183.870003,8.8066691 184.52333,9.05 185.19,9.05 C185.630002,9.05 185.966666,8.9400011 186.2,8.72 C186.433335,8.4999989 186.55,8.1866687 186.55,7.78 C186.55,7.3866647 186.431668,7.07500115 186.195,6.845 C185.958332,6.61499885 185.636669,6.5 185.23,6.5 C184.956665,6.5 184.698335,6.55166615 184.455,6.655 C184.211665,6.75833385 183.993334,6.9066657 183.8,7.1 L183.03,7.1 L183.03,2.95 L187.45,2.95 L187.45,3.95 L184.29,3.95 L184.29,5.85 C184.630002,5.6099988 185.049997,5.49 185.55,5.49 Z M196.32,5.7 L196.32,6.58 L191.44,6.58 L191.44,5.7 L196.32,5.7 Z M196.32,7.7 L196.32,8.58 L191.44,8.58 L191.44,7.7 L196.32,7.7 Z M202.97,5.49 C203.410002,5.49 203.798332,5.58499905 204.135,5.775 C204.471668,5.96500095 204.731666,6.2299983 204.915,6.57 C205.098334,6.9100017 205.19,7.2999978 205.19,7.74 C205.19,8.206669 205.083334,8.6166649 204.87,8.97 C204.656666,9.3233351 204.355002,9.5966657 203.965,9.79 C203.574998,9.9833343 203.116669,10.08 202.59,10.08 C202.149998,10.08 201.715002,10.0050008 201.285,9.855 C200.854998,9.70499925 200.500001,9.5066679 200.22,9.26 L200.65,8.32 C201.290003,8.8066691 201.94333,9.05 202.61,9.05 C203.050002,9.05 203.386665,8.9400011 203.62,8.72 C203.853335,8.4999989 203.97,8.1866687 203.97,7.78 C203.97,7.3866647 203.851668,7.07500115 203.615,6.845 C203.378332,6.61499885 203.056669,6.5 202.65,6.5 C202.376665,6.5 202.118335,6.55166615 201.875,6.655 C201.631665,6.75833385 201.413334,6.9066657 201.22,7.1 L200.45,7.1 L200.45,2.95 L204.87,2.95 L204.87,3.95 L201.71,3.95 L201.71,5.85 C202.050002,5.6099988 202.469998,5.49 202.97,5.49 Z" id="10-5=5" fill="#FFC107"></path>
            <path d="M126.85,36.48 C127.263335,36.48 127.633332,36.5749991 127.96,36.765 C128.286668,36.9550009 128.541666,37.2216649 128.725,37.565 C128.908334,37.908335 129,38.2999978 129,38.74 C129,39.1933356 128.900001,39.5983315 128.7,39.955 C128.499999,40.3116684 128.220002,40.589999 127.86,40.79 C127.499998,40.990001 127.093336,41.09 126.64,41.09 C125.746662,41.09 125.058336,40.7883364 124.575,40.185 C124.091664,39.5816636 123.85,38.7200056 123.85,37.6 C123.85,36.8266628 123.964999,36.1583361 124.195,35.595 C124.425001,35.0316639 124.756664,34.6016682 125.19,34.305 C125.623335,34.0083318 126.136664,33.86 126.73,33.86 C127.150002,33.86 127.559998,33.9316659 127.96,34.075 C128.360002,34.218334 128.706665,34.4199987 129,34.68 L128.57,35.62 C127.949997,35.1333309 127.353336,34.89 126.78,34.89 C126.266664,34.89 125.866668,35.1083311 125.58,35.545 C125.293332,35.9816688 125.143333,36.6133292 125.13,37.44 C125.283334,37.1399985 125.513332,36.9050009 125.82,36.735 C126.126668,36.5649991 126.469998,36.48 126.85,36.48 Z M126.58,40.07 C126.946669,40.07 127.238332,39.9533345 127.455,39.72 C127.671668,39.4866655 127.78,39.1733353 127.78,38.78 C127.78,38.3933314 127.670001,38.0833345 127.45,37.85 C127.229999,37.6166655 126.936668,37.5 126.57,37.5 C126.203332,37.5 125.905001,37.6183322 125.675,37.855 C125.444999,38.0916679 125.33,38.3999981 125.33,38.78 C125.33,39.1666686 125.444999,39.4783321 125.675,39.715 C125.905001,39.9516678 126.206665,40.07 126.58,40.07 Z M132.8,38.82 L132.8,37.83 L135.78,37.83 L135.78,38.82 L132.8,38.82 Z M142.55,36.49 C142.990002,36.49 143.378332,36.5849991 143.715,36.775 C144.051668,36.965001 144.311666,37.2299983 144.495,37.57 C144.678334,37.9100017 144.77,38.2999978 144.77,38.74 C144.77,39.206669 144.663334,39.6166649 144.45,39.97 C144.236666,40.3233351 143.935002,40.5966657 143.545,40.79 C143.154998,40.9833343 142.696669,41.08 142.17,41.08 C141.729998,41.08 141.295002,41.0050008 140.865,40.855 C140.434998,40.7049993 140.080001,40.5066679 139.8,40.26 L140.23,39.32 C140.870003,39.8066691 141.52333,40.05 142.19,40.05 C142.630002,40.05 142.966666,39.9400011 143.2,39.72 C143.433335,39.4999989 143.55,39.1866687 143.55,38.78 C143.55,38.3866647 143.431668,38.0750011 143.195,37.845 C142.958332,37.6149988 142.636669,37.5 142.23,37.5 C141.956665,37.5 141.698335,37.5516662 141.455,37.655 C141.211665,37.7583338 140.993334,37.9066657 140.8,38.1 L140.03,38.1 L140.03,33.95 L144.45,33.95 L144.45,34.95 L141.29,34.95 L141.29,36.85 C141.630002,36.6099988 142.049997,36.49 142.55,36.49 Z M153.32,36.7 L153.32,37.58 L148.44,37.58 L148.44,36.7 L153.32,36.7 Z M153.32,38.7 L153.32,39.58 L148.44,39.58 L148.44,38.7 L153.32,38.7 Z M160.55,39.96 L162.08,39.96 L162.08,41 L157.73,41 L157.73,39.96 L159.26,39.96 L159.26,35.42 L158.05,36.15 L157.54,35.21 L159.63,33.95 L160.55,33.95 L160.55,39.96 Z" id="6-5=1" fill="#4C7EF3"></path>
        </g>
        <g id="X-Axis" transform="translate(77.000000, 155.000000)" fill-rule="nonzero">
            <polygon id="1" fill="#0F1931" points="8.67 27.31 10.22 27.31 10.22 28 6.3 28 6.3 27.31 7.85 27.31 7.85 21.97 6.61 22.75 6.23 22.12 8.08 20.95 8.67 20.95"></polygon>
            <path d="M38.39,27.31 L38.39,28 L33.85,28 L33.85,27.38 L36.32,24.66 C36.653335,24.2866648 36.8949992,23.9516681 37.045,23.655 C37.1950007,23.3583318 37.27,23.0600015 37.27,22.76 C37.27,22.3733314 37.1566678,22.0766677 36.93,21.87 C36.7033322,21.6633323 36.3833354,21.56 35.97,21.56 C35.2899966,21.56 34.6233366,21.8299973 33.97,22.37 L33.66,21.74 C33.9400014,21.473332 34.2916646,21.2616675 34.715,21.105 C35.1383354,20.9483325 35.5633312,20.87 35.99,20.87 C36.6366699,20.87 37.1483315,21.036665 37.525,21.37 C37.9016685,21.703335 38.09,22.1533305 38.09,22.72 C38.09,23.1266687 37.9983342,23.5166648 37.815,23.89 C37.6316657,24.2633352 37.3300021,24.6799977 36.91,25.14 L34.91,27.31 L38.39,27.31 Z" id="2" fill="#0F1931"></path>
            <path d="M64.97,24.38 C65.3833354,24.5000006 65.6999989,24.7049985 65.92,24.995 C66.1400011,25.2850014 66.25,25.6499978 66.25,26.09 C66.25,26.7033364 66.0416687,27.1866649 65.625,27.54 C65.2083313,27.8933351 64.6433369,28.07 63.93,28.07 C63.4766644,28.07 63.0400021,27.9933341 62.62,27.84 C62.1999979,27.6866659 61.8466681,27.4733347 61.56,27.2 L61.87,26.57 C62.5100032,27.1100027 63.1899964,27.38 63.91,27.38 C64.4100025,27.38 64.7899987,27.2683344 65.05,27.045 C65.3100013,26.8216655 65.44,26.4933355 65.44,26.06 C65.44,25.1999957 64.9000054,24.77 63.82,24.77 L63.01,24.77 L63.01,24.08 L63.66,24.08 C64.1800026,24.08 64.5799986,23.9650011 64.86,23.735 C65.1400014,23.5049988 65.28,23.1733355 65.28,22.74 C65.28,22.3599981 65.1666678,22.0683344 64.94,21.865 C64.7133322,21.6616656 64.3900021,21.56 63.97,21.56 C63.2899966,21.56 62.6233366,21.8299973 61.97,22.37 L61.66,21.74 C61.9466681,21.4666653 62.2966646,21.2533341 62.71,21.1 C63.1233354,20.9466659 63.5533311,20.87 64,20.87 C64.6400032,20.87 65.1483315,21.0316651 65.525,21.355 C65.9016685,21.6783349 66.09,22.1133306 66.09,22.66 C66.09,23.0666687 65.9916676,23.4216651 65.795,23.725 C65.5983323,24.0283349 65.3233351,24.246666 64.97,24.38 Z" id="3" fill="#0F1931"></path>
            <path d="M93.64,25.79 L93.64,26.47 L92.58,26.47 L92.58,28 L91.77,28 L91.77,26.47 L88.51,26.47 L88.51,25.85 L91.91,20.95 L92.58,20.95 L92.58,25.79 L93.64,25.79 Z M89.36,25.79 L91.77,25.79 L91.77,22.32 L89.36,25.79 Z" id="4" fill="#0F1931"></path>
            <path d="M118.3,23.58 C118.746669,23.58 119.134998,23.6733324 119.465,23.86 C119.795002,24.0466676 120.049999,24.3083316 120.23,24.645 C120.410001,24.9816683 120.5,25.3699978 120.5,25.81 C120.5,26.2566689 120.401668,26.6499983 120.205,26.99 C120.008332,27.3300017 119.730002,27.594999 119.37,27.785 C119.009998,27.975001 118.590002,28.07 118.11,28.07 C117.683331,28.07 117.261669,27.9916675 116.845,27.835 C116.428331,27.6783326 116.076668,27.466668 115.79,27.2 L116.1,26.57 C116.753337,27.1100027 117.42333,27.38 118.11,27.38 C118.603336,27.38 118.989999,27.2400014 119.27,26.96 C119.550001,26.6799986 119.69,26.3000024 119.69,25.82 C119.69,25.353331 119.551668,24.9766681 119.275,24.69 C118.998332,24.4033319 118.630002,24.26 118.17,24.26 C117.496663,24.26 116.960002,24.5333306 116.56,25.08 L115.99,25.08 L115.99,20.95 L120.22,20.95 L120.22,21.63 L116.8,21.63 L116.8,24.14 C116.986668,23.9599991 117.208332,23.8216671 117.465,23.725 C117.721668,23.6283328 117.999999,23.58 118.3,23.58 Z" id="5" fill="#0F1931"></path>
            <polygon id="7" fill="#0F1931" points="170.67 20.95 175.33 20.95 175.33 21.56 172.03 28 171.14 28 174.43 21.64 170.67 21.64"></polygon>
            <path d="M201.22,24.38 C201.633335,24.5066673 201.954999,24.7233318 202.185,25.03 C202.415001,25.3366682 202.53,25.7033312 202.53,26.13 C202.53,26.7366697 202.310002,27.2116649 201.87,27.555 C201.429998,27.8983351 200.806671,28.07 200,28.07 C199.193329,28.07 198.570002,27.8983351 198.13,27.555 C197.689998,27.2116649 197.47,26.7366697 197.47,26.13 C197.47,25.6966645 197.586666,25.3266682 197.82,25.02 C198.053335,24.7133318 198.376665,24.5000006 198.79,24.38 C198.436665,24.246666 198.156668,24.0366681 197.95,23.75 C197.743332,23.4633319 197.64,23.1266686 197.64,22.74 C197.64,22.1666638 197.848331,21.7116684 198.265,21.375 C198.681669,21.0383316 199.259996,20.87 200,20.87 C200.740004,20.87 201.318331,21.0383316 201.735,21.375 C202.151669,21.7116684 202.36,22.1666638 202.36,22.74 C202.36,23.1266686 202.256668,23.4649986 202.05,23.755 C201.843332,24.0450015 201.566668,24.2533327 201.22,24.38 Z M198.45,22.8 C198.45,23.2133354 198.581665,23.5299989 198.845,23.75 C199.108335,23.9700011 199.493331,24.08 200,24.08 C200.506669,24.08 200.891665,23.9700011 201.155,23.75 C201.418335,23.5299989 201.55,23.2133354 201.55,22.8 C201.55,22.4066647 201.418335,22.1000011 201.155,21.88 C200.891665,21.6599989 200.506669,21.55 200,21.55 C199.493331,21.55 199.108335,21.6599989 198.845,21.88 C198.581665,22.1000011 198.45,22.4066647 198.45,22.8 Z M200,27.39 C201.146672,27.39 201.72,26.9533377 201.72,26.08 C201.72,25.2066623 201.146672,24.77 200,24.77 C198.853328,24.77 198.28,25.2066623 198.28,26.08 C198.28,26.9533377 198.853328,27.39 200,27.39 Z" id="8" fill="#0F1931"></path>
            <path d="M227.78,20.87 C228.633338,20.87 229.291664,21.1666637 229.755,21.76 C230.218336,22.3533363 230.45,23.1999945 230.45,24.3 C230.45,25.4933393 230.210002,26.4216633 229.73,27.085 C229.249998,27.7483366 228.580004,28.08 227.72,28.08 C227.319998,28.08 226.926669,28.0050008 226.54,27.855 C226.153331,27.7049993 225.813335,27.4900014 225.52,27.21 L225.83,26.58 C226.163335,26.8600014 226.481665,27.0649994 226.785,27.195 C227.088335,27.3250006 227.396665,27.39 227.71,27.39 C228.31667,27.39 228.786665,27.1216693 229.12,26.585 C229.453335,26.0483307 229.62,25.2900049 229.62,24.31 L229.62,24.18 C229.466666,24.5533352 229.218335,24.8466656 228.875,25.06 C228.531665,25.2733344 228.143336,25.38 227.71,25.38 C227.283331,25.38 226.903335,25.2866676 226.57,25.1 C226.236665,24.9133324 225.976668,24.6500017 225.79,24.31 C225.603332,23.9699983 225.51,23.5800022 225.51,23.14 C225.51,22.7066645 225.606666,22.3166684 225.8,21.97 C225.993334,21.6233316 226.263332,21.3533343 226.61,21.16 C226.956668,20.9666657 227.346665,20.87 227.78,20.87 Z M227.83,24.69 C228.290002,24.69 228.664999,24.5450015 228.955,24.255 C229.245001,23.9649986 229.39,23.5900023 229.39,23.13 C229.39,22.663331 229.245001,22.2850015 228.955,21.995 C228.664999,21.7049985 228.286669,21.56 227.82,21.56 C227.366664,21.56 227.003335,21.7033319 226.73,21.99 C226.456665,22.2766681 226.32,22.6566643 226.32,23.13 C226.32,23.6033357 226.458332,23.9816652 226.735,24.265 C227.011668,24.5483347 227.376664,24.69 227.83,24.69 Z" id="9" fill="#0F1931"></path>
            <path d="M146.305,23.57 C146.731669,23.57 147.111665,23.6633324 147.445,23.85 C147.778335,24.0366676 148.038332,24.2999983 148.225,24.64 C148.411668,24.9800017 148.505,25.3699978 148.505,25.81 C148.505,26.2433355 148.408334,26.6333316 148.215,26.98 C148.021666,27.3266684 147.751668,27.5966657 147.405,27.79 C147.058332,27.9833343 146.668336,28.08 146.235,28.08 C145.381662,28.08 144.723336,27.7833363 144.26,27.19 C143.796664,26.5966637 143.565,25.7500055 143.565,24.65 C143.565,23.8566627 143.673332,23.1766695 143.89,22.61 C144.106668,22.0433305 144.418331,21.6116681 144.825,21.315 C145.231669,21.0183319 145.718331,20.87 146.285,20.87 C146.691669,20.87 147.088331,20.9449993 147.475,21.095 C147.861669,21.2450007 148.201665,21.4599986 148.495,21.74 L148.185,22.37 C147.851665,22.0899986 147.533335,21.8850006 147.23,21.755 C146.926665,21.6249993 146.618335,21.56 146.305,21.56 C145.69833,21.56 145.226668,21.8283306 144.89,22.365 C144.553332,22.9016693 144.385,23.6599951 144.385,24.64 L144.385,24.79 C144.538334,24.4166648 144.784998,24.1200011 145.125,23.9 C145.465002,23.6799989 145.858331,23.57 146.305,23.57 Z M146.195,27.39 C146.648336,27.39 147.011665,27.2466681 147.285,26.96 C147.558335,26.6733319 147.695,26.2933357 147.695,25.82 C147.695,25.353331 147.556668,24.9766681 147.28,24.69 C147.003332,24.4033319 146.638336,24.26 146.185,24.26 C145.724998,24.26 145.350001,24.4049986 145.06,24.695 C144.769999,24.9850014 144.625,25.3599977 144.625,25.82 C144.625,26.286669 144.769999,26.6649985 145.06,26.955 C145.350001,27.2450015 145.728331,27.39 146.195,27.39 Z" id="6" fill="#0F1931"></path>
            <path d="M252.67,27.31 L254.22,27.31 L254.22,28 L250.3,28 L250.3,27.31 L251.85,27.31 L251.85,21.97 L250.61,22.75 L250.23,22.12 L252.08,20.95 L252.67,20.95 L252.67,27.31 Z M258,28.08 C257.193329,28.08 256.580002,27.7733364 256.16,27.16 C255.739998,26.5466636 255.53,25.6533392 255.53,24.48 C255.53,23.2999941 255.739998,22.4033364 256.16,21.79 C256.580002,21.1766636 257.193329,20.87 258,20.87 C258.806671,20.87 259.419998,21.174997 259.84,21.785 C260.260002,22.395003 260.47,23.2899941 260.47,24.47 C260.47,25.6500059 260.260002,26.5466636 259.84,27.16 C259.419998,27.7733364 258.806671,28.08 258,28.08 Z M258,27.39 C258.560003,27.39 258.973332,27.1533357 259.24,26.68 C259.506668,26.2066643 259.64,25.470005 259.64,24.47 C259.64,23.4633283 259.508335,22.7283357 259.245,22.265 C258.981665,21.8016643 258.566669,21.57 258,21.57 C257.439997,21.57 257.026668,21.803331 256.76,22.27 C256.493332,22.736669 256.36,23.469995 256.36,24.47 C256.36,25.470005 256.493332,26.2066643 256.76,26.68 C257.026668,27.1533357 257.439997,27.39 258,27.39 Z" id="10" fill="#0F1931"></path>
            <g id="Ticks" transform="translate(131.107843, 5.470961) rotate(-90.000000) translate(-131.107843, -5.470961) translate(126.107843, -119.029039)" stroke="#0F1931" stroke-linecap="round" stroke-width="2">
                <path d="M9.47096054,1.39215686 L0.470960536,1.39215686" id="1"></path>
                <path d="M9.47096054,29.3921569 L0.470960536,29.3921569" id="1-copy"></path>
                <path d="M9.47096054,56.3921569 L0.470960536,56.3921569" id="1-copy-2"></path>
                <path d="M9.47096054,84.3921569 L0.470960536,84.3921569" id="3"></path>
                <path d="M9.47096054,138.392157 L0.470960536,138.392157" id="5"></path>
                <path d="M9.47096054,165.392157 L0.470960536,165.392157" id="5-copy-2"></path>
                <path d="M9.47096054,193.392157 L0.470960536,193.392157" id="5-copy-3"></path>
                <path d="M9.47096054,220.392157 L0.470960536,220.392157" id="5-copy-4"></path>
                <path d="M9.47096054,248.392157 L0.470960536,248.392157" id="6"></path>
            </g>
            <path d="M0,6 L264,6" id="Line" stroke="#0F1931" stroke-width="2" stroke-linecap="round"></path>
            <path d="M122.5,6.5 L113.5,6.5" id="7" stroke="#000000" stroke-width="2" stroke-linecap="round" transform="translate(118.000000, 6.500000) rotate(270.000000) translate(-118.000000, -6.500000) "></path>
            <path d="M119.435,46.95 L120.445,46.95 L120.445,54 L119.305,54 L119.305,49.34 L117.445,52.86 L116.585,52.86 L114.715,49.39 L114.725,54 L113.585,54 L113.585,46.95 L114.605,46.95 L117.025,51.56 L119.435,46.95 Z M126.155,51.78 L122.825,51.78 C122.865,52.2333356 123.001666,52.5699989 123.235,52.79 C123.468334,53.0100011 123.801665,53.12 124.235,53.12 C124.775003,53.12 125.268331,52.9466684 125.715,52.6 L126.075,53.46 C125.848332,53.6466676 125.563335,53.7966661 125.22,53.91 C124.876665,54.0233339 124.531668,54.08 124.185,54.08 C123.384996,54.08 122.753336,53.8533356 122.29,53.4 C121.826664,52.9466644 121.595,52.3266706 121.595,51.54 C121.595,51.0399975 121.694999,50.5966686 121.895,50.21 C122.095001,49.8233314 122.376665,49.5233344 122.74,49.31 C123.103335,49.0966656 123.514998,48.99 123.975,48.99 C124.648337,48.99 125.179998,49.2066645 125.57,49.64 C125.960002,50.0733355 126.155,50.6699962 126.155,51.43 L126.155,51.78 Z M124.005,49.87 C123.671665,49.87 123.403334,49.9766656 123.2,50.19 C122.996666,50.4033344 122.871667,50.709998 122.825,51.11 L125.085,51.11 C125.071667,50.7033313 124.971668,50.395001 124.785,50.185 C124.598332,49.9749989 124.338335,49.87 124.005,49.87 Z M129.275,48.99 C129.96167,48.99 130.471665,49.156665 130.805,49.49 C131.138335,49.823335 131.305,50.3366632 131.305,51.03 L131.305,54 L130.115,54 L130.115,53.25 C130.001666,53.5100013 129.823335,53.7133326 129.58,53.86 C129.336665,54.0066674 129.055002,54.08 128.735,54.08 C128.408332,54.08 128.111668,54.013334 127.845,53.88 C127.578332,53.746666 127.368334,53.5633345 127.215,53.33 C127.061666,53.0966655 126.985,52.8366681 126.985,52.55 C126.985,52.1899982 127.076666,51.9066677 127.26,51.7 C127.443334,51.4933323 127.741665,51.3433338 128.155,51.25 C128.568335,51.1566662 129.13833,51.11 129.865,51.11 L130.115,51.11 L130.115,50.88 C130.115,50.546665 130.043334,50.3066674 129.9,50.16 C129.756666,50.0133326 129.518335,49.94 129.185,49.94 C128.924999,49.94 128.653335,49.9849995 128.37,50.075 C128.086665,50.1650005 127.808335,50.2899992 127.535,50.45 L127.185,49.59 C127.458335,49.4166658 127.788331,49.2733339 128.175,49.16 C128.561669,49.0466661 128.928332,48.99 129.275,48.99 Z M128.985,53.18 C129.318335,53.18 129.589999,53.0683345 129.8,52.845 C130.010001,52.6216656 130.115,52.3333351 130.115,51.98 L130.115,51.77 L129.935,51.77 C129.488331,51.77 129.141668,51.7899998 128.895,51.83 C128.648332,51.8700002 128.471667,51.9399995 128.365,52.04 C128.258333,52.1400005 128.205,52.2766658 128.205,52.45 C128.205,52.6633344 128.278333,52.8383326 128.425,52.975 C128.571667,53.1116673 128.758332,53.18 128.985,53.18 Z M135.415,48.99 C136.00167,48.99 136.438332,49.156665 136.725,49.49 C137.011668,49.823335 137.155,50.3266633 137.155,51 L137.155,54 L135.905,54 L135.905,51.07 C135.905,50.6899981 135.833334,50.4133342 135.69,50.24 C135.546666,50.0666658 135.321668,49.98 135.015,49.98 C134.654998,49.98 134.366668,50.0933322 134.15,50.32 C133.933332,50.5466678 133.825,50.8499981 133.825,51.23 L133.825,54 L132.575,54 L132.575,49.11 L133.795,49.11 L133.795,49.84 C133.961668,49.5666653 134.184999,49.3566674 134.465,49.21 C134.745001,49.0633326 135.061665,48.99 135.415,48.99 Z M145.925,49.7 L145.925,50.58 L141.045,50.58 L141.045,49.7 L145.925,49.7 Z M145.925,51.7 L145.925,52.58 L141.045,52.58 L141.045,51.7 L145.925,51.7 Z M152.575,49.49 C153.015002,49.49 153.403332,49.5849991 153.74,49.775 C154.076668,49.965001 154.336666,50.2299983 154.52,50.57 C154.703334,50.9100017 154.795,51.2999978 154.795,51.74 C154.795,52.206669 154.688334,52.6166649 154.475,52.97 C154.261666,53.3233351 153.960002,53.5966657 153.57,53.79 C153.179998,53.9833343 152.721669,54.08 152.195,54.08 C151.754998,54.08 151.320002,54.0050008 150.89,53.855 C150.459998,53.7049993 150.105001,53.5066679 149.825,53.26 L150.255,52.32 C150.895003,52.8066691 151.54833,53.05 152.215,53.05 C152.655002,53.05 152.991666,52.9400011 153.225,52.72 C153.458335,52.4999989 153.575,52.1866687 153.575,51.78 C153.575,51.3866647 153.456668,51.0750011 153.22,50.845 C152.983332,50.6149988 152.661669,50.5 152.255,50.5 C151.981665,50.5 151.723335,50.5516662 151.48,50.655 C151.236665,50.7583338 151.018334,50.9066657 150.825,51.1 L150.055,51.1 L150.055,46.95 L154.475,46.95 L154.475,47.95 L151.315,47.95 L151.315,49.85 C151.655002,49.6099988 152.074997,49.49 152.575,49.49 Z" id="Mean=5" fill="#0F1931"></path>
        </g>
    </g>
</svg>