<?xml version="1.0" encoding="UTF-8"?>
<svg width="421px" height="613px" viewBox="0 0 421 613" version="1.1" xmlns="http://www.w3.org/2000/svg" xmlns:xlink="http://www.w3.org/1999/xlink">
    <!-- Generator: Sketch 53 (72520) - https://sketchapp.com -->
    <title>variance dataset</title>
    <desc>Created with Sketch.</desc>
    <g id="variance-dataset" stroke="none" stroke-width="1" fill="none" fill-rule="evenodd">
        <rect fill="#FFFFFF" x="0" y="0" width="421" height="613"></rect>
        <g id="Group-2" transform="translate(18.000000, 16.000000)" fill-rule="nonzero">
            <g id="Grid" transform="translate(35.000000, 32.500000)" fill="#DBE5FD">
                <g id="Bl-Grey">
                    <g id="Ver" transform="translate(36.965995, 0.000000)">
                        <rect id="Rectangle" x="0.0340050378" y="0.5" width="2" height="204"></rect>
                        <rect id="Rectangle-Copy" x="40.034005" y="0.5" width="2" height="204"></rect>
                        <rect id="Rectangle-Copy-2" x="80.034005" y="0.5" width="2" height="204"></rect>
                        <rect id="Rectangle-Copy-4" x="120.034005" y="0.5" width="2" height="204"></rect>
                        <rect id="Rectangle-Copy-5" x="200.034005" y="0.5" width="2" height="204"></rect>
                        <rect id="Rectangle-Copy-6" x="160.034005" y="0.5" width="2" height="204"></rect>
                        <rect id="Rectangle-Copy-8" x="240.034005" y="0.5" width="2" height="204"></rect>
                    </g>
                    <g id="Hor" transform="translate(0.000000, 14.417795)">
                        <polygon id="Rectangle-Copy-8" transform="translate(158.500000, 1.082205) rotate(-90.000000) translate(-158.500000, -1.082205) " points="157.699226 -157.417795 159.300774 -157.417795 159.300774 159.582205 157.699226 159.582205"></polygon>
                        <polygon id="Rectangle-Copy-12" transform="translate(158.500000, 44.082205) rotate(-90.000000) translate(-158.500000, -44.082205) " points="157.699226 -114.417795 159.300774 -114.417795 159.300774 202.582205 157.699226 202.582205"></polygon>
                        <polygon id="Rectangle-Copy-13" transform="translate(158.500000, 86.082205) rotate(-90.000000) translate(-158.500000, -86.082205) " points="157.699226 -72.417795 159.300774 -72.417795 159.300774 244.582205 157.699226 244.582205"></polygon>
                        <polygon id="Rectangle-Copy-14" transform="translate(158.500000, 129.082205) rotate(-90.000000) translate(-158.500000, -129.082205) " points="157.699226 -29.417795 159.300774 -29.417795 159.300774 287.582205 157.699226 287.582205"></polygon>
                        <polygon id="Rectangle-Copy-15" transform="translate(158.500000, 171.082205) rotate(-90.000000) translate(-158.500000, -171.082205) " points="157.699226 12.582205 159.300774 12.582205 159.300774 329.582205 157.699226 329.582205"></polygon>
                    </g>
                </g>
            </g>
            <path d="M37,33.5 C35.6192881,33.5 34.5,34.6192881 34.5,36 L34.5,234 C34.5,235.380712 35.6192881,236.5 37,236.5 L349,236.5 C350.380712,236.5 351.5,235.380712 351.5,234 L351.5,36 C351.5,34.6192881 350.380712,33.5 349,33.5 L37,33.5 Z" id="Rectangle" stroke="#0F1931"></path>
            <g id="X-Axis" transform="translate(63.000000, 236.500000)">
                <path d="M122.54,38.09 C121.573329,38.09 120.840002,37.8400025 120.34,37.34 C119.839997,36.8399975 119.59,36.1100048 119.59,35.15 L119.59,30.95 L120.85,30.95 L120.85,35.22 C120.85,35.8266697 120.993332,36.2849985 121.28,36.595 C121.566668,36.9050016 121.986664,37.06 122.54,37.06 C123.086669,37.06 123.503332,36.9033349 123.79,36.59 C124.076668,36.2766651 124.22,35.820003 124.22,35.22 L124.22,30.95 L125.48,30.95 L125.48,35.15 C125.48,36.1033381 125.230002,36.8316642 124.73,37.335 C124.229997,37.8383358 123.500005,38.09 122.54,38.09 Z M129.69,32.99 C130.27667,32.99 130.713332,33.156665 131,33.49 C131.286668,33.823335 131.43,34.3266633 131.43,35 L131.43,38 L130.18,38 L130.18,35.07 C130.18,34.6899981 130.108334,34.4133342 129.965,34.24 C129.821666,34.0666658 129.596668,33.98 129.29,33.98 C128.929998,33.98 128.641668,34.0933322 128.425,34.32 C128.208332,34.5466678 128.1,34.8499981 128.1,35.23 L128.1,38 L126.85,38 L126.85,33.11 L128.07,33.11 L128.07,33.84 C128.236668,33.5666653 128.459999,33.3566674 128.74,33.21 C129.020001,33.0633326 129.336665,32.99 129.69,32.99 Z M132.7,38 L132.7,33.11 L133.95,33.11 L133.95,38 L132.7,38 Z M132.63,30.84 L134.01,30.84 L134.01,32.07 L132.63,32.07 L132.63,30.84 Z M137.74,37.14 C137.886667,37.14 138.039999,37.1300001 138.2,37.11 L138.14,38.04 C137.939999,38.0600001 137.756667,38.07 137.59,38.07 C136.90333,38.07 136.396668,37.9116682 136.07,37.595 C135.743332,37.2783317 135.58,36.8066698 135.58,36.18 L135.58,34.05 L134.64,34.05 L134.64,33.11 L135.58,33.11 L135.58,31.65 L136.83,31.65 L136.83,33.11 L138.12,33.11 L138.12,34.05 L136.83,34.05 L136.83,36.16 C136.83,36.8133366 137.13333,37.14 137.74,37.14 Z M140.73,38.08 C140.296664,38.08 139.898335,38.0266672 139.535,37.92 C139.171665,37.8133328 138.863335,37.660001 138.61,37.46 L138.96,36.59 C139.480003,36.9700019 140.076663,37.16 140.75,37.16 C141.036668,37.16 141.254999,37.1133338 141.405,37.02 C141.555001,36.9266662 141.63,36.7933342 141.63,36.62 C141.63,36.4733326 141.578334,36.3600004 141.475,36.28 C141.371666,36.1999996 141.186668,36.126667 140.92,36.06 L140.12,35.88 C139.666664,35.7799995 139.330001,35.6166678 139.11,35.39 C138.889999,35.1633322 138.78,34.8700018 138.78,34.51 C138.78,34.2099985 138.864999,33.9450011 139.035,33.715 C139.205001,33.4849988 139.441665,33.3066673 139.745,33.18 C140.048335,33.0533327 140.399998,32.99 140.8,32.99 C141.146668,32.99 141.481665,33.0433328 141.805,33.15 C142.128335,33.2566672 142.413332,33.4066657 142.66,33.6 L142.31,34.45 C141.803331,34.0833315 141.296669,33.9 140.79,33.9 C140.516665,33.9 140.303334,33.9499995 140.15,34.05 C139.996666,34.1500005 139.92,34.2899991 139.92,34.47 C139.92,34.603334 139.968333,34.7133329 140.065,34.8 C140.161667,34.8866671 140.316666,34.9533331 140.53,35 L141.36,35.19 C141.846669,35.2966672 142.203332,35.4649989 142.43,35.695 C142.656668,35.9250011 142.77,36.2266648 142.77,36.6 C142.77,37.0533356 142.586669,37.413332 142.22,37.68 C141.853331,37.946668 141.35667,38.08 140.73,38.08 Z" id="Units" fill="#0F1931"></path>
                <path d="M7.07,19.6583146 L8.62,19.6583146 L8.62,20.3483146 L4.7,20.3483146 L4.7,19.6583146 L6.25,19.6583146 L6.25,14.3183146 L5.01,15.0983146 L4.63,14.4683146 L6.48,13.2983146 L7.07,13.2983146 L7.07,19.6583146 Z M12.4,20.4283146 C11.5933293,20.4283146 10.9800021,20.121651 10.56,19.5083146 C10.1399979,18.8949782 9.93,18.0016538 9.93,16.8283146 C9.93,15.6483087 10.1399979,14.751651 10.56,14.1383146 C10.9800021,13.5249782 11.5933293,13.2183146 12.4,13.2183146 C13.2066707,13.2183146 13.8199979,13.5233116 14.24,14.1333146 C14.6600021,14.7433177 14.87,15.6383087 14.87,16.8183146 C14.87,17.9983205 14.6600021,18.8949782 14.24,19.5083146 C13.8199979,20.121651 13.2066707,20.4283146 12.4,20.4283146 Z M12.4,19.7383146 C12.9600028,19.7383146 13.373332,19.5016503 13.64,19.0283146 C13.906668,18.5549789 14.04,17.8183196 14.04,16.8183146 C14.04,15.8116429 13.9083346,15.0766503 13.645,14.6133146 C13.3816653,14.149979 12.9666695,13.9183146 12.4,13.9183146 C11.8399972,13.9183146 11.426668,14.1516456 11.16,14.6183146 C10.893332,15.0849836 10.76,15.8183096 10.76,16.8183146 C10.76,17.8183196 10.893332,18.5549789 11.16,19.0283146 C11.426668,19.5016503 11.8399972,19.7383146 12.4,19.7383146 Z" id="10" fill="#0F1931"></path>
                <path d="M49.59,19.6583146 L49.59,20.3483146 L45.05,20.3483146 L45.05,19.7283146 L47.52,17.0083146 C47.853335,16.6349794 48.0949992,16.2999828 48.245,16.0033146 C48.3950007,15.7066465 48.47,15.4083161 48.47,15.1083146 C48.47,14.721646 48.3566678,14.4249823 48.13,14.2183146 C47.9033322,14.0116469 47.5833354,13.9083146 47.17,13.9083146 C46.4899966,13.9083146 45.8233366,14.1783119 45.17,14.7183146 L44.86,14.0883146 C45.1400014,13.8216466 45.4916645,13.6099821 45.915,13.4533146 C46.3383354,13.2966472 46.7633312,13.2183146 47.19,13.2183146 C47.8366699,13.2183146 48.3483314,13.3849796 48.725,13.7183146 C49.1016685,14.0516496 49.29,14.5016451 49.29,15.0683146 C49.29,15.4749833 49.1983342,15.8649794 49.015,16.2383146 C48.8316657,16.6116498 48.5300021,17.0283123 48.11,17.4883146 L46.11,19.6583146 L49.59,19.6583146 Z M53.2,20.4283146 C52.3933293,20.4283146 51.7800021,20.121651 51.36,19.5083146 C50.9399979,18.8949782 50.73,18.0016538 50.73,16.8283146 C50.73,15.6483087 50.9399979,14.751651 51.36,14.1383146 C51.7800021,13.5249782 52.3933293,13.2183146 53.2,13.2183146 C54.0066707,13.2183146 54.6199979,13.5233116 55.04,14.1333146 C55.4600021,14.7433177 55.67,15.6383087 55.67,16.8183146 C55.67,17.9983205 55.4600021,18.8949782 55.04,19.5083146 C54.6199979,20.121651 54.0066707,20.4283146 53.2,20.4283146 Z M53.2,19.7383146 C53.7600028,19.7383146 54.173332,19.5016503 54.44,19.0283146 C54.706668,18.5549789 54.84,17.8183196 54.84,16.8183146 C54.84,15.8116429 54.7083346,15.0766503 54.445,14.6133146 C54.1816653,14.149979 53.7666695,13.9183146 53.2,13.9183146 C52.6399972,13.9183146 52.226668,14.1516456 51.96,14.6183146 C51.693332,15.0849836 51.56,15.8183096 51.56,16.8183146 C51.56,17.8183196 51.693332,18.5549789 51.96,19.0283146 C52.226668,19.5016503 52.6399972,19.7383146 53.2,19.7383146 Z" id="20" fill="#0F1931"></path>
                <path d="M87.57,16.7283146 C87.9833354,16.8483152 88.2999989,17.0533132 88.52,17.3433146 C88.7400011,17.6333161 88.85,17.9983124 88.85,18.4383146 C88.85,19.051651 88.6416688,19.5349795 88.225,19.8883146 C87.8083313,20.2416497 87.2433369,20.4183146 86.53,20.4183146 C86.0766644,20.4183146 85.6400021,20.3416487 85.22,20.1883146 C84.7999979,20.0349805 84.4466681,19.8216493 84.16,19.5483146 L84.47,18.9183146 C85.1100032,19.4583173 85.7899964,19.7283146 86.51,19.7283146 C87.0100025,19.7283146 87.3899987,19.6166491 87.65,19.3933146 C87.9100013,19.1699802 88.04,18.8416501 88.04,18.4083146 C88.04,17.5483103 87.5000054,17.1183146 86.42,17.1183146 L85.61,17.1183146 L85.61,16.4283146 L86.26,16.4283146 C86.7800026,16.4283146 87.1799986,16.3133158 87.46,16.0833146 C87.7400014,15.8533135 87.88,15.5216501 87.88,15.0883146 C87.88,14.7083127 87.7666678,14.416649 87.54,14.2133146 C87.3133322,14.0099803 86.9900021,13.9083146 86.57,13.9083146 C85.8899966,13.9083146 85.2233366,14.1783119 84.57,14.7183146 L84.26,14.0883146 C84.5466681,13.8149799 84.8966646,13.6016487 85.31,13.4483146 C85.7233354,13.2949805 86.1533311,13.2183146 86.6,13.2183146 C87.2400032,13.2183146 87.7483315,13.3799797 88.125,13.7033146 C88.5016686,14.0266496 88.69,14.4616452 88.69,15.0083146 C88.69,15.4149833 88.5916677,15.7699798 88.395,16.0733146 C88.1983324,16.3766495 87.9233351,16.5949806 87.57,16.7283146 Z M92.6,20.4283146 C91.7933293,20.4283146 91.1800021,20.121651 90.76,19.5083146 C90.3399979,18.8949782 90.13,18.0016538 90.13,16.8283146 C90.13,15.6483087 90.3399979,14.751651 90.76,14.1383146 C91.1800021,13.5249782 91.7933293,13.2183146 92.6,13.2183146 C93.4066707,13.2183146 94.0199979,13.5233116 94.44,14.1333146 C94.8600021,14.7433177 95.07,15.6383087 95.07,16.8183146 C95.07,17.9983205 94.8600021,18.8949782 94.44,19.5083146 C94.0199979,20.121651 93.4066707,20.4283146 92.6,20.4283146 Z M92.6,19.7383146 C93.1600028,19.7383146 93.573332,19.5016503 93.84,19.0283146 C94.106668,18.5549789 94.24,17.8183196 94.24,16.8183146 C94.24,15.8116429 94.1083347,15.0766503 93.845,14.6133146 C93.5816654,14.149979 93.1666695,13.9183146 92.6,13.9183146 C92.0399972,13.9183146 91.626668,14.1516456 91.36,14.6183146 C91.093332,15.0849836 90.96,15.8183096 90.96,16.8183146 C90.96,17.8183196 91.093332,18.5549789 91.36,19.0283146 C91.626668,19.5016503 92.0399972,19.7383146 92.6,19.7383146 Z" id="30" fill="#0F1931"></path>
                <path d="M130.04,18.1383146 L130.04,18.8183146 L128.98,18.8183146 L128.98,20.3483146 L128.17,20.3483146 L128.17,18.8183146 L124.91,18.8183146 L124.91,18.1983146 L128.31,13.2983146 L128.98,13.2983146 L128.98,18.1383146 L130.04,18.1383146 Z M125.76,18.1383146 L128.17,18.1383146 L128.17,14.6683146 L125.76,18.1383146 Z M133.4,20.4283146 C132.593329,20.4283146 131.980002,20.121651 131.56,19.5083146 C131.139998,18.8949782 130.93,18.0016538 130.93,16.8283146 C130.93,15.6483087 131.139998,14.751651 131.56,14.1383146 C131.980002,13.5249782 132.593329,13.2183146 133.4,13.2183146 C134.206671,13.2183146 134.819998,13.5233116 135.24,14.1333146 C135.660002,14.7433177 135.87,15.6383087 135.87,16.8183146 C135.87,17.9983205 135.660002,18.8949782 135.24,19.5083146 C134.819998,20.121651 134.206671,20.4283146 133.4,20.4283146 Z M133.4,19.7383146 C133.960003,19.7383146 134.373332,19.5016503 134.64,19.0283146 C134.906668,18.5549789 135.04,17.8183196 135.04,16.8183146 C135.04,15.8116429 134.908335,15.0766503 134.645,14.6133146 C134.381665,14.149979 133.96667,13.9183146 133.4,13.9183146 C132.839997,13.9183146 132.426668,14.1516456 132.16,14.6183146 C131.893332,15.0849836 131.76,15.8183096 131.76,16.8183146 C131.76,17.8183196 131.893332,18.5549789 132.16,19.0283146 C132.426668,19.5016503 132.839997,19.7383146 133.4,19.7383146 Z" id="40" fill="#0F1931"></path>
                <path d="M167.3,15.9283146 C167.746669,15.9283146 168.134998,16.021647 168.465,16.2083146 C168.795002,16.3949822 169.049999,16.6566463 169.23,16.9933146 C169.410001,17.329983 169.5,17.7183124 169.5,18.1583146 C169.5,18.6049835 169.401668,18.9983129 169.205,19.3383146 C169.008332,19.6783163 168.730002,19.9433137 168.37,20.1333146 C168.009998,20.3233156 167.590002,20.4183146 167.11,20.4183146 C166.683331,20.4183146 166.261669,20.3399821 165.845,20.1833146 C165.428331,20.0266472 165.076668,19.8149826 164.79,19.5483146 L165.1,18.9183146 C165.753337,19.4583173 166.42333,19.7283146 167.11,19.7283146 C167.603336,19.7283146 167.989999,19.588316 168.27,19.3083146 C168.550001,19.0283132 168.69,18.648317 168.69,18.1683146 C168.69,17.7016456 168.551668,17.3249827 168.275,17.0383146 C167.998332,16.7516465 167.630002,16.6083146 167.17,16.6083146 C166.496663,16.6083146 165.960002,16.8816452 165.56,17.4283146 L164.99,17.4283146 L164.99,13.2983146 L169.22,13.2983146 L169.22,13.9783146 L165.8,13.9783146 L165.8,16.4883146 C165.986668,16.3083137 166.208332,16.1699818 166.465,16.0733146 C166.721668,15.9766475 166.999998,15.9283146 167.3,15.9283146 Z M173,20.4283146 C172.193329,20.4283146 171.580002,20.121651 171.16,19.5083146 C170.739998,18.8949782 170.53,18.0016538 170.53,16.8283146 C170.53,15.6483087 170.739998,14.751651 171.16,14.1383146 C171.580002,13.5249782 172.193329,13.2183146 173,13.2183146 C173.806671,13.2183146 174.419998,13.5233116 174.84,14.1333146 C175.260002,14.7433177 175.47,15.6383087 175.47,16.8183146 C175.47,17.9983205 175.260002,18.8949782 174.84,19.5083146 C174.419998,20.121651 173.806671,20.4283146 173,20.4283146 Z M173,19.7383146 C173.560003,19.7383146 173.973332,19.5016503 174.24,19.0283146 C174.506668,18.5549789 174.64,17.8183196 174.64,16.8183146 C174.64,15.8116429 174.508335,15.0766503 174.245,14.6133146 C173.981665,14.149979 173.566669,13.9183146 173,13.9183146 C172.439997,13.9183146 172.026668,14.1516456 171.76,14.6183146 C171.493332,15.0849836 171.36,15.8183096 171.36,16.8183146 C171.36,17.8183196 171.493332,18.5549789 171.76,19.0283146 C172.026668,19.5016503 172.439997,19.7383146 173,19.7383146 Z" id="50" fill="#0F1931"></path>
                <path d="M207.105,15.9183146 C207.531669,15.9183146 207.911665,16.011647 208.245,16.1983146 C208.578335,16.3849822 208.838332,16.6483129 209.025,16.9883146 C209.211668,17.3283163 209.305,17.7183124 209.305,18.1583146 C209.305,18.5916501 209.208334,18.9816462 209.015,19.3283146 C208.821666,19.674983 208.551668,19.9449803 208.205,20.1383146 C207.858332,20.3316489 207.468335,20.4283146 207.035,20.4283146 C206.181662,20.4283146 205.523336,20.1316509 205.06,19.5383146 C204.596664,18.9449783 204.365,18.0983201 204.365,16.9983146 C204.365,16.2049773 204.473332,15.5249841 204.69,14.9583146 C204.906668,14.3916451 205.218331,13.9599828 205.625,13.6633146 C206.031669,13.3666465 206.51833,13.2183146 207.085,13.2183146 C207.491669,13.2183146 207.888331,13.2933139 208.275,13.4433146 C208.661669,13.5933154 209.001665,13.8083132 209.295,14.0883146 L208.985,14.7183146 C208.651665,14.4383132 208.333335,14.2333153 208.03,14.1033146 C207.726665,13.973314 207.418335,13.9083146 207.105,13.9083146 C206.49833,13.9083146 206.026668,14.1766453 205.69,14.7133146 C205.353332,15.249984 205.185,16.0083097 205.185,16.9883146 L205.185,17.1383146 C205.338334,16.7649794 205.584998,16.4683157 205.925,16.2483146 C206.265002,16.0283135 206.658331,15.9183146 207.105,15.9183146 Z M206.995,19.7383146 C207.448336,19.7383146 207.811665,19.5949827 208.085,19.3083146 C208.358335,19.0216465 208.495,18.6416503 208.495,18.1683146 C208.495,17.7016456 208.356668,17.3249827 208.08,17.0383146 C207.803332,16.7516465 207.438336,16.6083146 206.985,16.6083146 C206.524998,16.6083146 206.150001,16.7533132 205.86,17.0433146 C205.569999,17.3333161 205.425,17.7083123 205.425,18.1683146 C205.425,18.6349836 205.569999,19.0133132 205.86,19.3033146 C206.150001,19.5933161 206.528331,19.7383146 206.995,19.7383146 Z M212.795,20.4283146 C211.988329,20.4283146 211.375002,20.121651 210.955,19.5083146 C210.534998,18.8949782 210.325,18.0016538 210.325,16.8283146 C210.325,15.6483087 210.534998,14.751651 210.955,14.1383146 C211.375002,13.5249782 211.988329,13.2183146 212.795,13.2183146 C213.601671,13.2183146 214.214998,13.5233116 214.635,14.1333146 C215.055002,14.7433177 215.265,15.6383087 215.265,16.8183146 C215.265,17.9983205 215.055002,18.8949782 214.635,19.5083146 C214.214998,20.121651 213.601671,20.4283146 212.795,20.4283146 Z M212.795,19.7383146 C213.355003,19.7383146 213.768332,19.5016503 214.035,19.0283146 C214.301668,18.5549789 214.435,17.8183196 214.435,16.8183146 C214.435,15.8116429 214.303335,15.0766503 214.04,14.6133146 C213.776665,14.149979 213.361669,13.9183146 212.795,13.9183146 C212.234997,13.9183146 211.821668,14.1516456 211.555,14.6183146 C211.288332,15.0849836 211.155,15.8183096 211.155,16.8183146 C211.155,17.8183196 211.288332,18.5549789 211.555,19.0283146 C211.821668,19.5016503 212.234997,19.7383146 212.795,19.7383146 Z" id="60" fill="#0F1931"></path>
                <path d="M244.07,13.2983146 L248.73,13.2983146 L248.73,13.9083146 L245.43,20.3483146 L244.54,20.3483146 L247.83,13.9883146 L244.07,13.9883146 L244.07,13.2983146 Z M252.4,20.4283146 C251.593329,20.4283146 250.980002,20.121651 250.56,19.5083146 C250.139998,18.8949782 249.93,18.0016538 249.93,16.8283146 C249.93,15.6483087 250.139998,14.751651 250.56,14.1383146 C250.980002,13.5249782 251.593329,13.2183146 252.4,13.2183146 C253.206671,13.2183146 253.819998,13.5233116 254.24,14.1333146 C254.660002,14.7433177 254.87,15.6383087 254.87,16.8183146 C254.87,17.9983205 254.660002,18.8949782 254.24,19.5083146 C253.819998,20.121651 253.206671,20.4283146 252.4,20.4283146 Z M252.4,19.7383146 C252.960003,19.7383146 253.373332,19.5016503 253.64,19.0283146 C253.906668,18.5549789 254.04,17.8183196 254.04,16.8183146 C254.04,15.8116429 253.908335,15.0766503 253.645,14.6133146 C253.381665,14.149979 252.966669,13.9183146 252.4,13.9183146 C251.839997,13.9183146 251.426668,14.1516456 251.16,14.6183146 C250.893332,15.0849836 250.76,15.8183096 250.76,16.8183146 C250.76,17.8183196 250.893332,18.5549789 251.16,19.0283146 C251.426668,19.5016503 251.839997,19.7383146 252.4,19.7383146 Z" id="70" fill="#0F1931"></path>
                <g id="Ticks" transform="translate(129.826966, 3.126966) rotate(-90.000000) translate(-129.826966, -3.126966) translate(127.326966, -117.873034)" stroke="#0F1931" stroke-linecap="round" stroke-width="2">
                    <path d="M4.12696629,1.17303371 L0.126966292,1.17303371" id="1"></path>
                    <path d="M4.12696629,41.1730337 L0.126966292,41.1730337" id="2"></path>
                    <path d="M4.12696629,81.1730337 L0.126966292,81.1730337" id="3"></path>
                    <path d="M4.12696629,121.173034 L0.126966292,121.173034" id="4"></path>
                    <path d="M4.12696629,161.173034 L0.126966292,161.173034" id="5"></path>
                    <path d="M4.12696629,201.173034 L0.126966292,201.173034" id="6"></path>
                    <path d="M4.12696629,241.173034 L0.126966292,241.173034" id="8"></path>
                </g>
            </g>
            <g id="Y-Axis" transform="translate(0.000000, 43.500000)">
                <path d="M21.3897436,3.39069042 C21.8364125,3.39069042 22.2247419,3.48402282 22.5547436,3.67069042 C22.8847452,3.85735802 23.1397427,4.11902207 23.3197436,4.45569042 C23.4997445,4.79235877 23.5897436,5.18068822 23.5897436,5.62069042 C23.5897436,6.06735932 23.4914112,6.46068872 23.2947436,6.80069042 C23.0980759,7.14069212 22.8197454,7.40568947 22.4597436,7.59569042 C22.0997418,7.78569137 21.679746,7.88069042 21.1997436,7.88069042 C20.7730748,7.88069042 20.3514123,7.80235787 19.9347436,7.64569042 C19.5180748,7.48902297 19.1664117,7.27735842 18.8797436,7.01069042 L19.1897436,6.38069042 C19.8430802,6.92069312 20.5130735,7.19069042 21.1997436,7.19069042 C21.6930794,7.19069042 22.0797422,7.05069182 22.3597436,6.77069042 C22.639745,6.49068902 22.7797436,6.11069282 22.7797436,5.63069042 C22.7797436,5.16402142 22.6414116,4.78735852 22.3647436,4.50069042 C22.0880755,4.21402232 21.7197459,4.07069042 21.2597436,4.07069042 C20.5864069,4.07069042 20.0497456,4.34402102 19.6497436,4.89069042 L19.0797436,4.89069042 L19.0797436,0.760690423 L23.3097436,0.760690423 L23.3097436,1.44069042 L19.8897436,1.44069042 L19.8897436,3.95069042 C20.0764112,3.77068952 20.2980756,3.63235757 20.5547436,3.53569042 C20.8114115,3.43902327 21.0897421,3.39069042 21.3897436,3.39069042 Z" id="5" stroke="#979797" fill="#0F1931"></path>
                <path d="M23.7297436,48.5017404 L23.7297436,49.1817404 L22.6697436,49.1817404 L22.6697436,50.7117404 L21.8597436,50.7117404 L21.8597436,49.1817404 L18.5997436,49.1817404 L18.5997436,48.5617404 L21.9997436,43.6617404 L22.6697436,43.6617404 L22.6697436,48.5017404 L23.7297436,48.5017404 Z M19.4497436,48.5017404 L21.8597436,48.5017404 L21.8597436,45.0317404 L19.4497436,48.5017404 Z" id="4" stroke="#979797" fill="#0F1931"></path>
                <path d="M22.0597436,89.3170029 C22.473079,89.4370035 22.7897425,89.6420014 23.0097436,89.9320029 C23.2297447,90.2220043 23.3397436,90.5870007 23.3397436,91.0270029 C23.3397436,91.6403393 23.1314123,92.1236678 22.7147436,92.4770029 C22.2980748,92.830338 21.7330805,93.0070029 21.0197436,93.0070029 C20.566408,93.0070029 20.1297457,92.930337 19.7097436,92.7770029 C19.2897415,92.6236688 18.9364117,92.4103376 18.6497436,92.1370029 L18.9597436,91.5070029 C19.5997468,92.0470056 20.27974,92.3170029 20.9997436,92.3170029 C21.4997461,92.3170029 21.8797423,92.2053373 22.1397436,91.9820029 C22.3997449,91.7586684 22.5297436,91.4303384 22.5297436,90.9970029 C22.5297436,90.1369986 21.989749,89.7070029 20.9097436,89.7070029 L20.0997436,89.7070029 L20.0997436,89.0170029 L20.7497436,89.0170029 C21.2697462,89.0170029 21.6697422,88.902004 21.9497436,88.6720029 C22.229745,88.4420017 22.3697436,88.1103384 22.3697436,87.6770029 C22.3697436,87.297001 22.2564114,87.0053372 22.0297436,86.8020029 C21.8030758,86.5986685 21.4797457,86.4970029 21.0597436,86.4970029 C20.3797402,86.4970029 19.7130802,86.7670002 19.0597436,87.3070029 L18.7497436,86.6770029 C19.0364117,86.4036682 19.3864082,86.190337 19.7997436,86.0370029 C20.213079,85.8836688 20.6430747,85.8070029 21.0897436,85.8070029 C21.7297468,85.8070029 22.238075,85.9686679 22.6147436,86.2920029 C22.9914121,86.6153378 23.1797436,87.0503335 23.1797436,87.5970029 C23.1797436,88.0036716 23.0814112,88.358668 22.8847436,88.6620029 C22.6880759,88.9653377 22.4130787,89.1836689 22.0597436,89.3170029 Z" id="3" stroke="#979797" fill="#0F1931"></path>
                <path d="M23.4797436,134.873156 L23.4797436,135.563156 L18.9397436,135.563156 L18.9397436,134.943156 L21.4097436,132.223156 C21.7430786,131.849821 21.9847428,131.514824 22.1347436,131.218156 C22.2847443,130.921488 22.3597436,130.623158 22.3597436,130.323156 C22.3597436,129.936488 22.2464114,129.639824 22.0197436,129.433156 C21.7930758,129.226489 21.473079,129.123156 21.0597436,129.123156 C20.3797402,129.123156 19.7130802,129.393154 19.0597436,129.933156 L18.7497436,129.303156 C19.029745,129.036488 19.3814081,128.824824 19.8047436,128.668156 C20.228079,128.511489 20.6530748,128.433156 21.0797436,128.433156 C21.7264135,128.433156 22.238075,128.599821 22.6147436,128.933156 C22.9914121,129.266491 23.1797436,129.716487 23.1797436,130.283156 C23.1797436,130.689825 23.0880778,131.079821 22.9047436,131.453156 C22.7214093,131.826491 22.4197457,132.243154 21.9997436,132.703156 L19.9997436,134.873156 L23.4797436,134.873156 Z" id="2" stroke="#979797" fill="#0F1931"></path>
                <polygon id="1" stroke="#979797" fill="#0F1931" points="21.7597436 177.49931 23.3097436 177.49931 23.3097436 178.18931 19.3897436 178.18931 19.3897436 177.49931 20.9397436 177.49931 20.9397436 172.15931 19.6997436 172.93931 19.3197436 172.30931 21.1697436 171.13931 21.7597436 171.13931"></polygon>
                <g id="ticks" transform="translate(29.628205, 3.409800)" stroke="#0F1931" stroke-linecap="round" stroke-width="2">
                    <path d="M4.37179487,1.09020045 L0.371794872,1.09020045" id="1"></path>
                    <path d="M4.37179487,44.0902004 L0.371794872,44.0902004" id="5"></path>
                    <path d="M4.37179487,86.0902004 L0.371794872,86.0902004" id="6"></path>
                    <path d="M4.37179487,129.0902 L0.374117942,129.0902" id="7"></path>
                    <path d="M4.37179487,171.0902 L0.371794872,171.0902" id="8"></path>
                </g>
                <path d="M-8.395,80.09 C-9.0883368,80.09 -9.69333075,79.9416681 -10.21,79.645 C-10.7266693,79.3483318 -11.123332,78.9266694 -11.4,78.38 C-11.676668,77.8333306 -11.815,77.1966703 -11.815,76.47 C-11.815,75.7433297 -11.676668,75.1083361 -11.4,74.565 C-11.123332,74.021664 -10.7266693,73.6016681 -10.21,73.305 C-9.69333075,73.0083319 -9.0883368,72.86 -8.395,72.86 C-7.9216643,72.86 -7.4750021,72.9333326 -7.055,73.08 C-6.6349979,73.2266674 -6.2816681,73.433332 -5.995,73.7 L-6.425,74.64 C-6.7450016,74.3866654 -7.0616651,74.2016672 -7.375,74.085 C-7.6883349,73.9683328 -8.0216649,73.91 -8.375,73.91 C-9.0550034,73.91 -9.57999815,74.1299978 -9.95,74.57 C-10.3200018,75.0100022 -10.505,75.6433292 -10.505,76.47 C-10.505,77.3033375 -10.3200018,77.9399978 -9.95,78.38 C-9.57999815,78.8200022 -9.0550034,79.04 -8.375,79.04 C-8.0216649,79.04 -7.6883349,78.9816673 -7.375,78.865 C-7.0616651,78.7483328 -6.7450016,78.5633346 -6.425,78.31 L-5.995,79.25 C-6.2816681,79.516668 -6.6349979,79.7233326 -7.055,79.87 C-7.4750021,80.0166674 -7.9216643,80.09 -8.395,80.09 Z M-2.695,80.08 C-3.1950025,80.08 -3.63333145,79.9766677 -4.01,79.77 C-4.38666855,79.5633323 -4.6783323,79.2666686 -4.885,78.88 C-5.0916677,78.4933314 -5.195,78.0433359 -5.195,77.53 C-5.195,77.0166641 -5.0916677,76.5683353 -4.885,76.185 C-4.6783323,75.8016648 -4.38666855,75.5066677 -4.01,75.3 C-3.63333145,75.0933323 -3.1950025,74.99 -2.695,74.99 C-2.1949975,74.99 -1.75666855,75.0933323 -1.38,75.3 C-1.00333145,75.5066677 -0.71333435,75.8016648 -0.51,76.185 C-0.30666565,76.5683353 -0.205,77.0166641 -0.205,77.53 C-0.205,78.0433359 -0.30666565,78.4933314 -0.51,78.88 C-0.71333435,79.2666686 -1.00333145,79.5633323 -1.38,79.77 C-1.75666855,79.9766677 -2.1949975,80.08 -2.695,80.08 Z M-2.705,79.11 C-2.2983313,79.11 -1.9883344,78.976668 -1.775,78.71 C-1.5616656,78.443332 -1.455,78.0500026 -1.455,77.53 C-1.455,77.0166641 -1.5616656,76.6250014 -1.775,76.355 C-1.9883344,76.0849987 -2.294998,75.95 -2.695,75.95 C-3.095002,75.95 -3.40333225,76.0849987 -3.62,76.355 C-3.83666775,76.6250014 -3.945,77.0166641 -3.945,77.53 C-3.945,78.0500026 -3.8383344,78.443332 -3.625,78.71 C-3.4116656,78.976668 -3.105002,79.11 -2.705,79.11 Z M5.315,75.11 L5.315,80 L4.095,80 L4.095,79.25 C3.9416659,79.516668 3.7350013,79.721666 3.475,79.865 C3.2149987,80.0083341 2.9216683,80.08 2.595,80.08 C1.394994,80.08 0.795,79.4066734 0.795,78.06 L0.795,75.11 L2.045,75.11 L2.045,78.07 C2.045,78.4166684 2.1149993,78.6733325 2.255,78.84 C2.3950007,79.0066675 2.6149985,79.09 2.915,79.09 C3.2616684,79.09 3.53999895,78.9750011 3.75,78.745 C3.96000105,78.5149988 4.065,78.2100019 4.065,77.83 L4.065,75.11 L5.315,75.11 Z M9.455,74.99 C10.0416696,74.99 10.4783319,75.156665 10.765,75.49 C11.0516681,75.823335 11.195,76.3266633 11.195,77 L11.195,80 L9.945,80 L9.945,77.07 C9.945,76.6899981 9.87333405,76.4133342 9.73,76.24 C9.58666595,76.0666658 9.3616682,75.98 9.055,75.98 C8.6949982,75.98 8.40666775,76.0933322 8.19,76.32 C7.97333225,76.5466678 7.865,76.8499981 7.865,77.23 L7.865,80 L6.615,80 L6.615,75.11 L7.835,75.11 L7.835,75.84 C8.0016675,75.5666653 8.2249986,75.3566674 8.505,75.21 C8.7850014,75.0633326 9.1016649,74.99 9.455,74.99 Z M14.965,79.14 C15.1116674,79.14 15.2649992,79.1300001 15.425,79.11 L15.365,80.04 C15.164999,80.0600001 14.9816675,80.07 14.815,80.07 C14.1283299,80.07 13.6216683,79.9116683 13.295,79.595 C12.9683317,79.2783318 12.805,78.8066698 12.805,78.18 L12.805,76.05 L11.865,76.05 L11.865,75.11 L12.805,75.11 L12.805,73.65 L14.055,73.65 L14.055,75.11 L15.345,75.11 L15.345,76.05 L14.055,76.05 L14.055,78.16 C14.055,78.8133366 14.3583303,79.14 14.965,79.14 Z M17.955,80.08 C17.5216645,80.08 17.1233351,80.0266672 16.76,79.92 C16.3966649,79.8133328 16.0883346,79.660001 15.835,79.46 L16.185,78.59 C16.7050026,78.9700019 17.3016633,79.16 17.975,79.16 C18.2616681,79.16 18.4799992,79.1133338 18.63,79.02 C18.7800008,78.9266662 18.855,78.7933342 18.855,78.62 C18.855,78.4733326 18.8033338,78.3600004 18.7,78.28 C18.5966662,78.1999996 18.411668,78.126667 18.145,78.06 L17.345,77.88 C16.8916644,77.7799995 16.5550011,77.6166678 16.335,77.39 C16.1149989,77.1633322 16.005,76.8700018 16.005,76.51 C16.005,76.2099985 16.0899992,75.9450011 16.26,75.715 C16.4300009,75.4849988 16.6666652,75.3066673 16.97,75.18 C17.2733349,75.0533327 17.624998,74.99 18.025,74.99 C18.3716684,74.99 18.7066651,75.0433328 19.03,75.15 C19.353335,75.2566672 19.6383321,75.4066657 19.885,75.6 L19.535,76.45 C19.0283308,76.0833315 18.5216692,75.9 18.015,75.9 C17.7416653,75.9 17.5283341,75.9499995 17.375,76.05 C17.2216659,76.1500005 17.145,76.2899991 17.145,76.47 C17.145,76.603334 17.1933328,76.7133329 17.29,76.8 C17.3866672,76.8866671 17.5416656,76.9533331 17.755,77 L18.585,77.19 C19.0716691,77.2966672 19.4283322,77.4649989 19.655,77.695 C19.8816678,77.9250011 19.995,78.2266648 19.995,78.6 C19.995,79.0533356 19.8116685,79.413332 19.445,79.68 C19.0783315,79.946668 18.5816698,80.08 17.955,80.08 Z" id="Counts" fill="#0F1931" transform="translate(4.090000, 76.475000) rotate(-90.000000) translate(-4.090000, -76.475000) "></path>
            </g>
            <path d="M116.444,11.126 C115.687996,11.126 114.97867,11.0233344 114.316,10.818 C113.65333,10.6126656 113.093336,10.3233352 112.636,9.95 L113.238,8.634 C113.714002,8.99800182 114.215664,9.26399916 114.743,9.432 C115.270336,9.60000084 115.841997,9.684 116.458,9.684 C117.139337,9.684 117.664331,9.56500119 118.033,9.327 C118.401669,9.08899881 118.586,8.75533548 118.586,8.326 C118.586,7.9526648 118.415668,7.66800098 118.075,7.472 C117.734332,7.27599902 117.167337,7.08933422 116.374,6.912 C115.552663,6.73466578 114.885336,6.5293345 114.372,6.296 C113.858664,6.0626655 113.471335,5.76400182 113.21,5.4 C112.948665,5.03599818 112.818,4.5740028 112.818,4.014 C112.818,3.43533044 112.976665,2.91733562 113.294,2.46 C113.611335,2.00266438 114.05933,1.64566795 114.638,1.389 C115.21667,1.13233205 115.883996,1.004 116.64,1.004 C117.33067,1.004 117.988664,1.10899895 118.614,1.319 C119.239336,1.52900105 119.752665,1.81599818 120.154,2.18 L119.552,3.496 C118.674662,2.7959965 117.704005,2.446 116.64,2.446 C116.00533,2.446 115.503669,2.57433205 115.135,2.831 C114.766331,3.08766795 114.582,3.44466438 114.582,3.902 C114.582,4.28466858 114.745332,4.57866564 115.072,4.784 C115.398668,4.98933436 115.953996,5.18066578 116.738,5.358 C117.568671,5.5446676 118.242997,5.75233219 118.761,5.981 C119.279003,6.20966781 119.675665,6.50133156 119.951,6.856 C120.226335,7.21066844 120.364,7.65866396 120.364,8.2 C120.364,8.78800294 120.207668,9.30366445 119.895,9.747 C119.582332,10.1903356 119.12967,10.5309988 118.537,10.769 C117.94433,11.0070012 117.246671,11.126 116.444,11.126 Z M130.01,3.986 C130.784671,3.986 131.363331,4.21699769 131.746,4.679 C132.128669,5.14100231 132.32,5.84799524 132.32,6.8 L132.32,11 L130.57,11 L130.57,6.87 C130.57,6.34733072 130.481334,5.96700119 130.304,5.729 C130.126666,5.49099881 129.842002,5.372 129.45,5.372 C128.983331,5.372 128.619335,5.53066508 128.358,5.848 C128.096665,6.16533492 127.966,6.60866382 127.966,7.178 L127.966,11 L126.216,11 L126.216,6.87 C126.216,6.34733072 126.129668,5.96700119 125.957,5.729 C125.784332,5.49099881 125.497335,5.372 125.096,5.372 C124.638664,5.372 124.279335,5.53066508 124.018,5.848 C123.756665,6.16533492 123.626,6.60866382 123.626,7.178 L123.626,11 L121.876,11 L121.876,4.154 L123.584,4.154 L123.584,5.12 C123.789334,4.7466648 124.073998,4.46433429 124.438,4.273 C124.802002,4.08166571 125.217331,3.986 125.684,3.986 C126.720005,3.986 127.405998,4.41532904 127.742,5.274 C127.956668,4.87266466 128.264665,4.55766781 128.666,4.329 C129.067335,4.10033219 129.515331,3.986 130.01,3.986 Z M137.038,3.986 C137.999338,3.986 138.713331,4.219331 139.18,4.686 C139.646669,5.152669 139.88,5.87132848 139.88,6.842 L139.88,11 L138.214,11 L138.214,9.95 C138.055333,10.3140018 137.805668,10.5986656 137.465,10.804 C137.124332,11.0093344 136.730002,11.112 136.282,11.112 C135.824664,11.112 135.409335,11.0186676 135.036,10.832 C134.662665,10.6453324 134.368668,10.3886683 134.154,10.062 C133.939332,9.7353317 133.832,9.37133534 133.832,8.97 C133.832,8.46599748 133.960332,8.06933478 134.217,7.78 C134.473668,7.49066522 134.89133,7.28066732 135.47,7.15 C136.04867,7.01933268 136.846662,6.954 137.864,6.954 L138.214,6.954 L138.214,6.632 C138.214,6.165331 138.113668,5.82933436 137.913,5.624 C137.712332,5.41866564 137.378669,5.316 136.912,5.316 C136.547998,5.316 136.167669,5.37899937 135.771,5.505 C135.374331,5.63100063 134.984669,5.80599888 134.602,6.03 L134.112,4.826 C134.494669,4.58333212 134.956664,4.38266746 135.498,4.224 C136.039336,4.06533254 136.552664,3.986 137.038,3.986 Z M136.632,9.852 C137.098669,9.852 137.478999,9.69566823 137.773,9.383 C138.067001,9.07033177 138.214,8.66666914 138.214,8.172 L138.214,7.878 L137.962,7.878 C137.336664,7.878 136.851335,7.90599972 136.506,7.962 C136.160665,8.01800028 135.913334,8.1159993 135.764,8.256 C135.614666,8.3960007 135.54,8.58733212 135.54,8.83 C135.54,9.12866816 135.642666,9.37366571 135.848,9.565 C136.053334,9.75633429 136.314665,9.852 136.632,9.852 Z M141.658,11 L141.658,1.13 L143.408,1.13 L143.408,11 L141.658,11 Z M145.214,11 L145.214,1.13 L146.964,1.13 L146.964,11 L145.214,11 Z M154.776,7.892 L150.114,7.892 C150.17,8.52666984 150.361332,8.99799846 150.688,9.306 C151.014668,9.61400154 151.48133,9.768 152.088,9.768 C152.844004,9.768 153.534664,9.52533576 154.16,9.04 L154.664,10.244 C154.346665,10.5053346 153.947669,10.7153325 153.467,10.874 C152.986331,11.0326675 152.503336,11.112 152.018,11.112 C150.897994,11.112 150.01367,10.7946698 149.365,10.16 C148.71633,9.52533016 148.392,8.65733884 148.392,7.556 C148.392,6.8559965 148.531999,6.23533604 148.812,5.694 C149.092001,5.15266396 149.486331,4.73266816 149.995,4.434 C150.503669,4.13533184 151.079997,3.986 151.724,3.986 C152.666671,3.986 153.410997,4.2893303 153.957,4.896 C154.503003,5.5026697 154.776,6.33799468 154.776,7.402 L154.776,7.892 Z M151.766,5.218 C151.299331,5.218 150.923668,5.36733184 150.639,5.666 C150.354332,5.96466816 150.179334,6.3939972 150.114,6.954 L153.278,6.954 C153.259333,6.38466382 153.119335,5.95300147 152.858,5.659 C152.596665,5.36499853 152.232669,5.218 151.766,5.218 Z M160.712,5.442 L159.69,5.54 C158.532661,5.66133394 157.954,6.24932806 157.954,7.304 L157.954,11 L156.204,11 L156.204,4.154 L157.87,4.154 L157.87,5.358 C158.224668,4.53666256 158.957328,4.08866704 160.068,4.014 L160.6,3.972 L160.712,5.442 Z M172.752,1.13 L174.586,1.13 L170.19,11 L168.72,11 L164.324,1.13 L166.186,1.13 L169.462,8.76 L172.752,1.13 Z M178.296,3.986 C179.257338,3.986 179.971331,4.219331 180.438,4.686 C180.904669,5.152669 181.138,5.87132848 181.138,6.842 L181.138,11 L179.472,11 L179.472,9.95 C179.313333,10.3140018 179.063668,10.5986656 178.723,10.804 C178.382332,11.0093344 177.988002,11.112 177.54,11.112 C177.082664,11.112 176.667335,11.0186676 176.294,10.832 C175.920665,10.6453324 175.626668,10.3886683 175.412,10.062 C175.197332,9.7353317 175.09,9.37133534 175.09,8.97 C175.09,8.46599748 175.218332,8.06933478 175.475,7.78 C175.731668,7.49066522 176.14933,7.28066732 176.728,7.15 C177.30667,7.01933268 178.104662,6.954 179.122,6.954 L179.472,6.954 L179.472,6.632 C179.472,6.165331 179.371668,5.82933436 179.171,5.624 C178.970332,5.41866564 178.636669,5.316 178.17,5.316 C177.805998,5.316 177.425669,5.37899937 177.029,5.505 C176.632331,5.63100063 176.242669,5.80599888 175.86,6.03 L175.37,4.826 C175.752669,4.58333212 176.214664,4.38266746 176.756,4.224 C177.297336,4.06533254 177.810664,3.986 178.296,3.986 Z M177.89,9.852 C178.356669,9.852 178.736999,9.69566823 179.031,9.383 C179.325001,9.07033177 179.472,8.66666914 179.472,8.172 L179.472,7.878 L179.22,7.878 C178.594664,7.878 178.109335,7.90599972 177.764,7.962 C177.418665,8.01800028 177.171334,8.1159993 177.022,8.256 C176.872666,8.3960007 176.798,8.58733212 176.798,8.83 C176.798,9.12866816 176.900666,9.37366571 177.106,9.565 C177.311334,9.75633429 177.572665,9.852 177.89,9.852 Z M187.424,5.442 L186.402,5.54 C185.244661,5.66133394 184.666,6.24932806 184.666,7.304 L184.666,11 L182.916,11 L182.916,4.154 L184.582,4.154 L184.582,5.358 C184.936668,4.53666256 185.669328,4.08866704 186.78,4.014 L187.312,3.972 L187.424,5.442 Z M188.278,11 L188.278,4.154 L190.028,4.154 L190.028,11 L188.278,11 Z M188.18,0.976 L190.112,0.976 L190.112,2.698 L188.18,2.698 L188.18,0.976 Z M194.774,3.986 C195.735338,3.986 196.449331,4.219331 196.916,4.686 C197.382669,5.152669 197.616,5.87132848 197.616,6.842 L197.616,11 L195.95,11 L195.95,9.95 C195.791333,10.3140018 195.541668,10.5986656 195.201,10.804 C194.860332,11.0093344 194.466002,11.112 194.018,11.112 C193.560664,11.112 193.145335,11.0186676 192.772,10.832 C192.398665,10.6453324 192.104668,10.3886683 191.89,10.062 C191.675332,9.7353317 191.568,9.37133534 191.568,8.97 C191.568,8.46599748 191.696332,8.06933478 191.953,7.78 C192.209668,7.49066522 192.62733,7.28066732 193.206,7.15 C193.78467,7.01933268 194.582662,6.954 195.6,6.954 L195.95,6.954 L195.95,6.632 C195.95,6.165331 195.849668,5.82933436 195.649,5.624 C195.448332,5.41866564 195.114669,5.316 194.648,5.316 C194.283998,5.316 193.903669,5.37899937 193.507,5.505 C193.110331,5.63100063 192.720669,5.80599888 192.338,6.03 L191.848,4.826 C192.230669,4.58333212 192.692664,4.38266746 193.234,4.224 C193.775336,4.06533254 194.288664,3.986 194.774,3.986 Z M194.368,9.852 C194.834669,9.852 195.214999,9.69566823 195.509,9.383 C195.803001,9.07033177 195.95,8.66666914 195.95,8.172 L195.95,7.878 L195.698,7.878 C195.072664,7.878 194.587335,7.90599972 194.242,7.962 C193.896665,8.01800028 193.649334,8.1159993 193.5,8.256 C193.350666,8.3960007 193.276,8.58733212 193.276,8.83 C193.276,9.12866816 193.378666,9.37366571 193.584,9.565 C193.789334,9.75633429 194.050665,9.852 194.368,9.852 Z M203.37,3.986 C204.191337,3.986 204.802665,4.219331 205.204,4.686 C205.605335,5.152669 205.806,5.85732862 205.806,6.8 L205.806,11 L204.056,11 L204.056,6.898 C204.056,6.36599734 203.955668,5.97866788 203.755,5.736 C203.554332,5.49333212 203.239335,5.372 202.81,5.372 C202.305997,5.372 201.902335,5.53066508 201.599,5.848 C201.295665,6.16533492 201.144,6.58999734 201.144,7.122 L201.144,11 L199.394,11 L199.394,4.154 L201.102,4.154 L201.102,5.176 C201.335334,4.79333142 201.647998,4.49933436 202.04,4.294 C202.432002,4.08866564 202.875331,3.986 203.37,3.986 Z M210.706,11.112 C209.98733,11.112 209.364336,10.9673348 208.837,10.678 C208.309664,10.3886652 207.906001,9.97800266 207.626,9.446 C207.345999,8.91399734 207.206,8.29333688 207.206,7.584 C207.206,6.87466312 207.352999,6.24700273 207.647,5.701 C207.941001,5.15499727 208.358664,4.73266816 208.9,4.434 C209.441336,4.13533184 210.066663,3.986 210.776,3.986 C211.261336,3.986 211.734998,4.06299923 212.197,4.217 C212.659002,4.37100077 213.029999,4.57866536 213.31,4.84 L212.806,6.072 C212.516665,5.8386655 212.211002,5.66133394 211.889,5.54 C211.566998,5.41866606 211.247335,5.358 210.93,5.358 C210.32333,5.358 209.852002,5.54699811 209.516,5.925 C209.179998,6.30300189 209.012,6.84666312 209.012,7.556 C209.012,8.2560035 209.179998,8.79499811 209.516,9.173 C209.852002,9.55100189 210.32333,9.74 210.93,9.74 C211.247335,9.74 211.566998,9.67933394 211.889,9.558 C212.211002,9.43666606 212.516665,9.2593345 212.806,9.026 L213.31,10.244 C213.011332,10.514668 212.628669,10.7269992 212.162,10.881 C211.695331,11.0350008 211.210003,11.112 210.706,11.112 Z M220.422,7.892 L215.76,7.892 C215.816,8.52666984 216.007332,8.99799846 216.334,9.306 C216.660668,9.61400154 217.12733,9.768 217.734,9.768 C218.490004,9.768 219.180664,9.52533576 219.806,9.04 L220.31,10.244 C219.992665,10.5053346 219.593669,10.7153325 219.113,10.874 C218.632331,11.0326675 218.149336,11.112 217.664,11.112 C216.543994,11.112 215.65967,10.7946698 215.011,10.16 C214.36233,9.52533016 214.038,8.65733884 214.038,7.556 C214.038,6.8559965 214.177999,6.23533604 214.458,5.694 C214.738001,5.15266396 215.132331,4.73266816 215.641,4.434 C216.149669,4.13533184 216.725997,3.986 217.37,3.986 C218.312671,3.986 219.056997,4.2893303 219.603,4.896 C220.149003,5.5026697 220.422,6.33799468 220.422,7.402 L220.422,7.892 Z M217.412,5.218 C216.945331,5.218 216.569668,5.36733184 216.285,5.666 C216.000332,5.96466816 215.825334,6.3939972 215.76,6.954 L218.924,6.954 C218.905333,6.38466382 218.765335,5.95300147 218.504,5.659 C218.242665,5.36499853 217.878669,5.218 217.412,5.218 Z M225.798,1.13 L229.438,1.13 C231.052675,1.13 232.305662,1.56166235 233.197,2.425 C234.088338,3.28833765 234.534,4.49932554 234.534,6.058 C234.534,7.61667446 234.088338,8.82999566 233.197,9.698 C232.305662,10.5660043 231.052675,11 229.438,11 L225.798,11 L225.798,1.13 Z M229.326,9.53 C231.594011,9.53 232.728,8.37267824 232.728,6.058 C232.728,3.75265514 231.594011,2.6 229.326,2.6 L227.604,2.6 L227.604,9.53 L229.326,9.53 Z M239.14,3.986 C240.101338,3.986 240.815331,4.219331 241.282,4.686 C241.748669,5.152669 241.982,5.87132848 241.982,6.842 L241.982,11 L240.316,11 L240.316,9.95 C240.157333,10.3140018 239.907668,10.5986656 239.567,10.804 C239.226332,11.0093344 238.832002,11.112 238.384,11.112 C237.926664,11.112 237.511335,11.0186676 237.138,10.832 C236.764665,10.6453324 236.470668,10.3886683 236.256,10.062 C236.041332,9.7353317 235.934,9.37133534 235.934,8.97 C235.934,8.46599748 236.062332,8.06933478 236.319,7.78 C236.575668,7.49066522 236.99333,7.28066732 237.572,7.15 C238.15067,7.01933268 238.948662,6.954 239.966,6.954 L240.316,6.954 L240.316,6.632 C240.316,6.165331 240.215668,5.82933436 240.015,5.624 C239.814332,5.41866564 239.480669,5.316 239.014,5.316 C238.649998,5.316 238.269669,5.37899937 237.873,5.505 C237.476331,5.63100063 237.086669,5.80599888 236.704,6.03 L236.214,4.826 C236.596669,4.58333212 237.058664,4.38266746 237.6,4.224 C238.141336,4.06533254 238.654664,3.986 239.14,3.986 Z M238.734,9.852 C239.200669,9.852 239.580999,9.69566823 239.875,9.383 C240.169001,9.07033177 240.316,8.66666914 240.316,8.172 L240.316,7.878 L240.064,7.878 C239.438664,7.878 238.953335,7.90599972 238.608,7.962 C238.262665,8.01800028 238.015334,8.1159993 237.866,8.256 C237.716666,8.3960007 237.642,8.58733212 237.642,8.83 C237.642,9.12866816 237.744666,9.37366571 237.95,9.565 C238.155334,9.75633429 238.416665,9.852 238.734,9.852 Z M247.26,9.796 C247.465334,9.796 247.679999,9.78200014 247.904,9.754 L247.82,11.056 C247.539999,11.0840001 247.283334,11.098 247.05,11.098 C246.088662,11.098 245.379336,10.8763356 244.922,10.433 C244.464664,9.98966445 244.236,9.32933772 244.236,8.452 L244.236,5.47 L242.92,5.47 L242.92,4.154 L244.236,4.154 L244.236,2.11 L245.986,2.11 L245.986,4.154 L247.792,4.154 L247.792,5.47 L245.986,5.47 L245.986,8.424 C245.986,9.33867124 246.410662,9.796 247.26,9.796 Z M251.866,3.986 C252.827338,3.986 253.541331,4.219331 254.008,4.686 C254.474669,5.152669 254.708,5.87132848 254.708,6.842 L254.708,11 L253.042,11 L253.042,9.95 C252.883333,10.3140018 252.633668,10.5986656 252.293,10.804 C251.952332,11.0093344 251.558002,11.112 251.11,11.112 C250.652664,11.112 250.237335,11.0186676 249.864,10.832 C249.490665,10.6453324 249.196668,10.3886683 248.982,10.062 C248.767332,9.7353317 248.66,9.37133534 248.66,8.97 C248.66,8.46599748 248.788332,8.06933478 249.045,7.78 C249.301668,7.49066522 249.71933,7.28066732 250.298,7.15 C250.87667,7.01933268 251.674662,6.954 252.692,6.954 L253.042,6.954 L253.042,6.632 C253.042,6.165331 252.941668,5.82933436 252.741,5.624 C252.540332,5.41866564 252.206669,5.316 251.74,5.316 C251.375998,5.316 250.995669,5.37899937 250.599,5.505 C250.202331,5.63100063 249.812669,5.80599888 249.43,6.03 L248.94,4.826 C249.322669,4.58333212 249.784664,4.38266746 250.326,4.224 C250.867336,4.06533254 251.380664,3.986 251.866,3.986 Z M251.46,9.852 C251.926669,9.852 252.306999,9.69566823 252.601,9.383 C252.895001,9.07033177 253.042,8.66666914 253.042,8.172 L253.042,7.878 L252.79,7.878 C252.164664,7.878 251.679335,7.90599972 251.334,7.962 C250.988665,8.01800028 250.741334,8.1159993 250.592,8.256 C250.442666,8.3960007 250.368,8.58733212 250.368,8.83 C250.368,9.12866816 250.470666,9.37366571 250.676,9.565 C250.881334,9.75633429 251.142665,9.852 251.46,9.852 Z M259.006,11.112 C258.39933,11.112 257.841669,11.0373341 257.333,10.888 C256.824331,10.7386659 256.392668,10.5240014 256.038,10.244 L256.528,9.026 C257.256004,9.55800266 258.091329,9.824 259.034,9.824 C259.435335,9.824 259.740999,9.75866732 259.951,9.628 C260.161001,9.49733268 260.266,9.31066788 260.266,9.068 C260.266,8.86266564 260.193667,8.70400056 260.049,8.592 C259.904333,8.47999944 259.645335,8.3773338 259.272,8.284 L258.152,8.032 C257.51733,7.8919993 257.046002,7.66333492 256.738,7.346 C256.429998,7.02866508 256.276,6.61800252 256.276,6.114 C256.276,5.6939979 256.394999,5.32300161 256.633,5.001 C256.871001,4.67899839 257.202331,4.42933422 257.627,4.252 C258.051669,4.07466578 258.543997,3.986 259.104,3.986 C259.589336,3.986 260.058331,4.06066592 260.511,4.21 C260.963669,4.35933408 261.362665,4.56933198 261.708,4.84 L261.218,6.03 C260.508663,5.5166641 259.799337,5.26 259.09,5.26 C258.707331,5.26 258.408668,5.3299993 258.194,5.47 C257.979332,5.6100007 257.872,5.80599874 257.872,6.058 C257.872,6.2446676 257.939666,6.39866606 258.075,6.52 C258.210334,6.64133394 258.427332,6.73466634 258.726,6.8 L259.888,7.066 C260.569337,7.21533408 261.068665,7.45099839 261.386,7.773 C261.703335,8.09500161 261.862,8.51733072 261.862,9.04 C261.862,9.67466984 261.605336,10.1786648 261.092,10.552 C260.578664,10.9253352 259.883338,11.112 259.006,11.112 Z M269.282,7.892 L264.62,7.892 C264.676,8.52666984 264.867332,8.99799846 265.194,9.306 C265.520668,9.61400154 265.98733,9.768 266.594,9.768 C267.350004,9.768 268.040664,9.52533576 268.666,9.04 L269.17,10.244 C268.852665,10.5053346 268.453669,10.7153325 267.973,10.874 C267.492331,11.0326675 267.009336,11.112 266.524,11.112 C265.403994,11.112 264.51967,10.7946698 263.871,10.16 C263.22233,9.52533016 262.898,8.65733884 262.898,7.556 C262.898,6.8559965 263.037999,6.23533604 263.318,5.694 C263.598001,5.15266396 263.992331,4.73266816 264.501,4.434 C265.009669,4.13533184 265.585997,3.986 266.23,3.986 C267.172671,3.986 267.916997,4.2893303 268.463,4.896 C269.009003,5.5026697 269.282,6.33799468 269.282,7.402 L269.282,7.892 Z M266.272,5.218 C265.805331,5.218 265.429668,5.36733184 265.145,5.666 C264.860332,5.96466816 264.685334,6.3939972 264.62,6.954 L267.784,6.954 C267.765333,6.38466382 267.625335,5.95300147 267.364,5.659 C267.102665,5.36499853 266.738669,5.218 266.272,5.218 Z M274.21,9.796 C274.415334,9.796 274.629999,9.78200014 274.854,9.754 L274.77,11.056 C274.489999,11.0840001 274.233334,11.098 274,11.098 C273.038662,11.098 272.329336,10.8763356 271.872,10.433 C271.414664,9.98966445 271.186,9.32933772 271.186,8.452 L271.186,5.47 L269.87,5.47 L269.87,4.154 L271.186,4.154 L271.186,2.11 L272.936,2.11 L272.936,4.154 L274.742,4.154 L274.742,5.47 L272.936,5.47 L272.936,8.424 C272.936,9.33867124 273.360662,9.796 274.21,9.796 Z" id="SmallerVarianceDataset" fill="#0F1931"></path>
        </g>
        <g id="Group-2-Copy" transform="translate(15.000000, 307.000000)" fill-rule="nonzero">
            <g id="Grid" transform="translate(38.000000, 35.500000)" fill="#DBE5FD">
                <g id="Bl-Grey">
                    <g id="Ver" transform="translate(36.965995, 0.000000)">
                        <rect id="Rectangle" x="0.0340050378" y="0.5" width="2" height="204"></rect>
                        <rect id="Rectangle-Copy" x="40.034005" y="0.5" width="2" height="204"></rect>
                        <rect id="Rectangle-Copy-2" x="80.034005" y="0.5" width="2" height="204"></rect>
                        <rect id="Rectangle-Copy-4" x="120.034005" y="0.5" width="2" height="204"></rect>
                        <rect id="Rectangle-Copy-5" x="200.034005" y="0.5" width="2" height="204"></rect>
                        <rect id="Rectangle-Copy-6" x="160.034005" y="0.5" width="2" height="204"></rect>
                        <rect id="Rectangle-Copy-8" x="240.034005" y="0.5" width="2" height="204"></rect>
                    </g>
                    <g id="Hor" transform="translate(0.000000, 14.417795)">
                        <polygon id="Rectangle-Copy-8" transform="translate(158.500000, 1.082205) rotate(-90.000000) translate(-158.500000, -1.082205) " points="157.699226 -157.417795 159.300774 -157.417795 159.300774 159.582205 157.699226 159.582205"></polygon>
                        <polygon id="Rectangle-Copy-12" transform="translate(158.500000, 44.082205) rotate(-90.000000) translate(-158.500000, -44.082205) " points="157.699226 -114.417795 159.300774 -114.417795 159.300774 202.582205 157.699226 202.582205"></polygon>
                        <polygon id="Rectangle-Copy-13" transform="translate(158.500000, 86.082205) rotate(-90.000000) translate(-158.500000, -86.082205) " points="157.699226 -72.417795 159.300774 -72.417795 159.300774 244.582205 157.699226 244.582205"></polygon>
                        <polygon id="Rectangle-Copy-14" transform="translate(158.500000, 129.082205) rotate(-90.000000) translate(-158.500000, -129.082205) " points="157.699226 -29.417795 159.300774 -29.417795 159.300774 287.582205 157.699226 287.582205"></polygon>
                        <polygon id="Rectangle-Copy-15" transform="translate(158.500000, 171.082205) rotate(-90.000000) translate(-158.500000, -171.082205) " points="157.699226 12.582205 159.300774 12.582205 159.300774 329.582205 157.699226 329.582205"></polygon>
                    </g>
                </g>
            </g>
            <path d="M40,36.5 C38.6192881,36.5 37.5,37.6192881 37.5,39 L37.5,237 C37.5,238.380712 38.6192881,239.5 40,239.5 L352,239.5 C353.380712,239.5 354.5,238.380712 354.5,237 L354.5,39 C354.5,37.6192881 353.380712,36.5 352,36.5 L40,36.5 Z" id="Rectangle" stroke="#0F1931"></path>
            <g id="X-Axis" transform="translate(66.000000, 239.500000)">
                <path d="M122.54,38.09 C121.573329,38.09 120.840002,37.8400025 120.34,37.34 C119.839997,36.8399975 119.59,36.1100048 119.59,35.15 L119.59,30.95 L120.85,30.95 L120.85,35.22 C120.85,35.8266697 120.993332,36.2849985 121.28,36.595 C121.566668,36.9050016 121.986664,37.06 122.54,37.06 C123.086669,37.06 123.503332,36.9033349 123.79,36.59 C124.076668,36.2766651 124.22,35.820003 124.22,35.22 L124.22,30.95 L125.48,30.95 L125.48,35.15 C125.48,36.1033381 125.230002,36.8316642 124.73,37.335 C124.229997,37.8383358 123.500005,38.09 122.54,38.09 Z M129.69,32.99 C130.27667,32.99 130.713332,33.156665 131,33.49 C131.286668,33.823335 131.43,34.3266633 131.43,35 L131.43,38 L130.18,38 L130.18,35.07 C130.18,34.6899981 130.108334,34.4133342 129.965,34.24 C129.821666,34.0666658 129.596668,33.98 129.29,33.98 C128.929998,33.98 128.641668,34.0933322 128.425,34.32 C128.208332,34.5466678 128.1,34.8499981 128.1,35.23 L128.1,38 L126.85,38 L126.85,33.11 L128.07,33.11 L128.07,33.84 C128.236668,33.5666653 128.459999,33.3566674 128.74,33.21 C129.020001,33.0633326 129.336665,32.99 129.69,32.99 Z M132.7,38 L132.7,33.11 L133.95,33.11 L133.95,38 L132.7,38 Z M132.63,30.84 L134.01,30.84 L134.01,32.07 L132.63,32.07 L132.63,30.84 Z M137.74,37.14 C137.886667,37.14 138.039999,37.1300001 138.2,37.11 L138.14,38.04 C137.939999,38.0600001 137.756667,38.07 137.59,38.07 C136.90333,38.07 136.396668,37.9116682 136.07,37.595 C135.743332,37.2783317 135.58,36.8066698 135.58,36.18 L135.58,34.05 L134.64,34.05 L134.64,33.11 L135.58,33.11 L135.58,31.65 L136.83,31.65 L136.83,33.11 L138.12,33.11 L138.12,34.05 L136.83,34.05 L136.83,36.16 C136.83,36.8133366 137.13333,37.14 137.74,37.14 Z M140.73,38.08 C140.296664,38.08 139.898335,38.0266672 139.535,37.92 C139.171665,37.8133328 138.863335,37.660001 138.61,37.46 L138.96,36.59 C139.480003,36.9700019 140.076663,37.16 140.75,37.16 C141.036668,37.16 141.254999,37.1133338 141.405,37.02 C141.555001,36.9266662 141.63,36.7933342 141.63,36.62 C141.63,36.4733326 141.578334,36.3600004 141.475,36.28 C141.371666,36.1999996 141.186668,36.126667 140.92,36.06 L140.12,35.88 C139.666664,35.7799995 139.330001,35.6166678 139.11,35.39 C138.889999,35.1633322 138.78,34.8700018 138.78,34.51 C138.78,34.2099985 138.864999,33.9450011 139.035,33.715 C139.205001,33.4849988 139.441665,33.3066673 139.745,33.18 C140.048335,33.0533327 140.399998,32.99 140.8,32.99 C141.146668,32.99 141.481665,33.0433328 141.805,33.15 C142.128335,33.2566672 142.413332,33.4066657 142.66,33.6 L142.31,34.45 C141.803331,34.0833315 141.296669,33.9 140.79,33.9 C140.516665,33.9 140.303334,33.9499995 140.15,34.05 C139.996666,34.1500005 139.92,34.2899991 139.92,34.47 C139.92,34.603334 139.968333,34.7133329 140.065,34.8 C140.161667,34.8866671 140.316666,34.9533331 140.53,35 L141.36,35.19 C141.846669,35.2966672 142.203332,35.4649989 142.43,35.695 C142.656668,35.9250011 142.77,36.2266648 142.77,36.6 C142.77,37.0533356 142.586669,37.413332 142.22,37.68 C141.853331,37.946668 141.35667,38.08 140.73,38.08 Z" id="Units" fill="#0F1931"></path>
                <path d="M7.07,19.6583146 L8.62,19.6583146 L8.62,20.3483146 L4.7,20.3483146 L4.7,19.6583146 L6.25,19.6583146 L6.25,14.3183146 L5.01,15.0983146 L4.63,14.4683146 L6.48,13.2983146 L7.07,13.2983146 L7.07,19.6583146 Z M12.4,20.4283146 C11.5933293,20.4283146 10.9800021,20.121651 10.56,19.5083146 C10.1399979,18.8949782 9.93,18.0016538 9.93,16.8283146 C9.93,15.6483087 10.1399979,14.751651 10.56,14.1383146 C10.9800021,13.5249782 11.5933293,13.2183146 12.4,13.2183146 C13.2066707,13.2183146 13.8199979,13.5233116 14.24,14.1333146 C14.6600021,14.7433177 14.87,15.6383087 14.87,16.8183146 C14.87,17.9983205 14.6600021,18.8949782 14.24,19.5083146 C13.8199979,20.121651 13.2066707,20.4283146 12.4,20.4283146 Z M12.4,19.7383146 C12.9600028,19.7383146 13.373332,19.5016503 13.64,19.0283146 C13.906668,18.5549789 14.04,17.8183196 14.04,16.8183146 C14.04,15.8116429 13.9083346,15.0766503 13.645,14.6133146 C13.3816653,14.149979 12.9666695,13.9183146 12.4,13.9183146 C11.8399972,13.9183146 11.426668,14.1516456 11.16,14.6183146 C10.893332,15.0849836 10.76,15.8183096 10.76,16.8183146 C10.76,17.8183196 10.893332,18.5549789 11.16,19.0283146 C11.426668,19.5016503 11.8399972,19.7383146 12.4,19.7383146 Z" id="10" fill="#0F1931"></path>
                <path d="M49.59,19.6583146 L49.59,20.3483146 L45.05,20.3483146 L45.05,19.7283146 L47.52,17.0083146 C47.853335,16.6349794 48.0949992,16.2999828 48.245,16.0033146 C48.3950007,15.7066465 48.47,15.4083161 48.47,15.1083146 C48.47,14.721646 48.3566678,14.4249823 48.13,14.2183146 C47.9033322,14.0116469 47.5833354,13.9083146 47.17,13.9083146 C46.4899966,13.9083146 45.8233366,14.1783119 45.17,14.7183146 L44.86,14.0883146 C45.1400014,13.8216466 45.4916645,13.6099821 45.915,13.4533146 C46.3383354,13.2966472 46.7633312,13.2183146 47.19,13.2183146 C47.8366699,13.2183146 48.3483314,13.3849796 48.725,13.7183146 C49.1016685,14.0516496 49.29,14.5016451 49.29,15.0683146 C49.29,15.4749833 49.1983342,15.8649794 49.015,16.2383146 C48.8316657,16.6116498 48.5300021,17.0283123 48.11,17.4883146 L46.11,19.6583146 L49.59,19.6583146 Z M53.2,20.4283146 C52.3933293,20.4283146 51.7800021,20.121651 51.36,19.5083146 C50.9399979,18.8949782 50.73,18.0016538 50.73,16.8283146 C50.73,15.6483087 50.9399979,14.751651 51.36,14.1383146 C51.7800021,13.5249782 52.3933293,13.2183146 53.2,13.2183146 C54.0066707,13.2183146 54.6199979,13.5233116 55.04,14.1333146 C55.4600021,14.7433177 55.67,15.6383087 55.67,16.8183146 C55.67,17.9983205 55.4600021,18.8949782 55.04,19.5083146 C54.6199979,20.121651 54.0066707,20.4283146 53.2,20.4283146 Z M53.2,19.7383146 C53.7600028,19.7383146 54.173332,19.5016503 54.44,19.0283146 C54.706668,18.5549789 54.84,17.8183196 54.84,16.8183146 C54.84,15.8116429 54.7083346,15.0766503 54.445,14.6133146 C54.1816653,14.149979 53.7666695,13.9183146 53.2,13.9183146 C52.6399972,13.9183146 52.226668,14.1516456 51.96,14.6183146 C51.693332,15.0849836 51.56,15.8183096 51.56,16.8183146 C51.56,17.8183196 51.693332,18.5549789 51.96,19.0283146 C52.226668,19.5016503 52.6399972,19.7383146 53.2,19.7383146 Z" id="20" fill="#0F1931"></path>
                <path d="M87.57,16.7283146 C87.9833354,16.8483152 88.2999989,17.0533132 88.52,17.3433146 C88.7400011,17.6333161 88.85,17.9983124 88.85,18.4383146 C88.85,19.051651 88.6416688,19.5349795 88.225,19.8883146 C87.8083313,20.2416497 87.2433369,20.4183146 86.53,20.4183146 C86.0766644,20.4183146 85.6400021,20.3416487 85.22,20.1883146 C84.7999979,20.0349805 84.4466681,19.8216493 84.16,19.5483146 L84.47,18.9183146 C85.1100032,19.4583173 85.7899964,19.7283146 86.51,19.7283146 C87.0100025,19.7283146 87.3899987,19.6166491 87.65,19.3933146 C87.9100013,19.1699802 88.04,18.8416501 88.04,18.4083146 C88.04,17.5483103 87.5000054,17.1183146 86.42,17.1183146 L85.61,17.1183146 L85.61,16.4283146 L86.26,16.4283146 C86.7800026,16.4283146 87.1799986,16.3133158 87.46,16.0833146 C87.7400014,15.8533135 87.88,15.5216501 87.88,15.0883146 C87.88,14.7083127 87.7666678,14.416649 87.54,14.2133146 C87.3133322,14.0099803 86.9900021,13.9083146 86.57,13.9083146 C85.8899966,13.9083146 85.2233366,14.1783119 84.57,14.7183146 L84.26,14.0883146 C84.5466681,13.8149799 84.8966646,13.6016487 85.31,13.4483146 C85.7233354,13.2949805 86.1533311,13.2183146 86.6,13.2183146 C87.2400032,13.2183146 87.7483315,13.3799797 88.125,13.7033146 C88.5016686,14.0266496 88.69,14.4616452 88.69,15.0083146 C88.69,15.4149833 88.5916677,15.7699798 88.395,16.0733146 C88.1983324,16.3766495 87.9233351,16.5949806 87.57,16.7283146 Z M92.6,20.4283146 C91.7933293,20.4283146 91.1800021,20.121651 90.76,19.5083146 C90.3399979,18.8949782 90.13,18.0016538 90.13,16.8283146 C90.13,15.6483087 90.3399979,14.751651 90.76,14.1383146 C91.1800021,13.5249782 91.7933293,13.2183146 92.6,13.2183146 C93.4066707,13.2183146 94.0199979,13.5233116 94.44,14.1333146 C94.8600021,14.7433177 95.07,15.6383087 95.07,16.8183146 C95.07,17.9983205 94.8600021,18.8949782 94.44,19.5083146 C94.0199979,20.121651 93.4066707,20.4283146 92.6,20.4283146 Z M92.6,19.7383146 C93.1600028,19.7383146 93.573332,19.5016503 93.84,19.0283146 C94.106668,18.5549789 94.24,17.8183196 94.24,16.8183146 C94.24,15.8116429 94.1083347,15.0766503 93.845,14.6133146 C93.5816654,14.149979 93.1666695,13.9183146 92.6,13.9183146 C92.0399972,13.9183146 91.626668,14.1516456 91.36,14.6183146 C91.093332,15.0849836 90.96,15.8183096 90.96,16.8183146 C90.96,17.8183196 91.093332,18.5549789 91.36,19.0283146 C91.626668,19.5016503 92.0399972,19.7383146 92.6,19.7383146 Z" id="30" fill="#0F1931"></path>
                <path d="M130.04,18.1383146 L130.04,18.8183146 L128.98,18.8183146 L128.98,20.3483146 L128.17,20.3483146 L128.17,18.8183146 L124.91,18.8183146 L124.91,18.1983146 L128.31,13.2983146 L128.98,13.2983146 L128.98,18.1383146 L130.04,18.1383146 Z M125.76,18.1383146 L128.17,18.1383146 L128.17,14.6683146 L125.76,18.1383146 Z M133.4,20.4283146 C132.593329,20.4283146 131.980002,20.121651 131.56,19.5083146 C131.139998,18.8949782 130.93,18.0016538 130.93,16.8283146 C130.93,15.6483087 131.139998,14.751651 131.56,14.1383146 C131.980002,13.5249782 132.593329,13.2183146 133.4,13.2183146 C134.206671,13.2183146 134.819998,13.5233116 135.24,14.1333146 C135.660002,14.7433177 135.87,15.6383087 135.87,16.8183146 C135.87,17.9983205 135.660002,18.8949782 135.24,19.5083146 C134.819998,20.121651 134.206671,20.4283146 133.4,20.4283146 Z M133.4,19.7383146 C133.960003,19.7383146 134.373332,19.5016503 134.64,19.0283146 C134.906668,18.5549789 135.04,17.8183196 135.04,16.8183146 C135.04,15.8116429 134.908335,15.0766503 134.645,14.6133146 C134.381665,14.149979 133.96667,13.9183146 133.4,13.9183146 C132.839997,13.9183146 132.426668,14.1516456 132.16,14.6183146 C131.893332,15.0849836 131.76,15.8183096 131.76,16.8183146 C131.76,17.8183196 131.893332,18.5549789 132.16,19.0283146 C132.426668,19.5016503 132.839997,19.7383146 133.4,19.7383146 Z" id="40" fill="#0F1931"></path>
                <path d="M167.3,15.9283146 C167.746669,15.9283146 168.134998,16.021647 168.465,16.2083146 C168.795002,16.3949822 169.049999,16.6566463 169.23,16.9933146 C169.410001,17.329983 169.5,17.7183124 169.5,18.1583146 C169.5,18.6049835 169.401668,18.9983129 169.205,19.3383146 C169.008332,19.6783163 168.730002,19.9433137 168.37,20.1333146 C168.009998,20.3233156 167.590002,20.4183146 167.11,20.4183146 C166.683331,20.4183146 166.261669,20.3399821 165.845,20.1833146 C165.428331,20.0266472 165.076668,19.8149826 164.79,19.5483146 L165.1,18.9183146 C165.753337,19.4583173 166.42333,19.7283146 167.11,19.7283146 C167.603336,19.7283146 167.989999,19.588316 168.27,19.3083146 C168.550001,19.0283132 168.69,18.648317 168.69,18.1683146 C168.69,17.7016456 168.551668,17.3249827 168.275,17.0383146 C167.998332,16.7516465 167.630002,16.6083146 167.17,16.6083146 C166.496663,16.6083146 165.960002,16.8816452 165.56,17.4283146 L164.99,17.4283146 L164.99,13.2983146 L169.22,13.2983146 L169.22,13.9783146 L165.8,13.9783146 L165.8,16.4883146 C165.986668,16.3083137 166.208332,16.1699818 166.465,16.0733146 C166.721668,15.9766475 166.999998,15.9283146 167.3,15.9283146 Z M173,20.4283146 C172.193329,20.4283146 171.580002,20.121651 171.16,19.5083146 C170.739998,18.8949782 170.53,18.0016538 170.53,16.8283146 C170.53,15.6483087 170.739998,14.751651 171.16,14.1383146 C171.580002,13.5249782 172.193329,13.2183146 173,13.2183146 C173.806671,13.2183146 174.419998,13.5233116 174.84,14.1333146 C175.260002,14.7433177 175.47,15.6383087 175.47,16.8183146 C175.47,17.9983205 175.260002,18.8949782 174.84,19.5083146 C174.419998,20.121651 173.806671,20.4283146 173,20.4283146 Z M173,19.7383146 C173.560003,19.7383146 173.973332,19.5016503 174.24,19.0283146 C174.506668,18.5549789 174.64,17.8183196 174.64,16.8183146 C174.64,15.8116429 174.508335,15.0766503 174.245,14.6133146 C173.981665,14.149979 173.566669,13.9183146 173,13.9183146 C172.439997,13.9183146 172.026668,14.1516456 171.76,14.6183146 C171.493332,15.0849836 171.36,15.8183096 171.36,16.8183146 C171.36,17.8183196 171.493332,18.5549789 171.76,19.0283146 C172.026668,19.5016503 172.439997,19.7383146 173,19.7383146 Z" id="50" fill="#0F1931"></path>
                <path d="M207.105,15.9183146 C207.531669,15.9183146 207.911665,16.011647 208.245,16.1983146 C208.578335,16.3849822 208.838332,16.6483129 209.025,16.9883146 C209.211668,17.3283163 209.305,17.7183124 209.305,18.1583146 C209.305,18.5916501 209.208334,18.9816462 209.015,19.3283146 C208.821666,19.674983 208.551668,19.9449803 208.205,20.1383146 C207.858332,20.3316489 207.468335,20.4283146 207.035,20.4283146 C206.181662,20.4283146 205.523336,20.1316509 205.06,19.5383146 C204.596664,18.9449783 204.365,18.0983201 204.365,16.9983146 C204.365,16.2049773 204.473332,15.5249841 204.69,14.9583146 C204.906668,14.3916451 205.218331,13.9599828 205.625,13.6633146 C206.031669,13.3666465 206.51833,13.2183146 207.085,13.2183146 C207.491669,13.2183146 207.888331,13.2933139 208.275,13.4433146 C208.661669,13.5933154 209.001665,13.8083132 209.295,14.0883146 L208.985,14.7183146 C208.651665,14.4383132 208.333335,14.2333153 208.03,14.1033146 C207.726665,13.973314 207.418335,13.9083146 207.105,13.9083146 C206.49833,13.9083146 206.026668,14.1766453 205.69,14.7133146 C205.353332,15.249984 205.185,16.0083097 205.185,16.9883146 L205.185,17.1383146 C205.338334,16.7649794 205.584998,16.4683157 205.925,16.2483146 C206.265002,16.0283135 206.658331,15.9183146 207.105,15.9183146 Z M206.995,19.7383146 C207.448336,19.7383146 207.811665,19.5949827 208.085,19.3083146 C208.358335,19.0216465 208.495,18.6416503 208.495,18.1683146 C208.495,17.7016456 208.356668,17.3249827 208.08,17.0383146 C207.803332,16.7516465 207.438336,16.6083146 206.985,16.6083146 C206.524998,16.6083146 206.150001,16.7533132 205.86,17.0433146 C205.569999,17.3333161 205.425,17.7083123 205.425,18.1683146 C205.425,18.6349836 205.569999,19.0133132 205.86,19.3033146 C206.150001,19.5933161 206.528331,19.7383146 206.995,19.7383146 Z M212.795,20.4283146 C211.988329,20.4283146 211.375002,20.121651 210.955,19.5083146 C210.534998,18.8949782 210.325,18.0016538 210.325,16.8283146 C210.325,15.6483087 210.534998,14.751651 210.955,14.1383146 C211.375002,13.5249782 211.988329,13.2183146 212.795,13.2183146 C213.601671,13.2183146 214.214998,13.5233116 214.635,14.1333146 C215.055002,14.7433177 215.265,15.6383087 215.265,16.8183146 C215.265,17.9983205 215.055002,18.8949782 214.635,19.5083146 C214.214998,20.121651 213.601671,20.4283146 212.795,20.4283146 Z M212.795,19.7383146 C213.355003,19.7383146 213.768332,19.5016503 214.035,19.0283146 C214.301668,18.5549789 214.435,17.8183196 214.435,16.8183146 C214.435,15.8116429 214.303335,15.0766503 214.04,14.6133146 C213.776665,14.149979 213.361669,13.9183146 212.795,13.9183146 C212.234997,13.9183146 211.821668,14.1516456 211.555,14.6183146 C211.288332,15.0849836 211.155,15.8183096 211.155,16.8183146 C211.155,17.8183196 211.288332,18.5549789 211.555,19.0283146 C211.821668,19.5016503 212.234997,19.7383146 212.795,19.7383146 Z" id="60" fill="#0F1931"></path>
                <path d="M244.07,13.2983146 L248.73,13.2983146 L248.73,13.9083146 L245.43,20.3483146 L244.54,20.3483146 L247.83,13.9883146 L244.07,13.9883146 L244.07,13.2983146 Z M252.4,20.4283146 C251.593329,20.4283146 250.980002,20.121651 250.56,19.5083146 C250.139998,18.8949782 249.93,18.0016538 249.93,16.8283146 C249.93,15.6483087 250.139998,14.751651 250.56,14.1383146 C250.980002,13.5249782 251.593329,13.2183146 252.4,13.2183146 C253.206671,13.2183146 253.819998,13.5233116 254.24,14.1333146 C254.660002,14.7433177 254.87,15.6383087 254.87,16.8183146 C254.87,17.9983205 254.660002,18.8949782 254.24,19.5083146 C253.819998,20.121651 253.206671,20.4283146 252.4,20.4283146 Z M252.4,19.7383146 C252.960003,19.7383146 253.373332,19.5016503 253.64,19.0283146 C253.906668,18.5549789 254.04,17.8183196 254.04,16.8183146 C254.04,15.8116429 253.908335,15.0766503 253.645,14.6133146 C253.381665,14.149979 252.966669,13.9183146 252.4,13.9183146 C251.839997,13.9183146 251.426668,14.1516456 251.16,14.6183146 C250.893332,15.0849836 250.76,15.8183096 250.76,16.8183146 C250.76,17.8183196 250.893332,18.5549789 251.16,19.0283146 C251.426668,19.5016503 251.839997,19.7383146 252.4,19.7383146 Z" id="70" fill="#0F1931"></path>
                <g id="Ticks" transform="translate(129.826966, 3.126966) rotate(-90.000000) translate(-129.826966, -3.126966) translate(127.326966, -117.873034)" stroke="#0F1931" stroke-linecap="round" stroke-width="2">
                    <path d="M4.12696629,1.17303371 L0.126966292,1.17303371" id="1"></path>
                    <path d="M4.12696629,41.1730337 L0.126966292,41.1730337" id="2"></path>
                    <path d="M4.12696629,81.1730337 L0.126966292,81.1730337" id="3"></path>
                    <path d="M4.12696629,121.173034 L0.126966292,121.173034" id="4"></path>
                    <path d="M4.12696629,161.173034 L0.126966292,161.173034" id="5"></path>
                    <path d="M4.12696629,201.173034 L0.126966292,201.173034" id="6"></path>
                    <path d="M4.12696629,241.173034 L0.126966292,241.173034" id="8"></path>
                </g>
            </g>
            <g id="Y-Axis" transform="translate(0.000000, 43.500000)">
                <path d="M24.3897436,6.39069042 C24.8364125,6.39069042 25.2247419,6.48402282 25.5547436,6.67069042 C25.8847452,6.85735802 26.1397427,7.11902207 26.3197436,7.45569042 C26.4997445,7.79235877 26.5897436,8.18068822 26.5897436,8.62069042 C26.5897436,9.06735932 26.4914112,9.46068872 26.2947436,9.80069042 C26.0980759,10.1406921 25.8197454,10.4056895 25.4597436,10.5956904 C25.0997418,10.7856914 24.679746,10.8806904 24.1997436,10.8806904 C23.7730748,10.8806904 23.3514123,10.8023579 22.9347436,10.6456904 C22.5180748,10.489023 22.1664117,10.2773584 21.8797436,10.0106904 L22.1897436,9.38069042 C22.8430802,9.92069312 23.5130735,10.1906904 24.1997436,10.1906904 C24.6930794,10.1906904 25.0797422,10.0506918 25.3597436,9.77069042 C25.639745,9.49068902 25.7797436,9.11069282 25.7797436,8.63069042 C25.7797436,8.16402142 25.6414116,7.78735852 25.3647436,7.50069042 C25.0880755,7.21402232 24.7197459,7.07069042 24.2597436,7.07069042 C23.5864069,7.07069042 23.0497456,7.34402102 22.6497436,7.89069042 L22.0797436,7.89069042 L22.0797436,3.76069042 L26.3097436,3.76069042 L26.3097436,4.44069042 L22.8897436,4.44069042 L22.8897436,6.95069042 C23.0764112,6.77068952 23.2980756,6.63235757 23.5547436,6.53569042 C23.8114115,6.43902327 24.0897421,6.39069042 24.3897436,6.39069042 Z" id="5" stroke="#979797" fill="#0F1931"></path>
                <path d="M26.7297436,51.5017404 L26.7297436,52.1817404 L25.6697436,52.1817404 L25.6697436,53.7117404 L24.8597436,53.7117404 L24.8597436,52.1817404 L21.5997436,52.1817404 L21.5997436,51.5617404 L24.9997436,46.6617404 L25.6697436,46.6617404 L25.6697436,51.5017404 L26.7297436,51.5017404 Z M22.4497436,51.5017404 L24.8597436,51.5017404 L24.8597436,48.0317404 L22.4497436,51.5017404 Z" id="4" stroke="#979797" fill="#0F1931"></path>
                <path d="M25.0597436,92.3170029 C25.473079,92.4370035 25.7897425,92.6420014 26.0097436,92.9320029 C26.2297447,93.2220043 26.3397436,93.5870007 26.3397436,94.0270029 C26.3397436,94.6403393 26.1314123,95.1236678 25.7147436,95.4770029 C25.2980748,95.830338 24.7330805,96.0070029 24.0197436,96.0070029 C23.566408,96.0070029 23.1297457,95.930337 22.7097436,95.7770029 C22.2897415,95.6236688 21.9364117,95.4103376 21.6497436,95.1370029 L21.9597436,94.5070029 C22.5997468,95.0470056 23.27974,95.3170029 23.9997436,95.3170029 C24.4997461,95.3170029 24.8797423,95.2053373 25.1397436,94.9820029 C25.3997449,94.7586684 25.5297436,94.4303384 25.5297436,93.9970029 C25.5297436,93.1369986 24.989749,92.7070029 23.9097436,92.7070029 L23.0997436,92.7070029 L23.0997436,92.0170029 L23.7497436,92.0170029 C24.2697462,92.0170029 24.6697422,91.902004 24.9497436,91.6720029 C25.229745,91.4420017 25.3697436,91.1103384 25.3697436,90.6770029 C25.3697436,90.297001 25.2564114,90.0053372 25.0297436,89.8020029 C24.8030758,89.5986685 24.4797457,89.4970029 24.0597436,89.4970029 C23.3797402,89.4970029 22.7130802,89.7670002 22.0597436,90.3070029 L21.7497436,89.6770029 C22.0364117,89.4036682 22.3864082,89.190337 22.7997436,89.0370029 C23.213079,88.8836688 23.6430747,88.8070029 24.0897436,88.8070029 C24.7297468,88.8070029 25.238075,88.9686679 25.6147436,89.2920029 C25.9914121,89.6153378 26.1797436,90.0503335 26.1797436,90.5970029 C26.1797436,91.0036716 26.0814112,91.358668 25.8847436,91.6620029 C25.6880759,91.9653377 25.4130787,92.1836689 25.0597436,92.3170029 Z" id="3" stroke="#979797" fill="#0F1931"></path>
                <path d="M26.4797436,137.873156 L26.4797436,138.563156 L21.9397436,138.563156 L21.9397436,137.943156 L24.4097436,135.223156 C24.7430786,134.849821 24.9847428,134.514824 25.1347436,134.218156 C25.2847443,133.921488 25.3597436,133.623158 25.3597436,133.323156 C25.3597436,132.936488 25.2464114,132.639824 25.0197436,132.433156 C24.7930758,132.226489 24.473079,132.123156 24.0597436,132.123156 C23.3797402,132.123156 22.7130802,132.393154 22.0597436,132.933156 L21.7497436,132.303156 C22.029745,132.036488 22.3814081,131.824824 22.8047436,131.668156 C23.228079,131.511489 23.6530748,131.433156 24.0797436,131.433156 C24.7264135,131.433156 25.238075,131.599821 25.6147436,131.933156 C25.9914121,132.266491 26.1797436,132.716487 26.1797436,133.283156 C26.1797436,133.689825 26.0880778,134.079821 25.9047436,134.453156 C25.7214093,134.826491 25.4197457,135.243154 24.9997436,135.703156 L22.9997436,137.873156 L26.4797436,137.873156 Z" id="2" stroke="#979797" fill="#0F1931"></path>
                <polygon id="1" stroke="#979797" fill="#0F1931" points="24.7597436 180.49931 26.3097436 180.49931 26.3097436 181.18931 22.3897436 181.18931 22.3897436 180.49931 23.9397436 180.49931 23.9397436 175.15931 22.6997436 175.93931 22.3197436 175.30931 24.1697436 174.13931 24.7597436 174.13931"></polygon>
                <g id="ticks" transform="translate(32.628205, 6.409800)" stroke="#0F1931" stroke-linecap="round" stroke-width="2">
                    <path d="M4.37179487,1.09020045 L0.371794872,1.09020045" id="1"></path>
                    <path d="M4.37179487,44.0902004 L0.371794872,44.0902004" id="5"></path>
                    <path d="M4.37179487,86.0902004 L0.371794872,86.0902004" id="6"></path>
                    <path d="M4.37179487,129.0902 L0.374117942,129.0902" id="7"></path>
                    <path d="M4.37179487,171.0902 L0.371794872,171.0902" id="8"></path>
                </g>
                <path d="M-5.395,83.09 C-6.0883368,83.09 -6.69333075,82.9416681 -7.21,82.645 C-7.72666925,82.3483318 -8.12333195,81.9266694 -8.4,81.38 C-8.67666805,80.8333306 -8.815,80.1966703 -8.815,79.47 C-8.815,78.7433297 -8.67666805,78.1083361 -8.4,77.565 C-8.12333195,77.021664 -7.72666925,76.6016681 -7.21,76.305 C-6.69333075,76.0083319 -6.0883368,75.86 -5.395,75.86 C-4.9216643,75.86 -4.4750021,75.9333326 -4.055,76.08 C-3.6349979,76.2266674 -3.2816681,76.433332 -2.995,76.7 L-3.425,77.64 C-3.7450016,77.3866654 -4.0616651,77.2016672 -4.375,77.085 C-4.6883349,76.9683328 -5.0216649,76.91 -5.375,76.91 C-6.0550034,76.91 -6.57999815,77.1299978 -6.95,77.57 C-7.32000185,78.0100022 -7.505,78.6433292 -7.505,79.47 C-7.505,80.3033375 -7.32000185,80.9399978 -6.95,81.38 C-6.57999815,81.8200022 -6.0550034,82.04 -5.375,82.04 C-5.0216649,82.04 -4.6883349,81.9816673 -4.375,81.865 C-4.0616651,81.7483328 -3.7450016,81.5633346 -3.425,81.31 L-2.995,82.25 C-3.2816681,82.516668 -3.6349979,82.7233326 -4.055,82.87 C-4.4750021,83.0166674 -4.9216643,83.09 -5.395,83.09 Z M0.305,83.08 C-0.1950025,83.08 -0.63333145,82.9766677 -1.01,82.77 C-1.38666855,82.5633323 -1.6783323,82.2666686 -1.885,81.88 C-2.0916677,81.4933314 -2.195,81.0433359 -2.195,80.53 C-2.195,80.0166641 -2.0916677,79.5683353 -1.885,79.185 C-1.6783323,78.8016648 -1.38666855,78.5066677 -1.01,78.3 C-0.63333145,78.0933323 -0.1950025,77.99 0.305,77.99 C0.8050025,77.99 1.24333145,78.0933323 1.62,78.3 C1.99666855,78.5066677 2.28666565,78.8016648 2.49,79.185 C2.69333435,79.5683353 2.795,80.0166641 2.795,80.53 C2.795,81.0433359 2.69333435,81.4933314 2.49,81.88 C2.28666565,82.2666686 1.99666855,82.5633323 1.62,82.77 C1.24333145,82.9766677 0.8050025,83.08 0.305,83.08 Z M0.295,82.11 C0.7016687,82.11 1.0116656,81.976668 1.225,81.71 C1.4383344,81.443332 1.545,81.0500026 1.545,80.53 C1.545,80.0166641 1.4383344,79.6250014 1.225,79.355 C1.0116656,79.0849987 0.705002,78.95 0.305,78.95 C-0.095002,78.95 -0.40333225,79.0849987 -0.62,79.355 C-0.83666775,79.6250014 -0.945,80.0166641 -0.945,80.53 C-0.945,81.0500026 -0.8383344,81.443332 -0.625,81.71 C-0.4116656,81.976668 -0.105002,82.11 0.295,82.11 Z M8.315,78.11 L8.315,83 L7.095,83 L7.095,82.25 C6.9416659,82.516668 6.7350013,82.721666 6.475,82.865 C6.2149987,83.0083341 5.9216683,83.08 5.595,83.08 C4.394994,83.08 3.795,82.4066734 3.795,81.06 L3.795,78.11 L5.045,78.11 L5.045,81.07 C5.045,81.4166684 5.1149993,81.6733325 5.255,81.84 C5.3950007,82.0066675 5.6149985,82.09 5.915,82.09 C6.2616684,82.09 6.53999895,81.9750011 6.75,81.745 C6.96000105,81.5149988 7.065,81.2100019 7.065,80.83 L7.065,78.11 L8.315,78.11 Z M12.455,77.99 C13.0416696,77.99 13.4783319,78.156665 13.765,78.49 C14.0516681,78.823335 14.195,79.3266633 14.195,80 L14.195,83 L12.945,83 L12.945,80.07 C12.945,79.6899981 12.8733341,79.4133342 12.73,79.24 C12.5866659,79.0666658 12.3616682,78.98 12.055,78.98 C11.6949982,78.98 11.4066677,79.0933322 11.19,79.32 C10.9733323,79.5466678 10.865,79.8499981 10.865,80.23 L10.865,83 L9.615,83 L9.615,78.11 L10.835,78.11 L10.835,78.84 C11.0016675,78.5666653 11.2249986,78.3566674 11.505,78.21 C11.7850014,78.0633326 12.1016649,77.99 12.455,77.99 Z M17.965,82.14 C18.1116674,82.14 18.2649992,82.1300001 18.425,82.11 L18.365,83.04 C18.164999,83.0600001 17.9816675,83.07 17.815,83.07 C17.1283299,83.07 16.6216683,82.9116683 16.295,82.595 C15.9683317,82.2783318 15.805,81.8066698 15.805,81.18 L15.805,79.05 L14.865,79.05 L14.865,78.11 L15.805,78.11 L15.805,76.65 L17.055,76.65 L17.055,78.11 L18.345,78.11 L18.345,79.05 L17.055,79.05 L17.055,81.16 C17.055,81.8133366 17.3583303,82.14 17.965,82.14 Z M20.955,83.08 C20.5216645,83.08 20.1233351,83.0266672 19.76,82.92 C19.3966648,82.8133328 19.0883346,82.660001 18.835,82.46 L19.185,81.59 C19.7050026,81.9700019 20.3016633,82.16 20.975,82.16 C21.2616681,82.16 21.4799992,82.1133338 21.63,82.02 C21.7800007,81.9266662 21.855,81.7933342 21.855,81.62 C21.855,81.4733326 21.8033338,81.3600004 21.7,81.28 C21.5966662,81.1999996 21.411668,81.126667 21.145,81.06 L20.345,80.88 C19.8916644,80.7799995 19.5550011,80.6166678 19.335,80.39 C19.1149989,80.1633322 19.005,79.8700018 19.005,79.51 C19.005,79.2099985 19.0899991,78.9450011 19.26,78.715 C19.4300008,78.4849988 19.6666652,78.3066673 19.97,78.18 C20.2733348,78.0533327 20.624998,77.99 21.025,77.99 C21.3716684,77.99 21.706665,78.0433328 22.03,78.15 C22.353335,78.2566672 22.6383321,78.4066657 22.885,78.6 L22.535,79.45 C22.0283308,79.0833315 21.5216692,78.9 21.015,78.9 C20.7416653,78.9 20.5283341,78.9499995 20.375,79.05 C20.2216659,79.1500005 20.145,79.2899991 20.145,79.47 C20.145,79.603334 20.1933328,79.7133329 20.29,79.8 C20.3866671,79.8866671 20.5416656,79.9533331 20.755,80 L21.585,80.19 C22.0716691,80.2966672 22.4283322,80.4649989 22.655,80.695 C22.8816678,80.9250011 22.995,81.2266648 22.995,81.6 C22.995,82.0533356 22.8116685,82.413332 22.445,82.68 C22.0783315,82.946668 21.5816698,83.08 20.955,83.08 Z" id="Counts" fill="#0F1931" transform="translate(7.090000, 79.475000) rotate(-90.000000) translate(-7.090000, -79.475000) "></path>
            </g>
            <path d="M119.43,14 L119.43,4.13 L121.236,4.13 L121.236,12.516 L125.842,12.516 L125.842,14 L119.43,14 Z M129.986,6.986 C130.947338,6.986 131.661331,7.219331 132.128,7.686 C132.594669,8.152669 132.828,8.87132848 132.828,9.842 L132.828,14 L131.162,14 L131.162,12.95 C131.003333,13.3140018 130.753668,13.5986656 130.413,13.804 C130.072332,14.0093344 129.678002,14.112 129.23,14.112 C128.772664,14.112 128.357335,14.0186676 127.984,13.832 C127.610665,13.6453324 127.316668,13.3886683 127.102,13.062 C126.887332,12.7353317 126.78,12.3713353 126.78,11.97 C126.78,11.4659975 126.908332,11.0693348 127.165,10.78 C127.421668,10.4906652 127.83933,10.2806673 128.418,10.15 C128.99667,10.0193327 129.794662,9.954 130.812,9.954 L131.162,9.954 L131.162,9.632 C131.162,9.165331 131.061668,8.82933436 130.861,8.624 C130.660332,8.41866564 130.326669,8.316 129.86,8.316 C129.495998,8.316 129.115669,8.37899937 128.719,8.505 C128.322331,8.63100063 127.932669,8.80599888 127.55,9.03 L127.06,7.826 C127.442669,7.58333212 127.904664,7.38266746 128.446,7.224 C128.987336,7.06533254 129.500664,6.986 129.986,6.986 Z M129.58,12.852 C130.046669,12.852 130.426999,12.6956682 130.721,12.383 C131.015001,12.0703318 131.162,11.6666691 131.162,11.172 L131.162,10.878 L130.91,10.878 C130.284664,10.878 129.799335,10.9059997 129.454,10.962 C129.108665,11.0180003 128.861334,11.1159993 128.712,11.256 C128.562666,11.3960007 128.488,11.5873321 128.488,11.83 C128.488,12.1286682 128.590666,12.3736657 128.796,12.565 C129.001334,12.7563343 129.262665,12.852 129.58,12.852 Z M139.114,8.442 L138.092,8.54 C136.934661,8.66133394 136.356,9.24932806 136.356,10.304 L136.356,14 L134.606,14 L134.606,7.154 L136.272,7.154 L136.272,8.358 C136.626668,7.53666256 137.359328,7.08866704 138.47,7.014 L139.002,6.972 L139.114,8.442 Z M146.632,7.154 L146.632,13.37 C146.632,14.4433387 146.33567,15.2553306 145.743,15.806 C145.15033,16.3566694 144.275339,16.632 143.118,16.632 C142.520664,16.632 141.946669,16.5550008 141.396,16.401 C140.845331,16.2469992 140.364669,16.0300014 139.954,15.75 L140.444,14.518 C141.293338,15.0313359 142.170662,15.288 143.076,15.288 C144.289339,15.288 144.896,14.6906726 144.896,13.496 L144.896,12.6 C144.690666,12.9826686 144.392002,13.2789989 144,13.489 C143.607998,13.699001 143.160003,13.804 142.656,13.804 C142.058664,13.804 141.529002,13.6616681 141.067,13.377 C140.604998,13.0923319 140.243335,12.6933359 139.982,12.18 C139.720665,11.6666641 139.59,11.0740034 139.59,10.402 C139.59,9.72999664 139.718332,9.13500259 139.975,8.617 C140.231668,8.09899741 140.593331,7.69766809 141.06,7.413 C141.526669,7.12833191 142.058664,6.986 142.656,6.986 C143.160003,6.986 143.607998,7.09099895 144,7.301 C144.392002,7.51100105 144.690666,7.80733142 144.896,8.19 L144.896,7.154 L146.632,7.154 Z M143.118,12.446 C143.678003,12.446 144.114332,12.2640018 144.427,11.9 C144.739668,11.5359982 144.896,11.0366698 144.896,10.402 C144.896,9.75799678 144.739668,9.25400182 144.427,8.89 C144.114332,8.52599818 143.678003,8.344 143.118,8.344 C142.567331,8.344 142.133335,8.52599818 141.816,8.89 C141.498665,9.25400182 141.34,9.75799678 141.34,10.402 C141.34,11.0273365 141.498665,11.5243315 141.816,11.893 C142.133335,12.2616685 142.567331,12.446 143.118,12.446 Z M154.444,10.892 L149.782,10.892 C149.838,11.5266698 150.029332,11.9979985 150.356,12.306 C150.682668,12.6140015 151.14933,12.768 151.756,12.768 C152.512004,12.768 153.202664,12.5253358 153.828,12.04 L154.332,13.244 C154.014665,13.5053346 153.615669,13.7153325 153.135,13.874 C152.654331,14.0326675 152.171336,14.112 151.686,14.112 C150.565994,14.112 149.68167,13.7946698 149.033,13.16 C148.38433,12.5253302 148.06,11.6573388 148.06,10.556 C148.06,9.8559965 148.199999,9.23533604 148.48,8.694 C148.760001,8.15266396 149.154331,7.73266816 149.663,7.434 C150.171669,7.13533184 150.747997,6.986 151.392,6.986 C152.334671,6.986 153.078997,7.2893303 153.625,7.896 C154.171003,8.5026697 154.444,9.33799468 154.444,10.402 L154.444,10.892 Z M151.434,8.218 C150.967331,8.218 150.591668,8.36733184 150.307,8.666 C150.022332,8.96466816 149.847334,9.3939972 149.782,9.954 L152.946,9.954 C152.927333,9.38466382 152.787335,8.95300147 152.526,8.659 C152.264665,8.36499853 151.900669,8.218 151.434,8.218 Z M160.38,8.442 L159.358,8.54 C158.200661,8.66133394 157.622,9.24932806 157.622,10.304 L157.622,14 L155.872,14 L155.872,7.154 L157.538,7.154 L157.538,8.358 C157.892668,7.53666256 158.625328,7.08866704 159.736,7.014 L160.268,6.972 L160.38,8.442 Z M172.42,4.13 L174.254,4.13 L169.858,14 L168.388,14 L163.992,4.13 L165.854,4.13 L169.13,11.76 L172.42,4.13 Z M177.964,6.986 C178.925338,6.986 179.639331,7.219331 180.106,7.686 C180.572669,8.152669 180.806,8.87132848 180.806,9.842 L180.806,14 L179.14,14 L179.14,12.95 C178.981333,13.3140018 178.731668,13.5986656 178.391,13.804 C178.050332,14.0093344 177.656002,14.112 177.208,14.112 C176.750664,14.112 176.335335,14.0186676 175.962,13.832 C175.588665,13.6453324 175.294668,13.3886683 175.08,13.062 C174.865332,12.7353317 174.758,12.3713353 174.758,11.97 C174.758,11.4659975 174.886332,11.0693348 175.143,10.78 C175.399668,10.4906652 175.81733,10.2806673 176.396,10.15 C176.97467,10.0193327 177.772662,9.954 178.79,9.954 L179.14,9.954 L179.14,9.632 C179.14,9.165331 179.039668,8.82933436 178.839,8.624 C178.638332,8.41866564 178.304669,8.316 177.838,8.316 C177.473998,8.316 177.093669,8.37899937 176.697,8.505 C176.300331,8.63100063 175.910669,8.80599888 175.528,9.03 L175.038,7.826 C175.420669,7.58333212 175.882664,7.38266746 176.424,7.224 C176.965336,7.06533254 177.478664,6.986 177.964,6.986 Z M177.558,12.852 C178.024669,12.852 178.404999,12.6956682 178.699,12.383 C178.993001,12.0703318 179.14,11.6666691 179.14,11.172 L179.14,10.878 L178.888,10.878 C178.262664,10.878 177.777335,10.9059997 177.432,10.962 C177.086665,11.0180003 176.839334,11.1159993 176.69,11.256 C176.540666,11.3960007 176.466,11.5873321 176.466,11.83 C176.466,12.1286682 176.568666,12.3736657 176.774,12.565 C176.979334,12.7563343 177.240665,12.852 177.558,12.852 Z M187.092,8.442 L186.07,8.54 C184.912661,8.66133394 184.334,9.24932806 184.334,10.304 L184.334,14 L182.584,14 L182.584,7.154 L184.25,7.154 L184.25,8.358 C184.604668,7.53666256 185.337328,7.08866704 186.448,7.014 L186.98,6.972 L187.092,8.442 Z M187.946,14 L187.946,7.154 L189.696,7.154 L189.696,14 L187.946,14 Z M187.848,3.976 L189.78,3.976 L189.78,5.698 L187.848,5.698 L187.848,3.976 Z M194.442,6.986 C195.403338,6.986 196.117331,7.219331 196.584,7.686 C197.050669,8.152669 197.284,8.87132848 197.284,9.842 L197.284,14 L195.618,14 L195.618,12.95 C195.459333,13.3140018 195.209668,13.5986656 194.869,13.804 C194.528332,14.0093344 194.134002,14.112 193.686,14.112 C193.228664,14.112 192.813335,14.0186676 192.44,13.832 C192.066665,13.6453324 191.772668,13.3886683 191.558,13.062 C191.343332,12.7353317 191.236,12.3713353 191.236,11.97 C191.236,11.4659975 191.364332,11.0693348 191.621,10.78 C191.877668,10.4906652 192.29533,10.2806673 192.874,10.15 C193.45267,10.0193327 194.250662,9.954 195.268,9.954 L195.618,9.954 L195.618,9.632 C195.618,9.165331 195.517668,8.82933436 195.317,8.624 C195.116332,8.41866564 194.782669,8.316 194.316,8.316 C193.951998,8.316 193.571669,8.37899937 193.175,8.505 C192.778331,8.63100063 192.388669,8.80599888 192.006,9.03 L191.516,7.826 C191.898669,7.58333212 192.360664,7.38266746 192.902,7.224 C193.443336,7.06533254 193.956664,6.986 194.442,6.986 Z M194.036,12.852 C194.502669,12.852 194.882999,12.6956682 195.177,12.383 C195.471001,12.0703318 195.618,11.6666691 195.618,11.172 L195.618,10.878 L195.366,10.878 C194.740664,10.878 194.255335,10.9059997 193.91,10.962 C193.564665,11.0180003 193.317334,11.1159993 193.168,11.256 C193.018666,11.3960007 192.944,11.5873321 192.944,11.83 C192.944,12.1286682 193.046666,12.3736657 193.252,12.565 C193.457334,12.7563343 193.718665,12.852 194.036,12.852 Z M203.038,6.986 C203.859337,6.986 204.470665,7.219331 204.872,7.686 C205.273335,8.152669 205.474,8.85732862 205.474,9.8 L205.474,14 L203.724,14 L203.724,9.898 C203.724,9.36599734 203.623668,8.97866788 203.423,8.736 C203.222332,8.49333212 202.907335,8.372 202.478,8.372 C201.973997,8.372 201.570335,8.53066508 201.267,8.848 C200.963665,9.16533492 200.812,9.58999734 200.812,10.122 L200.812,14 L199.062,14 L199.062,7.154 L200.77,7.154 L200.77,8.176 C201.003334,7.79333142 201.315998,7.49933436 201.708,7.294 C202.100002,7.08866564 202.543331,6.986 203.038,6.986 Z M210.374,14.112 C209.65533,14.112 209.032336,13.9673348 208.505,13.678 C207.977664,13.3886652 207.574001,12.9780027 207.294,12.446 C207.013999,11.9139973 206.874,11.2933369 206.874,10.584 C206.874,9.87466312 207.020999,9.24700273 207.315,8.701 C207.609001,8.15499727 208.026664,7.73266816 208.568,7.434 C209.109336,7.13533184 209.734663,6.986 210.444,6.986 C210.929336,6.986 211.402998,7.06299923 211.865,7.217 C212.327002,7.37100077 212.697999,7.57866536 212.978,7.84 L212.474,9.072 C212.184665,8.8386655 211.879002,8.66133394 211.557,8.54 C211.234998,8.41866606 210.915335,8.358 210.598,8.358 C209.99133,8.358 209.520002,8.54699811 209.184,8.925 C208.847998,9.30300189 208.68,9.84666312 208.68,10.556 C208.68,11.2560035 208.847998,11.7949981 209.184,12.173 C209.520002,12.5510019 209.99133,12.74 210.598,12.74 C210.915335,12.74 211.234998,12.6793339 211.557,12.558 C211.879002,12.4366661 212.184665,12.2593345 212.474,12.026 L212.978,13.244 C212.679332,13.514668 212.296669,13.7269992 211.83,13.881 C211.363331,14.0350008 210.878003,14.112 210.374,14.112 Z M220.09,10.892 L215.428,10.892 C215.484,11.5266698 215.675332,11.9979985 216.002,12.306 C216.328668,12.6140015 216.79533,12.768 217.402,12.768 C218.158004,12.768 218.848664,12.5253358 219.474,12.04 L219.978,13.244 C219.660665,13.5053346 219.261669,13.7153325 218.781,13.874 C218.300331,14.0326675 217.817336,14.112 217.332,14.112 C216.211994,14.112 215.32767,13.7946698 214.679,13.16 C214.03033,12.5253302 213.706,11.6573388 213.706,10.556 C213.706,9.8559965 213.845999,9.23533604 214.126,8.694 C214.406001,8.15266396 214.800331,7.73266816 215.309,7.434 C215.817669,7.13533184 216.393997,6.986 217.038,6.986 C217.980671,6.986 218.724997,7.2893303 219.271,7.896 C219.817003,8.5026697 220.09,9.33799468 220.09,10.402 L220.09,10.892 Z M217.08,8.218 C216.613331,8.218 216.237668,8.36733184 215.953,8.666 C215.668332,8.96466816 215.493334,9.3939972 215.428,9.954 L218.592,9.954 C218.573333,9.38466382 218.433335,8.95300147 218.172,8.659 C217.910665,8.36499853 217.546669,8.218 217.08,8.218 Z M225.466,4.13 L229.106,4.13 C230.720675,4.13 231.973662,4.56166235 232.865,5.425 C233.756338,6.28833765 234.202,7.49932554 234.202,9.058 C234.202,10.6166745 233.756338,11.8299957 232.865,12.698 C231.973662,13.5660043 230.720675,14 229.106,14 L225.466,14 L225.466,4.13 Z M228.994,12.53 C231.262011,12.53 232.396,11.3726782 232.396,9.058 C232.396,6.75265514 231.262011,5.6 228.994,5.6 L227.272,5.6 L227.272,12.53 L228.994,12.53 Z M238.808,6.986 C239.769338,6.986 240.483331,7.219331 240.95,7.686 C241.416669,8.152669 241.65,8.87132848 241.65,9.842 L241.65,14 L239.984,14 L239.984,12.95 C239.825333,13.3140018 239.575668,13.5986656 239.235,13.804 C238.894332,14.0093344 238.500002,14.112 238.052,14.112 C237.594664,14.112 237.179335,14.0186676 236.806,13.832 C236.432665,13.6453324 236.138668,13.3886683 235.924,13.062 C235.709332,12.7353317 235.602,12.3713353 235.602,11.97 C235.602,11.4659975 235.730332,11.0693348 235.987,10.78 C236.243668,10.4906652 236.66133,10.2806673 237.24,10.15 C237.81867,10.0193327 238.616662,9.954 239.634,9.954 L239.984,9.954 L239.984,9.632 C239.984,9.165331 239.883668,8.82933436 239.683,8.624 C239.482332,8.41866564 239.148669,8.316 238.682,8.316 C238.317998,8.316 237.937669,8.37899937 237.541,8.505 C237.144331,8.63100063 236.754669,8.80599888 236.372,9.03 L235.882,7.826 C236.264669,7.58333212 236.726664,7.38266746 237.268,7.224 C237.809336,7.06533254 238.322664,6.986 238.808,6.986 Z M238.402,12.852 C238.868669,12.852 239.248999,12.6956682 239.543,12.383 C239.837001,12.0703318 239.984,11.6666691 239.984,11.172 L239.984,10.878 L239.732,10.878 C239.106664,10.878 238.621335,10.9059997 238.276,10.962 C237.930665,11.0180003 237.683334,11.1159993 237.534,11.256 C237.384666,11.3960007 237.31,11.5873321 237.31,11.83 C237.31,12.1286682 237.412666,12.3736657 237.618,12.565 C237.823334,12.7563343 238.084665,12.852 238.402,12.852 Z M246.928,12.796 C247.133334,12.796 247.347999,12.7820001 247.572,12.754 L247.488,14.056 C247.207999,14.0840001 246.951335,14.098 246.718,14.098 C245.756662,14.098 245.047336,13.8763356 244.59,13.433 C244.132664,12.9896644 243.904,12.3293377 243.904,11.452 L243.904,8.47 L242.588,8.47 L242.588,7.154 L243.904,7.154 L243.904,5.11 L245.654,5.11 L245.654,7.154 L247.46,7.154 L247.46,8.47 L245.654,8.47 L245.654,11.424 C245.654,12.3386712 246.078662,12.796 246.928,12.796 Z M251.534,6.986 C252.495338,6.986 253.209331,7.219331 253.676,7.686 C254.142669,8.152669 254.376,8.87132848 254.376,9.842 L254.376,14 L252.71,14 L252.71,12.95 C252.551333,13.3140018 252.301668,13.5986656 251.961,13.804 C251.620332,14.0093344 251.226002,14.112 250.778,14.112 C250.320664,14.112 249.905335,14.0186676 249.532,13.832 C249.158665,13.6453324 248.864668,13.3886683 248.65,13.062 C248.435332,12.7353317 248.328,12.3713353 248.328,11.97 C248.328,11.4659975 248.456332,11.0693348 248.713,10.78 C248.969668,10.4906652 249.38733,10.2806673 249.966,10.15 C250.54467,10.0193327 251.342662,9.954 252.36,9.954 L252.71,9.954 L252.71,9.632 C252.71,9.165331 252.609668,8.82933436 252.409,8.624 C252.208332,8.41866564 251.874669,8.316 251.408,8.316 C251.043998,8.316 250.663669,8.37899937 250.267,8.505 C249.870331,8.63100063 249.480669,8.80599888 249.098,9.03 L248.608,7.826 C248.990669,7.58333212 249.452664,7.38266746 249.994,7.224 C250.535336,7.06533254 251.048664,6.986 251.534,6.986 Z M251.128,12.852 C251.594669,12.852 251.974999,12.6956682 252.269,12.383 C252.563001,12.0703318 252.71,11.6666691 252.71,11.172 L252.71,10.878 L252.458,10.878 C251.832664,10.878 251.347335,10.9059997 251.002,10.962 C250.656665,11.0180003 250.409334,11.1159993 250.26,11.256 C250.110666,11.3960007 250.036,11.5873321 250.036,11.83 C250.036,12.1286682 250.138666,12.3736657 250.344,12.565 C250.549334,12.7563343 250.810665,12.852 251.128,12.852 Z M258.674,14.112 C258.06733,14.112 257.509669,14.0373341 257.001,13.888 C256.492331,13.7386659 256.060668,13.5240014 255.706,13.244 L256.196,12.026 C256.924004,12.5580027 257.759329,12.824 258.702,12.824 C259.103335,12.824 259.408999,12.7586673 259.619,12.628 C259.829001,12.4973327 259.934,12.3106679 259.934,12.068 C259.934,11.8626656 259.861667,11.7040006 259.717,11.592 C259.572333,11.4799994 259.313335,11.3773338 258.94,11.284 L257.82,11.032 C257.18533,10.8919993 256.714002,10.6633349 256.406,10.346 C256.097998,10.0286651 255.944,9.61800252 255.944,9.114 C255.944,8.6939979 256.062999,8.32300161 256.301,8.001 C256.539001,7.67899839 256.870331,7.42933422 257.295,7.252 C257.719669,7.07466578 258.211997,6.986 258.772,6.986 C259.257336,6.986 259.726331,7.06066592 260.179,7.21 C260.631669,7.35933408 261.030665,7.56933198 261.376,7.84 L260.886,9.03 C260.176663,8.5166641 259.467337,8.26 258.758,8.26 C258.375331,8.26 258.076668,8.3299993 257.862,8.47 C257.647332,8.6100007 257.54,8.80599874 257.54,9.058 C257.54,9.2446676 257.607666,9.39866606 257.743,9.52 C257.878334,9.64133394 258.095332,9.73466634 258.394,9.8 L259.556,10.066 C260.237337,10.2153341 260.736665,10.4509984 261.054,10.773 C261.371335,11.0950016 261.53,11.5173307 261.53,12.04 C261.53,12.6746698 261.273336,13.1786648 260.76,13.552 C260.246664,13.9253352 259.551338,14.112 258.674,14.112 Z M268.95,10.892 L264.288,10.892 C264.344,11.5266698 264.535332,11.9979985 264.862,12.306 C265.188668,12.6140015 265.65533,12.768 266.262,12.768 C267.018004,12.768 267.708664,12.5253358 268.334,12.04 L268.838,13.244 C268.520665,13.5053346 268.121669,13.7153325 267.641,13.874 C267.160331,14.0326675 266.677336,14.112 266.192,14.112 C265.071994,14.112 264.18767,13.7946698 263.539,13.16 C262.89033,12.5253302 262.566,11.6573388 262.566,10.556 C262.566,9.8559965 262.705999,9.23533604 262.986,8.694 C263.266001,8.15266396 263.660331,7.73266816 264.169,7.434 C264.677669,7.13533184 265.253997,6.986 265.898,6.986 C266.840671,6.986 267.584997,7.2893303 268.131,7.896 C268.677003,8.5026697 268.95,9.33799468 268.95,10.402 L268.95,10.892 Z M265.94,8.218 C265.473331,8.218 265.097668,8.36733184 264.813,8.666 C264.528332,8.96466816 264.353334,9.3939972 264.288,9.954 L267.452,9.954 C267.433333,9.38466382 267.293335,8.95300147 267.032,8.659 C266.770665,8.36499853 266.406669,8.218 265.94,8.218 Z M273.878,12.796 C274.083334,12.796 274.297999,12.7820001 274.522,12.754 L274.438,14.056 C274.157999,14.0840001 273.901334,14.098 273.668,14.098 C272.706662,14.098 271.997336,13.8763356 271.54,13.433 C271.082664,12.9896644 270.854,12.3293377 270.854,11.452 L270.854,8.47 L269.538,8.47 L269.538,7.154 L270.854,7.154 L270.854,5.11 L272.604,5.11 L272.604,7.154 L274.41,7.154 L274.41,8.47 L272.604,8.47 L272.604,11.424 C272.604,12.3386712 273.028662,12.796 273.878,12.796 Z" id="LargerVarianceDataset" fill="#0F1931"></path>
        </g>
        <rect id="Rectangle" fill="#FA4359" x="132" y="65" width="38" height="187"></rect>
        <rect id="Rectangle-Copy-9" fill="#FA4359" x="132" y="529" width="38" height="17"></rect>
        <rect id="Rectangle-Copy-18" fill="#FA4359" x="252" y="529" width="38" height="17"></rect>
        <rect id="Rectangle-Copy-19" fill="#FA4359" x="292" y="529" width="38" height="17"></rect>
        <rect id="Rectangle-Copy-16" fill="#FA4359" x="172" y="444" width="38" height="102"></rect>
        <rect id="Rectangle-Copy-17" fill="#FA4359" x="212" y="487" width="38" height="59"></rect>
        <rect id="Rectangle-Copy-7" fill="#FA4359" x="172" y="193" width="38" height="59"></rect>
        <rect id="Rectangle-Copy-3" fill="#FA4359" x="92" y="150" width="38" height="102"></rect>
        <rect id="Rectangle-Copy-10" fill="#FA4359" x="92" y="529" width="38" height="17"></rect>
        <path d="M53,529 L90,529 L90,546 L55,546 C53.8954305,546 53,545.104569 53,544 L53,529 Z" id="Rectangle-Copy-11" fill="#FA4359"></path>
        <path d="M332,529 L369,529 L369,546 L334,546 C332.895431,546 332,545.104569 332,544 L332,529 Z" id="Rectangle-Copy-20" fill="#FA4359" transform="translate(350.500000, 537.500000) scale(-1, 1) translate(-350.500000, -537.500000) "></path>
    </g>
</svg>