<?xml version="1.0" encoding="UTF-8"?>
<svg width="421px" height="233px" viewBox="0 0 421 233" version="1.1" xmlns="http://www.w3.org/2000/svg" xmlns:xlink="http://www.w3.org/1999/xlink">
    <!-- Generator: Sketch 53 (72520) - https://sketchapp.com -->
    <title>number line</title>
    <desc>Created with Sketch.</desc>
    <g id="number-line" stroke="none" stroke-width="1" fill="none" fill-rule="evenodd">
        <g id="Group" transform="translate(30.000000, 27.500000)" fill-rule="nonzero">
            <rect id="Rectangle" fill="#DBE5FD" x="14" y="30" width="2" height="134"></rect>
            <rect id="Rectangle-Copy-21" fill="#DBE5FD" x="36" y="30" width="2" height="134"></rect>
            <rect id="Rectangle-Copy-22" fill="#DBE5FD" x="58" y="30" width="2" height="134"></rect>
            <rect id="Rectangle-Copy-23" fill="#DBE5FD" x="80" y="30" width="2" height="134"></rect>
            <rect id="Rectangle-Copy-24" fill="#000000" x="91" y="30" width="2" height="145"></rect>
            <rect id="Rectangle-Copy-29" fill="#000000" x="135" y="30" width="2" height="145"></rect>
            <rect id="Rectangle-Copy-30" fill="#000000" x="223" y="30" width="2" height="145"></rect>
            <rect id="Rectangle-Copy-31" fill="#000000" x="289" y="30" width="2" height="145"></rect>
            <rect id="Rectangle-Copy-25" fill="#DBE5FD" x="146" y="30" width="2" height="134"></rect>
            <rect id="Rectangle-Copy-16" fill="#DBE5FD" x="124" y="30" width="2" height="134"></rect>
            <rect id="Rectangle-Copy-20" fill="#DBE5FD" x="102" y="30" width="2" height="134"></rect>
            <rect id="Rectangle-Copy-2" fill="#DBE5FD" x="168" y="30" width="2" height="134"></rect>
            <rect id="Rectangle-Copy-26" fill="#DBE5FD" x="190" y="30" width="2" height="134"></rect>
            <rect id="Rectangle-Copy-17" fill="#DBE5FD" x="212" y="30" width="2" height="134"></rect>
            <rect id="Rectangle-Copy-27" fill="#DBE5FD" x="234" y="30" width="2" height="134"></rect>
            <rect id="Rectangle-Copy-28" fill="#DBE5FD" x="278" y="30" width="2" height="139"></rect>
            <rect id="Rectangle-Copy-18" fill="#DBE5FD" x="300" y="30" width="2" height="134"></rect>
            <rect id="Rectangle-Copy-19" fill="#DBE5FD" x="322" y="30" width="2" height="134"></rect>
            <rect id="Rectangle-Copy-3" fill="#DBE5FD" x="256" y="30" width="2" height="134"></rect>
            <rect id="Rectangle-Copy-7" fill="#DBE5FD" x="344" y="30" width="2" height="134"></rect>
            <circle id="Oval-Copy-6" fill="#4C7EF3" cx="37" cy="149" r="4"></circle>
            <circle id="Oval-Copy-10" fill="#4C7EF3" cx="103" cy="149" r="4"></circle>
            <circle id="Oval-Copy-10" fill="#4C7EF3" cx="125" cy="149" r="4"></circle>
            <circle id="Oval-Copy-11" fill="#4C7EF3" cx="125" cy="135" r="4"></circle>
            <circle id="Oval-Copy-20" fill="#4C7EF3" cx="279" cy="149" r="4"></circle>
            <circle id="Oval-Copy-18" fill="#4C7EF3" cx="147" cy="149" r="4"></circle>
            <circle id="Oval-Copy-23" fill="#4C7EF3" cx="235" cy="149" r="4"></circle>
            <circle id="Oval-Copy-24" fill="#4C7EF3" cx="257" cy="149" r="4"></circle>
            <circle id="Oval-Copy-19" fill="#4C7EF3" cx="169" cy="149" r="4"></circle>
            <circle id="Oval-Copy-26" fill="#4C7EF3" cx="191" cy="149" r="4"></circle>
            <circle id="Oval-Copy-27" fill="#4C7EF3" cx="213" cy="149" r="4"></circle>
            <circle id="Oval-Copy-9" fill="#4C7EF3" cx="37" cy="135" r="4"></circle>
            <circle id="Oval-Copy-11" fill="#4C7EF3" cx="103" cy="135" r="4"></circle>
            <circle id="Oval-Copy-21" fill="#4C7EF3" cx="279" cy="135" r="4"></circle>
            <circle id="Oval-Copy-20" fill="#4C7EF3" cx="301" cy="149" r="4"></circle>
            <circle id="Oval-Copy-22" fill="#4C7EF3" cx="323" cy="149" r="4"></circle>
            <circle id="Oval-Copy-28" fill="#4C7EF3" cx="345" cy="149" r="4"></circle>
            <circle id="Oval-Copy-21" fill="#4C7EF3" cx="301" cy="135" r="4"></circle>
            <circle id="Oval-Copy-8" fill="#4C7EF3" cx="59" cy="149" r="4"></circle>
            <circle id="Oval-Copy-25" fill="#4C7EF3" cx="81" cy="149" r="4"></circle>
            <path d="M19.5,167.5 C20.0522847,167.5 20.5,167.947715 20.5,168.5 C20.5,169.052285 20.0522847,169.5 19.5,169.5 L10.5,169.5 C9.94771525,169.5 9.5,169.052285 9.5,168.5 C9.5,167.947715 9.94771525,167.5 10.5,167.5 L19.5,167.5 Z" id="1" fill="#0F1931" transform="translate(15.000000, 168.500000) rotate(-90.000000) translate(-15.000000, -168.500000) "></path>
            <path d="M41.5,167.5 C42.0522847,167.5 42.5,167.947715 42.5,168.5 C42.5,169.052285 42.0522847,169.5 41.5,169.5 L32.5,169.5 C31.9477153,169.5 31.5,169.052285 31.5,168.5 C31.5,167.947715 31.9477153,167.5 32.5,167.5 L41.5,167.5 Z" id="1-copy-3" fill="#0F1931" transform="translate(37.000000, 168.500000) rotate(-90.000000) translate(-37.000000, -168.500000) "></path>
            <path d="M63.5,167.5 C64.0522847,167.5 64.5,167.947715 64.5,168.5 C64.5,169.052285 64.0522847,169.5 63.5,169.5 L54.5,169.5 C53.9477153,169.5 53.5,169.052285 53.5,168.5 C53.5,167.947715 53.9477153,167.5 54.5,167.5 L63.5,167.5 Z" id="1-copy-4" fill="#0F1931" transform="translate(59.000000, 168.500000) rotate(-90.000000) translate(-59.000000, -168.500000) "></path>
            <path d="M85.5,167.5 C86.0522847,167.5 86.5,167.947715 86.5,168.5 C86.5,169.052285 86.0522847,169.5 85.5,169.5 L76.5,169.5 C75.9477153,169.5 75.5,169.052285 75.5,168.5 C75.5,167.947715 75.9477153,167.5 76.5,167.5 L85.5,167.5 Z" id="1-copy-5" fill="#0F1931" transform="translate(81.000000, 168.500000) rotate(-90.000000) translate(-81.000000, -168.500000) "></path>
            <path d="M107.5,167.5 C108.052285,167.5 108.5,167.947715 108.5,168.5 C108.5,169.052285 108.052285,169.5 107.5,169.5 L98.5,169.5 C97.9477153,169.5 97.5,169.052285 97.5,168.5 C97.5,167.947715 97.9477153,167.5 98.5,167.5 L107.5,167.5 Z" id="1-copy-6" fill="#0F1931" transform="translate(103.000000, 168.500000) rotate(-90.000000) translate(-103.000000, -168.500000) "></path>
            <path d="M129.5,167.5 C130.052285,167.5 130.5,167.947715 130.5,168.5 C130.5,169.052285 130.052285,169.5 129.5,169.5 L120.5,169.5 C119.947715,169.5 119.5,169.052285 119.5,168.5 C119.5,167.947715 119.947715,167.5 120.5,167.5 L129.5,167.5 Z" id="1-copy-7" fill="#0F1931" transform="translate(125.000000, 168.500000) rotate(-90.000000) translate(-125.000000, -168.500000) "></path>
            <path d="M151.5,167.5 C152.052285,167.5 152.5,167.947715 152.5,168.5 C152.5,169.052285 152.052285,169.5 151.5,169.5 L142.5,169.5 C141.947715,169.5 141.5,169.052285 141.5,168.5 C141.5,167.947715 141.947715,167.5 142.5,167.5 L151.5,167.5 Z" id="1-copy-8" fill="#0F1931" transform="translate(147.000000, 168.500000) rotate(-90.000000) translate(-147.000000, -168.500000) "></path>
            <path d="M173.5,167.5 C174.052285,167.5 174.5,167.947715 174.5,168.5 C174.5,169.052285 174.052285,169.5 173.5,169.5 L164.5,169.5 C163.947715,169.5 163.5,169.052285 163.5,168.5 C163.5,167.947715 163.947715,167.5 164.5,167.5 L173.5,167.5 Z" id="1-copy" fill="#0F1931" transform="translate(169.000000, 168.500000) rotate(-90.000000) translate(-169.000000, -168.500000) "></path>
            <path d="M195.5,167.5 C196.052285,167.5 196.5,167.947715 196.5,168.5 C196.5,169.052285 196.052285,169.5 195.5,169.5 L186.5,169.5 C185.947715,169.5 185.5,169.052285 185.5,168.5 C185.5,167.947715 185.947715,167.5 186.5,167.5 L195.5,167.5 Z" id="1-copy-9" fill="#0F1931" transform="translate(191.000000, 168.500000) rotate(-90.000000) translate(-191.000000, -168.500000) "></path>
            <path d="M217.5,167.5 C218.052285,167.5 218.5,167.947715 218.5,168.5 C218.5,169.052285 218.052285,169.5 217.5,169.5 L208.5,169.5 C207.947715,169.5 207.5,169.052285 207.5,168.5 C207.5,167.947715 207.947715,167.5 208.5,167.5 L217.5,167.5 Z" id="1-copy-10" fill="#0F1931" transform="translate(213.000000, 168.500000) rotate(-90.000000) translate(-213.000000, -168.500000) "></path>
            <path d="M239.5,167.5 C240.052285,167.5 240.5,167.947715 240.5,168.5 C240.5,169.052285 240.052285,169.5 239.5,169.5 L230.5,169.5 C229.947715,169.5 229.5,169.052285 229.5,168.5 C229.5,167.947715 229.947715,167.5 230.5,167.5 L239.5,167.5 Z" id="1-copy-2" fill="#0F1931" transform="translate(235.000000, 168.500000) rotate(-90.000000) translate(-235.000000, -168.500000) "></path>
            <path d="M261.5,167.5 C262.052285,167.5 262.5,167.947715 262.5,168.5 C262.5,169.052285 262.052285,169.5 261.5,169.5 L252.5,169.5 C251.947715,169.5 251.5,169.052285 251.5,168.5 C251.5,167.947715 251.947715,167.5 252.5,167.5 L261.5,167.5 Z" id="3" fill="#0F1931" transform="translate(257.000000, 168.500000) rotate(-90.000000) translate(-257.000000, -168.500000) "></path>
            <path d="M283.5,167.5 C284.052285,167.5 284.5,167.947715 284.5,168.5 C284.5,169.052285 284.052285,169.5 283.5,169.5 L274.5,169.5 C273.947715,169.5 273.5,169.052285 273.5,168.5 C273.5,167.947715 273.947715,167.5 274.5,167.5 L283.5,167.5 Z" id="3-copy" fill="#0F1931" transform="translate(279.000000, 168.500000) rotate(-90.000000) translate(-279.000000, -168.500000) "></path>
            <path d="M305.5,167.5 C306.052285,167.5 306.5,167.947715 306.5,168.5 C306.5,169.052285 306.052285,169.5 305.5,169.5 L296.5,169.5 C295.947715,169.5 295.5,169.052285 295.5,168.5 C295.5,167.947715 295.947715,167.5 296.5,167.5 L305.5,167.5 Z" id="3-copy-2" fill="#0F1931" transform="translate(301.000000, 168.500000) rotate(-90.000000) translate(-301.000000, -168.500000) "></path>
            <path d="M349.5,167.5 C350.052285,167.5 350.5,167.947715 350.5,168.5 C350.5,169.052285 350.052285,169.5 349.5,169.5 L340.5,169.5 C339.947715,169.5 339.5,169.052285 339.5,168.5 C339.5,167.947715 339.947715,167.5 340.5,167.5 L349.5,167.5 Z" id="6" fill="#0F1931" transform="translate(345.000000, 168.500000) rotate(-90.000000) translate(-345.000000, -168.500000) "></path>
            <path d="M327.5,167.5 C328.052285,167.5 328.5,167.947715 328.5,168.5 C328.5,169.052285 328.052285,169.5 327.5,169.5 L318.5,169.5 C317.947715,169.5 317.5,169.052285 317.5,168.5 C317.5,167.947715 317.947715,167.5 318.5,167.5 L327.5,167.5 Z" id="7" fill="#000000" transform="translate(323.000000, 168.500000) rotate(270.000000) translate(-323.000000, -168.500000) "></path>
            <path d="M0,170 C-0.55228475,170 -1,169.552285 -1,169 C-1,168.447715 -0.55228475,168 0,168 L360,168 C360.552285,168 361,168.447715 361,169 C361,169.552285 360.552285,170 360,170 L0,170 Z" id="Line" fill="#0F1931"></path>
            <path d="M147.25,10.09 C146.416663,10.09 145.780002,9.78166975 145.34,9.165 C144.899998,8.54833025 144.68,7.6500059 144.68,6.47 C144.68,5.3033275 144.899998,4.4133364 145.34,3.8 C145.780002,3.1866636 146.416663,2.88 147.25,2.88 C148.083337,2.88 148.719998,3.1866636 149.16,3.8 C149.600002,4.4133364 149.82,5.3033275 149.82,6.47 C149.82,7.6433392 149.600002,8.5399969 149.16,9.16 C148.719998,9.7800031 148.083337,10.09 147.25,10.09 Z M147.25,9.08 C147.703336,9.08 148.033332,8.87166875 148.24,8.455 C148.446668,8.03833125 148.55,7.3766712 148.55,6.47 C148.55,5.5699955 148.446668,4.91500205 148.24,4.505 C148.033332,4.09499795 147.703336,3.89 147.25,3.89 C146.796664,3.89 146.466668,4.09499795 146.26,4.505 C146.053332,4.91500205 145.95,5.5699955 145.95,6.47 C145.95,7.3766712 146.053332,8.03833125 146.26,8.455 C146.466668,8.87166875 146.796664,9.08 147.25,9.08 Z M150.79,8.62 L152.19,8.62 L152.19,10 L150.79,10 L150.79,8.62 Z M158.2,8.96 L158.2,10 L153.46,10 L153.46,9.05 L155.86,6.47 C156.140001,6.1633318 156.344999,5.88166795 156.475,5.625 C156.605001,5.36833205 156.67,5.1133346 156.67,4.86 C156.67,4.5399984 156.578334,4.29833415 156.395,4.135 C156.211666,3.97166585 155.943335,3.89 155.59,3.89 C154.956663,3.89 154.320003,4.1333309 153.68,4.62 L153.25,3.68 C153.530001,3.4333321 153.888331,3.23500075 154.325,3.085 C154.761669,2.93499925 155.199998,2.86 155.64,2.86 C156.34667,2.86 156.906665,3.0333316 157.32,3.38 C157.733335,3.7266684 157.94,4.1933304 157.94,4.78 C157.94,5.1866687 157.853334,5.56833155 157.68,5.925 C157.506666,6.28166845 157.213335,6.6799978 156.8,7.12 L155.07,8.96 L158.2,8.96 Z M160.68,8.62 L160.68,9.53 C160.68,9.8766684 160.620001,10.1916652 160.5,10.475 C160.379999,10.7583347 160.176668,11.0433319 159.89,11.33 L159.38,10.93 C159.693335,10.596665 159.873333,10.2866681 159.92,10 L159.28,10 L159.28,8.62 L160.68,8.62 Z M166.93,10.09 C166.096663,10.09 165.460002,9.78166975 165.02,9.165 C164.579998,8.54833025 164.36,7.6500059 164.36,6.47 C164.36,5.3033275 164.579998,4.4133364 165.02,3.8 C165.460002,3.1866636 166.096663,2.88 166.93,2.88 C167.763338,2.88 168.399998,3.1866636 168.84,3.8 C169.280002,4.4133364 169.5,5.3033275 169.5,6.47 C169.5,7.6433392 169.280002,8.5399969 168.84,9.16 C168.399998,9.7800031 167.763338,10.09 166.93,10.09 Z M166.93,9.08 C167.383336,9.08 167.713332,8.87166875 167.92,8.455 C168.126668,8.03833125 168.23,7.3766712 168.23,6.47 C168.23,5.5699955 168.126668,4.91500205 167.92,4.505 C167.713332,4.09499795 167.383336,3.89 166.93,3.89 C166.476664,3.89 166.146668,4.09499795 165.94,4.505 C165.733332,4.91500205 165.63,5.5699955 165.63,6.47 C165.63,7.3766712 165.733332,8.03833125 165.94,8.455 C166.146668,8.87166875 166.476664,9.08 166.93,9.08 Z M170.47,8.62 L171.87,8.62 L171.87,10 L170.47,10 L170.47,8.62 Z M178.14,7.62 L178.14,8.62 L177.15,8.62 L177.15,10 L175.89,10 L175.89,8.62 L172.83,8.62 L172.83,7.67 L176.11,2.95 L177.15,2.95 L177.15,7.62 L178.14,7.62 Z M174.03,7.62 L175.89,7.62 L175.89,4.93 L174.03,7.62 Z M180.35,8.62 L180.35,9.53 C180.35,9.8766684 180.290001,10.1916652 180.17,10.475 C180.049999,10.7583347 179.846668,11.0433319 179.56,11.33 L179.05,10.93 C179.363335,10.596665 179.543333,10.2866681 179.59,10 L178.95,10 L178.95,8.62 L180.35,8.62 Z M186.6,10.09 C185.766662,10.09 185.130002,9.78166975 184.69,9.165 C184.249998,8.54833025 184.03,7.6500059 184.03,6.47 C184.03,5.3033275 184.249998,4.4133364 184.69,3.8 C185.130002,3.1866636 185.766662,2.88 186.6,2.88 C187.433337,2.88 188.069998,3.1866636 188.51,3.8 C188.950002,4.4133364 189.17,5.3033275 189.17,6.47 C189.17,7.6433392 188.950002,8.5399969 188.51,9.16 C188.069998,9.7800031 187.433337,10.09 186.6,10.09 Z M186.6,9.08 C187.053336,9.08 187.383332,8.87166875 187.59,8.455 C187.796668,8.03833125 187.9,7.3766712 187.9,6.47 C187.9,5.5699955 187.796668,4.91500205 187.59,4.505 C187.383332,4.09499795 187.053336,3.89 186.6,3.89 C186.146664,3.89 185.816668,4.09499795 185.61,4.505 C185.403332,4.91500205 185.3,5.5699955 185.3,6.47 C185.3,7.3766712 185.403332,8.03833125 185.61,8.455 C185.816668,8.87166875 186.146664,9.08 186.6,9.08 Z M190.14,8.62 L191.54,8.62 L191.54,10 L190.14,10 L190.14,8.62 Z M195.52,5.48 C195.933335,5.48 196.303332,5.57499905 196.63,5.765 C196.956668,5.95500095 197.211666,6.22166495 197.395,6.565 C197.578334,6.90833505 197.67,7.2999978 197.67,7.74 C197.67,8.1933356 197.570001,8.59833155 197.37,8.955 C197.169999,9.31166845 196.890002,9.589999 196.53,9.79 C196.169998,9.990001 195.763336,10.09 195.31,10.09 C194.416662,10.09 193.728336,9.78833635 193.245,9.185 C192.761664,8.58166365 192.52,7.7200056 192.52,6.6 C192.52,5.8266628 192.634999,5.15833615 192.865,4.595 C193.095001,4.03166385 193.426664,3.60166815 193.86,3.305 C194.293336,3.00833185 194.806664,2.86 195.4,2.86 C195.820002,2.86 196.229998,2.93166595 196.63,3.075 C197.030002,3.21833405 197.376665,3.4199987 197.67,3.68 L197.24,4.62 C196.619997,4.1333309 196.023336,3.89 195.45,3.89 C194.936664,3.89 194.536668,4.10833115 194.25,4.545 C193.963332,4.98166885 193.813333,5.6133292 193.8,6.44 C193.953334,6.1399985 194.183332,5.90500085 194.49,5.735 C194.796668,5.56499915 195.139998,5.48 195.52,5.48 Z M195.25,9.07 C195.616669,9.07 195.908332,8.9533345 196.125,8.72 C196.341668,8.4866655 196.45,8.1733353 196.45,7.78 C196.45,7.3933314 196.340001,7.0833345 196.12,6.85 C195.899999,6.6166655 195.606668,6.5 195.24,6.5 C194.873332,6.5 194.575001,6.61833215 194.345,6.855 C194.114999,7.09166785 194,7.3999981 194,7.78 C194,8.1666686 194.114999,8.47833215 194.345,8.715 C194.575001,8.95166785 194.876665,9.07 195.25,9.07 Z M200.02,8.62 L200.02,9.53 C200.02,9.8766684 199.960001,10.1916652 199.84,10.475 C199.719999,10.7583347 199.516668,11.0433319 199.23,11.33 L198.72,10.93 C199.033335,10.596665 199.213333,10.2866681 199.26,10 L198.62,10 L198.62,8.62 L200.02,8.62 Z M206.27,10.09 C205.436662,10.09 204.800002,9.78166975 204.36,9.165 C203.919998,8.54833025 203.7,7.6500059 203.7,6.47 C203.7,5.3033275 203.919998,4.4133364 204.36,3.8 C204.800002,3.1866636 205.436662,2.88 206.27,2.88 C207.103338,2.88 207.739998,3.1866636 208.18,3.8 C208.620002,4.4133364 208.84,5.3033275 208.84,6.47 C208.84,7.6433392 208.620002,8.5399969 208.18,9.16 C207.739998,9.7800031 207.103338,10.09 206.27,10.09 Z M206.27,9.08 C206.723336,9.08 207.053332,8.87166875 207.26,8.455 C207.466668,8.03833125 207.57,7.3766712 207.57,6.47 C207.57,5.5699955 207.466668,4.91500205 207.26,4.505 C207.053332,4.09499795 206.723336,3.89 206.27,3.89 C205.816664,3.89 205.486668,4.09499795 205.28,4.505 C205.073332,4.91500205 204.97,5.5699955 204.97,6.47 C204.97,7.3766712 205.073332,8.03833125 205.28,8.455 C205.486668,8.87166875 205.816664,9.08 206.27,9.08 Z M209.81,8.62 L211.21,8.62 L211.21,10 L209.81,10 L209.81,8.62 Z M216.1,6.38 C216.513335,6.4933339 216.831666,6.6999985 217.055,7 C217.278334,7.3000015 217.39,7.6666645 217.39,8.1 C217.39,8.7200031 217.156669,9.20499825 216.69,9.555 C216.223331,9.90500175 215.576671,10.08 214.75,10.08 C213.923329,10.08 213.276669,9.90500175 212.81,9.555 C212.343331,9.20499825 212.11,8.7200031 212.11,8.1 C212.11,7.6666645 212.223332,7.29833485 212.45,6.995 C212.676668,6.69166515 212.996665,6.4866672 213.41,6.38 C213.056665,6.246666 212.780001,6.03833475 212.58,5.755 C212.379999,5.47166525 212.28,5.1400019 212.28,4.76 C212.28,4.1733304 212.499998,3.7100017 212.94,3.37 C213.380002,3.0299983 213.983329,2.86 214.75,2.86 C215.51667,2.86 216.119998,3.0299983 216.56,3.37 C217.000002,3.7100017 217.22,4.1733304 217.22,4.76 C217.22,5.1466686 217.120001,5.4833319 216.92,5.77 C216.719999,6.0566681 216.446668,6.2599994 216.1,6.38 Z M214.75,3.87 C213.916662,3.87 213.5,4.2099966 213.5,4.89 C213.5,5.2300017 213.604999,5.48833245 213.815,5.665 C214.025001,5.84166755 214.336665,5.93 214.75,5.93 C215.163335,5.93 215.474999,5.84166755 215.685,5.665 C215.895001,5.48833245 216,5.2300017 216,4.89 C216,4.2099966 215.583337,3.87 214.75,3.87 Z M214.75,9.07 C215.703338,9.07 216.18,8.7133369 216.18,8 C216.18,7.2866631 215.703338,6.93 214.75,6.93 C213.796662,6.93 213.32,7.2866631 213.32,8 C213.32,8.7133369 213.796662,9.07 214.75,9.07 Z" id="0.2,0.4,0.6,0.8" fill="#000000"></path>
        </g>
        <polygon id="Path-2" fill="#000000" fill-rule="nonzero" points="172 40 172 41 168.5 41 168.5 27 172 27 172 28 169.5 28 169.5 40"></polygon>
        <polygon id="Path-2-Copy" fill="#000000" fill-rule="nonzero" transform="translate(251.250000, 34.000000) rotate(-180.000000) translate(-251.250000, -34.000000) " points="253 40 253 41 249.5 41 249.5 27 253 27 253 28 250.5 28 250.5 40"></polygon>
    </g>
</svg>